<?xml version="1.0" encoding="utf-8"?>
<!-- Generator: Adobe Illustrator 27.4.1, SVG Export Plug-In . SVG Version: 6.00 Build 0)  -->
<svg version="1.1" id="Layer_1" xmlns="http://www.w3.org/2000/svg" xmlns:xlink="http://www.w3.org/1999/xlink" x="0px" y="0px"
	 viewBox="0 0 34 34" style="enable-background:new 0 0 34 34;" xml:space="preserve">
<style type="text/css">
	.st0{fill:#FFFFFF;}
</style>
<g>
	<g>
		<path class="st0" d="M17,33.95c-9.35,0-16.95-7.6-16.95-16.95S7.65,0.05,17,0.05S33.95,7.65,33.95,17S26.35,33.95,17,33.95z
			 M17,1.02C8.19,1.02,1.02,8.19,1.02,17S8.19,32.98,17,32.98S32.98,25.81,32.98,17S25.81,1.02,17,1.02z"/>
	</g>
	<g>
		<path class="st0" d="M18.48,24.05h-3.82v-5.48h-2.34v-3.2h2.34V15c0-3.3,1.69-5.05,4.88-5.05c0.79,0,1.13,0.09,1.49,0.17
			l0.65,0.15v3.2l-0.58-0.12c-0.52-0.1-0.66-0.1-1.22-0.1c-0.59,0-0.86,0.14-1.08,0.37c-0.24,0.24-0.37,0.76-0.37,1.43v0.31h3.48
			l-1.23,3.2h-2.19V24.05z M15.63,23.08h1.89V17.6h2.49l0.48-1.26h-3.03v-1.28c0-0.95,0.23-1.68,0.66-2.11
			c0.46-0.46,0.99-0.66,1.77-0.66c0.35,0,0.57,0,0.83,0.03v-1.28c-0.3-0.07-0.56-0.12-1.17-0.12c-2.67,0-3.91,1.3-3.91,4.08v1.34
			h-2.34v1.26h2.34V23.08z"/>
	</g>
</g>
</svg>
