<?xml version="1.0" encoding="utf-8"?>
<!-- Generator: Adobe Illustrator 27.4.1, SVG Export Plug-In . SVG Version: 6.00 Build 0)  -->
<svg version="1.1" id="Layer_1" xmlns="http://www.w3.org/2000/svg" xmlns:xlink="http://www.w3.org/1999/xlink" x="0px" y="0px"
	 viewBox="0 0 34 34" style="enable-background:new 0 0 34 34;" xml:space="preserve">
<style type="text/css">
	.st0{fill:#FFFFFF;}
</style>
<g>
	<g>
		<path class="st0" d="M17,33.95c-9.35,0-16.95-7.6-16.95-16.95S7.65,0.05,17,0.05S33.95,7.65,33.95,17S26.35,33.95,17,33.95z
			 M17,1.02C8.19,1.02,1.02,8.19,1.02,17S8.19,32.98,17,32.98S32.98,25.81,32.98,17S25.81,1.02,17,1.02z"/>
	</g>
	<g>
		<g>
			<path class="st0" d="M21.35,23.39h-8.22c-1.39,0-2.51-1.09-2.51-2.44v-7.91c0-1.34,1.13-2.44,2.51-2.44h8.17
				c1.39,0,2.51,1.09,2.51,2.44v7.86c0.03,0.63-0.2,1.26-0.65,1.73C22.7,23.12,22.03,23.39,21.35,23.39z M13.12,11.58
				c-0.85,0-1.55,0.66-1.55,1.47v7.91c0,0.81,0.69,1.47,1.55,1.47h8.22c0.43,0,0.83-0.17,1.11-0.46c0.26-0.28,0.4-0.64,0.38-1.03
				l0-7.88c0-0.81-0.69-1.47-1.55-1.47H13.12z"/>
		</g>
		<g>
			<path class="st0" d="M17.02,20.52c-0.96,0-1.85-0.36-2.51-1.01l0,0c-0.66-0.65-1.02-1.54-1.02-2.5s0.36-1.85,1.02-2.5
				c1.31-1.31,3.7-1.31,5.02,0c0.66,0.65,1.02,1.54,1.02,2.5s-0.36,1.85-1.02,2.5C18.88,20.16,17.99,20.52,17.02,20.52z
				 M17.02,14.45c-0.7,0-1.35,0.26-1.83,0.73c-0.47,0.47-0.73,1.12-0.73,1.81s0.26,1.34,0.73,1.81l0,0c0.95,0.95,2.7,0.95,3.65,0
				c0.47-0.47,0.73-1.12,0.73-1.81s-0.26-1.34-0.73-1.81C18.38,14.71,17.73,14.45,17.02,14.45z"/>
		</g>
		<g>
			<path class="st0" d="M20.69,14.25c-0.6,0-0.96-0.49-0.96-0.95c0-0.52,0.43-0.95,0.96-0.95s0.96,0.43,0.96,0.95
				C21.64,13.83,21.21,14.25,20.69,14.25z M20.69,13.12c-0.1,0-0.18,0.08-0.18,0.18c0,0,0,0.18,0.18,0.18c0.1,0,0.18-0.08,0.18-0.18
				S20.78,13.12,20.69,13.12z"/>
		</g>
	</g>
</g>
</svg>
