<?xml version="1.0" encoding="utf-8"?>
<!-- Generator: Adobe Illustrator 27.4.1, SVG Export Plug-In . SVG Version: 6.00 Build 0)  -->
<svg version="1.1" id="Layer_1" xmlns="http://www.w3.org/2000/svg" xmlns:xlink="http://www.w3.org/1999/xlink" x="0px" y="0px"
	 viewBox="0 0 34 34" style="enable-background:new 0 0 34 34;" xml:space="preserve">
<style type="text/css">
	.st0{fill:#FFFFFF;}
</style>
<g>
	<g>
		<path class="st0" d="M17,33.95c-9.35,0-16.95-7.6-16.95-16.95S7.65,0.05,17,0.05S33.95,7.65,33.95,17S26.35,33.95,17,33.95z
			 M17,1.02C8.19,1.02,1.02,8.19,1.02,17S8.19,32.98,17,32.98S32.98,25.81,32.98,17S25.81,1.02,17,1.02z"/>
	</g>
	<g>
		<path class="st0" d="M15.29,24.26c-2.8,0-5.07-2.13-5.07-4.75c0-2.62,2.28-4.75,5.07-4.75c0.25,0,0.53,0,0.83,0.07l0.37,0.09v3.31
			l-0.6-0.15c-0.22-0.05-0.42-0.1-0.59-0.1c-0.95,0-1.75,0.73-1.75,1.59s0.8,1.59,1.75,1.59c0.95,0,1.75-0.73,1.75-1.59V9.74h2.86
			l0.5,0.75c0.37,0.56,1.73,2.27,3.08,2.84l0.3,0.12v3.21l-0.57-0.1c-1.07-0.2-2.03-0.78-2.84-1.4v4.36
			C20.37,22.13,18.09,24.26,15.29,24.26z M15.29,15.74c-2.23,0-4.11,1.73-4.11,3.78c0,2.08,1.84,3.78,4.11,3.78
			c2.26,0,4.11-1.69,4.11-3.78v-6.46l0.8,0.71c0.71,0.62,1.61,1.34,2.61,1.69v-1.37c-1.47-0.75-2.8-2.44-3.21-3.06l-0.21-0.32h-1.37
			v8.87c0,1.41-1.22,2.56-2.72,2.56c-1.5,0-2.72-1.15-2.72-2.56s1.22-2.56,2.72-2.56c0.07,0,0.15,0,0.22,0.01v-1.29
			C15.44,15.74,15.37,15.74,15.29,15.74z"/>
	</g>
</g>
</svg>
