<?xml version="1.0" encoding="utf-8"?>
<!-- Generator: Adobe Illustrator 27.4.1, SVG Export Plug-In . SVG Version: 6.00 Build 0)  -->
<svg version="1.1" id="Layer_1" xmlns="http://www.w3.org/2000/svg" xmlns:xlink="http://www.w3.org/1999/xlink" x="0px" y="0px"
	 viewBox="0 0 34 34" style="enable-background:new 0 0 34 34;" xml:space="preserve">
<style type="text/css">
	.st0{fill:#FFFFFF;}
</style>
<g>
	<g>
		<path class="st0" d="M17,33.95c-9.35,0-16.95-7.6-16.95-16.95S7.65,0.05,17,0.05S33.95,7.65,33.95,17S26.35,33.95,17,33.95z
			 M17,1.02C8.19,1.02,1.02,8.19,1.02,17S8.19,32.98,17,32.98S32.98,25.81,32.98,17S25.81,1.02,17,1.02z"/>
	</g>
	<g>
		<path class="st0" d="M14.29,22.81c-1.56,0-3.08-0.44-4.38-1.3c-0.1-0.08-0.2-0.16-0.27-0.24c-0.03-0.02-0.09-0.07-0.18-0.13
			l-1.33-0.95l1.63,0.07c1.09,0.05,1.99-0.08,2.88-0.41c-0.85-0.35-1.43-0.92-1.82-1.74l-0.26-0.56l0.26-0.05
			c-0.71-0.56-1.08-1.26-1.13-2.11l-0.03-0.51h0.46c-0.58-0.92-0.58-1.91-0.01-2.95l0.3-0.55l0.45,0.43
			c1.25,1.19,2.63,1.94,4.32,2.35c0.08,0.01,0.16,0.04,0.22,0.06c0.27,0.05,0.51,0.11,0.73,0.17c0.07,0.02,0.16,0.04,0.24,0.06
			c-0.04-0.2-0.06-0.44,0-0.72c0.18-0.95,0.85-1.75,1.84-2.19c1.15-0.52,2.54-0.44,3.61,0.21c0.35,0.25,0.58,0.24,1.16,0.09
			c0.13-0.03,0.26-0.08,0.38-0.13c0.16-0.06,0.33-0.12,0.49-0.16l0.69-0.17l-0.09,0.7c-0.02,0.19-0.08,0.36-0.16,0.51l0.8-0.27
			l-0.39,0.97c-0.18,0.44-0.54,0.7-0.83,0.92l-0.13,0.09c-0.24,0.15-0.26,0.21-0.32,0.51c-0.1,2.77-1.99,5.47-4.92,6.96
			C17.14,22.46,15.69,22.81,14.29,22.81z M11.26,21.17c2.03,0.97,4.52,0.89,6.82-0.28c2.62-1.34,4.3-3.72,4.4-6.21
			c0.07-0.38,0.16-0.7,0.44-0.97l-0.89-0.15l0.66-0.66c0.01-0.01,0.02-0.02,0.03-0.03c-0.47,0.07-0.92,0.03-1.42-0.33
			c-0.77-0.46-1.81-0.52-2.68-0.13c-0.69,0.31-1.16,0.86-1.28,1.5c-0.04,0.19,0,0.34,0.04,0.51c0.05,0.2,0.12,0.48-0.05,0.74
			c-0.11,0.17-0.29,0.27-0.54,0.3c-0.3,0-0.57-0.07-0.89-0.16c-0.19-0.05-0.39-0.11-0.56-0.14c-0.05,0.01-0.14-0.03-0.22-0.05
			L15,15.1c-1.65-0.4-3.03-1.08-4.28-2.14c-0.22,0.8,0.1,1.49,1,2.24l0.84,0.7l-1.08,0.16c-0.25,0.03-0.47,0.01-0.65-0.04
			c0.26,0.56,0.84,1,1.78,1.36l1.25,0.49l-1.27,0.42c-0.15,0.05-0.3,0.08-0.43,0.09c0.43,0.46,1.04,0.73,1.95,0.87l1.35,0.21
			l-1.18,0.68C13.29,20.71,12.32,21.04,11.26,21.17z"/>
	</g>
</g>
</svg>
