<?xml version="1.0" encoding="UTF-8" standalone="no"?>
<!-- Created with Inkscape (http://www.inkscape.org/) -->
<svg
   xmlns:svg="http://www.w3.org/2000/svg"
   xmlns="http://www.w3.org/2000/svg"
   version="1.0"
   width="921.25983"
   height="378.07086"
   id="svg2">
  <defs
     id="defs4" />
  <g
     transform="translate(-661.30171,148.54766)"
     id="layer1">
    <g
       transform="translate(17.716518,17.791116)"
       id="g21262">
      <path
         d="M 834.3404,163.73263 C 823.8589,165.5682 820.1877,167.80086 820.1877,172.05641 C 820.1877,175.27055 822.6152,177.49571 826.2189,177.49571 C 829.2307,177.49571 831.853,176.04971 833.1641,173.62224 C 833.9508,172.12385 834.3404,170.02602 834.3404,166.81188 L 834.3404,163.73263 z M 816.584,157.64149 C 817.2433,151.80512 821.304,148.65843 828.1818,148.65843 C 833.224,148.65843 836.9626,150.56144 838.1464,153.77557 C 838.7308,155.3414 838.8656,156.85483 838.8656,160.72081 L 838.8656,172.38605 C 838.8656,177.42827 838.993,178.40975 839.7122,180.57496 L 835.3219,180.57496 C 834.8648,179.12897 834.7974,178.40975 834.6026,176.37935 C 832.767,179.72087 829.7552,181.36168 825.4996,181.36168 C 819.4011,181.36168 815.46765,177.82534 815.46765,172.38605 C 815.46765,168.06311 817.9626,164.84898 822.6826,163.08084 C 825.6945,161.97198 828.5789,161.30515 834.3404,160.32373 L 834.3404,159.02005 C 834.3404,154.36747 832.5722,152.59927 827.9871,152.59927 C 823.9863,152.59927 821.761,154.16516 821.1093,157.64149 L 816.584,157.64149"
         style="fill:#211d1e;fill-rule:nonzero;stroke:none"
         id="path20911" />
      <path
         d="M 848.3881,180.56747 L 853.2581,180.56747 L 853.2581,136.66348 L 848.3881,136.66348 L 848.3881,180.56747 z "
         style="fill:#211d1e;fill-rule:nonzero;stroke:none"
         id="path20913" />
      <path
         d="M 863.8295,149.52002 L 870.5125,174.15419 L 877.7799,149.52002 L 881.7132,149.52002 L 888.9881,174.15419 L 895.6711,149.52002 L 900.3912,149.52002 L 891.4081,180.97204 L 886.8903,180.97204 L 879.7503,156.59263 L 872.5429,180.97204 L 868.085,180.97204 L 859.1094,149.52002 L 863.8295,149.52002"
         style="fill:#211d1e;fill-rule:nonzero;stroke:none"
         id="path20917" />
      <path
         d="M 922.5979,163.73263 C 912.1164,165.5682 908.4452,167.80086 908.4452,172.05641 C 908.4452,175.27055 910.8727,177.49571 914.4764,177.49571 C 917.4882,177.49571 920.1105,176.04971 921.4217,173.62224 C 922.2083,172.12385 922.5979,170.02602 922.5979,166.81188 L 922.5979,163.73263 z M 904.8415,157.64149 C 905.5008,151.80512 909.5616,148.65843 916.4394,148.65843 C 921.4891,148.65843 925.2201,150.56144 926.4039,153.77557 C 926.9883,155.3414 927.1231,156.85483 927.1231,160.72081 L 927.1231,172.38605 C 927.1231,177.42827 927.2505,178.40975 927.9697,180.57496 L 923.5869,180.57496 C 923.1224,179.12897 923.0624,178.40975 922.8602,176.37935 C 921.0246,179.72087 918.0127,181.36168 913.7571,181.36168 C 907.6586,181.36168 903.7326,177.82534 903.7326,172.38605 C 903.7326,168.06311 906.2201,164.84898 910.9401,163.08084 C 913.952,161.97198 916.8365,161.30515 922.5979,160.32373 L 922.5979,159.02005 C 922.5979,154.36747 920.8298,152.59927 916.2446,152.59927 C 912.2513,152.59927 910.0186,154.16516 909.3668,157.64149 L 904.8415,157.64149"
         style="fill:#211d1e;fill-rule:nonzero;stroke:none"
         id="path20921" />
      <path
         d="M 936.8929,149.52002 L 945.344,175.39793 L 954.0574,149.52002 L 958.8374,149.52002 L 948.6181,178.40975 C 945.7337,186.67359 945.1493,187.84983 943.1788,190.01511 C 940.8862,192.42754 937.8744,193.67877 934.1358,193.67877 C 933.8736,193.67877 933.3492,193.67877 932.6973,193.61133 L 932.6973,189.5431 C 938.5936,189.61803 940.2943,188.17204 942.7892,180.90466 L 931.9781,149.52002 L 936.8929,149.52002"
         style="fill:#211d1e;fill-rule:nonzero;stroke:none"
         id="path20925" />
      <path
         d="M 979.9353,158.03113 C 979.4783,154.23259 977.4479,152.46446 973.582,152.46446 C 970.0457,152.46446 967.6182,154.36747 967.6182,157.11709 C 967.6182,159.67189 968.9294,160.65337 974.8257,162.36156 C 979.9353,163.8675 981.8383,164.78904 983.1495,166.28748 C 984.3257,167.66604 984.9176,169.50162 984.9176,171.66683 C 984.9176,177.63058 980.5946,181.36168 973.6494,181.36168 C 966.1123,181.36168 961.9167,177.63058 961.9167,170.94755 L 966.3746,170.94755 C 966.7641,175.33049 969.1241,177.49571 973.582,177.49571 C 977.6427,177.49571 980.1975,175.33049 980.1975,172.05641 C 980.1975,170.34822 979.5457,169.23936 978.0997,168.39275 C 977.0508,167.72592 976.6612,167.5986 971.2894,165.89784 C 965.2582,164.06226 962.9656,161.76966 962.9656,157.44673 C 962.9656,152.2022 967.2886,148.65843 973.6494,148.65843 C 980.265,148.65843 984.0635,151.99994 984.3931,158.03113 L 979.9353,158.03113"
         style="fill:#211d1e;fill-rule:nonzero;stroke:none"
         id="path20929" />
      <path
         d="M 1008.87,149.54999 L 1013.7399,149.54999 L 1013.7399,180.56747 L 1008.87,180.56747 L 1008.87,149.54999 z M 1014.6389,139.66037 C 1014.6389,141.60829 1013.2904,142.95693 1011.3424,142.95693 C 1009.3945,142.95693 1007.971,141.60829 1007.971,139.66037 C 1007.971,137.7124 1009.3945,136.28889 1011.4173,136.28889 C 1013.2904,136.28889 1014.6389,137.7124 1014.6389,139.66037"
         style="fill:#211d1e;fill-rule:nonzero;stroke:none"
         id="path20931" />
      <path
         d="M 1026.9785,149.52002 C 1027.4355,150.82364 1027.6379,152.06738 1027.6379,154.03777 C 1029.7356,150.43406 1032.8748,148.65843 1037.003,148.65843 C 1041.2661,148.65843 1044.5401,150.56144 1045.9187,153.70814 C 1046.7728,155.74603 1046.9002,156.59263 1046.9002,162.75114 L 1046.9002,180.57496 L 1042.315,180.57496 L 1042.315,163.0134 C 1042.315,158.29333 1042.1801,157.18447 1041.4608,155.67859 C 1040.4794,153.77557 1038.6438,152.72666 1036.089,152.72666 C 1033.2719,152.72666 1030.7171,154.16516 1029.2711,156.59263 C 1028.3571,158.22589 1027.9001,160.26379 1027.9001,163.20817 L 1027.9001,180.57496 L 1023.3149,180.57496 L 1023.3149,160.06896 C 1023.3149,152.66671 1023.3149,152.40451 1022.5881,149.52002 L 1026.9785,149.52002"
         style="fill:#211d1e;fill-rule:nonzero;stroke:none"
         id="path20935" />
      <path
         d="M 1072.5158,158.03113 C 1072.0588,154.23259 1070.0284,152.46446 1066.1624,152.46446 C 1062.6262,152.46446 1060.1987,154.36747 1060.1987,157.11709 C 1060.1987,159.67189 1061.5099,160.65337 1067.4062,162.36156 C 1072.5158,163.8675 1074.4188,164.78904 1075.73,166.28748 C 1076.9062,167.66604 1077.4981,169.50162 1077.4981,171.66683 C 1077.4981,177.63058 1073.1751,181.36168 1066.2299,181.36168 C 1058.6928,181.36168 1054.4972,177.63058 1054.4972,170.94755 L 1058.955,170.94755 C 1059.3446,175.33049 1061.7046,177.49571 1066.1624,177.49571 C 1070.2232,177.49571 1072.778,175.33049 1072.778,172.05641 C 1072.778,170.34822 1072.1262,169.23936 1070.6803,168.39275 C 1069.6313,167.72592 1069.2417,167.5986 1063.8698,165.89784 C 1057.8387,164.06226 1055.5461,161.76966 1055.5461,157.44673 C 1055.5461,152.2022 1059.869,148.65843 1066.2299,148.65843 C 1072.8455,148.65843 1076.644,151.99994 1076.9736,158.03113 L 1072.5158,158.03113"
         style="fill:#211d1e;fill-rule:nonzero;stroke:none"
         id="path20939" />
      <path
         d="M 1089.6204,165.05124 C 1089.6204,172.38605 1093.0218,177.36832 1098.0041,177.36832 C 1102.9864,177.36832 1105.9308,172.77563 1105.9308,165.24606 C 1105.9308,157.57411 1102.859,152.66671 1098.0041,152.66671 C 1092.9619,152.66671 1089.6204,157.57411 1089.6204,165.05124 z M 1085.1026,158.75785 C 1085.1026,153.38599 1084.9677,151.74518 1084.5107,149.52002 L 1089.0285,149.52002 C 1089.4181,150.89108 1089.4855,151.54292 1089.5529,154.10521 C 1091.7856,150.30667 1094.4004,148.65843 1098.3337,148.65843 C 1105.736,148.65843 1110.6508,155.28151 1110.6508,165.11118 C 1110.6508,174.87347 1105.8709,181.36168 1098.6634,181.36168 C 1094.73,181.36168 1091.9804,179.78831 1089.6803,176.24453 L 1089.6803,193.48395 L 1085.1026,193.48395 L 1085.1026,158.75785"
         style="fill:#211d1e;fill-rule:nonzero;stroke:none"
         id="path20943" />
      <path
         d="M 1118.4052,149.54999 L 1123.2002,149.54999 L 1123.2002,180.56747 L 1118.4052,180.56747 L 1118.4052,149.54999 z M 1124.1742,139.66037 C 1124.1742,141.60829 1122.7507,142.95693 1120.8027,142.95693 C 1118.9297,142.95693 1117.4312,141.60829 1117.4312,139.66037 C 1117.4312,137.7124 1118.9297,136.28889 1120.8776,136.28889 C 1122.7507,136.28889 1124.1742,137.7124 1124.1742,139.66037"
         style="fill:#211d1e;fill-rule:nonzero;stroke:none"
         id="path20945" />
      <path
         d="M 1136.7984,149.52002 C 1137.188,151.0859 1137.3903,152.72666 1137.3903,154.30003 C 1137.3903,154.68962 1137.3903,155.3414 1137.3154,156.20305 C 1139.4806,151.02595 1141.968,148.65843 1145.3096,148.65843 C 1146.4933,148.65843 1147.737,148.98806 1149.0481,149.6474 L 1149.0481,154.23259 C 1146.9503,153.25111 1146.0962,152.98891 1144.9199,152.98891 C 1142.5,152.98891 1140.3347,154.75705 1138.9562,157.76887 C 1137.9747,159.93409 1137.5776,162.55638 1137.5776,166.68456 L 1137.5776,180.57496 L 1132.925,180.57496 L 1132.925,160.19635 C 1132.925,153.12373 1132.8651,152.53189 1132.4081,149.52002 L 1136.7984,149.52002"
         style="fill:#211d1e;fill-rule:nonzero;stroke:none"
         id="path20949" />
      <path
         d="M 1154.5173,149.54999 L 1159.3873,149.54999 L 1159.3873,180.56747 L 1154.5173,180.56747 L 1154.5173,149.54999 z M 1160.2863,139.66037 C 1160.2863,141.60829 1158.9378,142.95693 1156.9898,142.95693 C 1155.0418,142.95693 1153.6183,141.60829 1153.6183,139.66037 C 1153.6183,137.7124 1155.0418,136.28889 1157.0647,136.28889 C 1158.9378,136.28889 1160.2863,137.7124 1160.2863,139.66037"
         style="fill:#211d1e;fill-rule:nonzero;stroke:none"
         id="path20951" />
      <path
         d="M 1172.6259,149.52002 C 1173.0904,150.82364 1173.2852,152.06738 1173.2852,154.03777 C 1175.3755,150.43406 1178.5297,148.65843 1182.6504,148.65843 C 1186.9134,148.65843 1190.1875,150.56144 1191.566,153.70814 C 1192.4202,155.74603 1192.5475,156.59263 1192.5475,162.75114 L 1192.5475,180.57496 L 1187.9623,180.57496 L 1187.9623,163.0134 C 1187.9623,158.29333 1187.835,157.18447 1187.1082,155.67859 C 1186.1267,153.77557 1184.2912,152.72666 1181.7364,152.72666 C 1178.9193,152.72666 1176.3645,154.16516 1174.9185,156.59263 C 1174.0045,158.22589 1173.5474,160.26379 1173.5474,163.20817 L 1173.5474,180.57496 L 1168.9548,180.57496 L 1168.9548,160.06896 C 1168.9548,152.66671 1168.9548,152.40451 1168.2355,149.52002 L 1172.6259,149.52002"
         style="fill:#211d1e;fill-rule:nonzero;stroke:none"
         id="path20955" />
      <path
         d="M 1206.1158,159.60445 C 1206.1158,163.47043 1208.798,166.02522 1212.7913,166.02522 C 1216.8595,166.02522 1219.4743,163.47043 1219.4743,159.60445 C 1219.4743,155.67859 1216.7921,152.79409 1213.0536,152.79409 C 1208.9254,152.79409 1206.1158,155.55121 1206.1158,159.60445 z M 1203.3587,184.70314 C 1203.3587,187.97722 1207.2246,190.14243 1213.1809,190.14243 C 1219.0847,190.14243 1222.7558,188.04466 1222.7558,184.70314 C 1222.7558,181.22681 1219.2795,179.32379 1212.8587,179.32379 C 1206.8276,179.32379 1203.3587,181.29424 1203.3587,184.70314 z M 1227.4684,152.98891 L 1221.1151,152.86153 C 1222.8158,154.42736 1223.8048,157.11709 1223.8048,160.00153 C 1223.8048,163.0134 1222.6884,165.63564 1220.6581,167.07414 C 1219.2795,168.13049 1217.1218,168.90972 1213.6454,169.62894 C 1210.6336,170.28827 1209.9143,170.48304 1208.9254,170.94755 C 1207.7491,171.53195 1207.0898,172.25118 1207.0898,173.03789 C 1207.0898,174.34901 1207.884,174.61121 1213.3233,175.13567 C 1219.4743,175.72757 1221.2425,176.11715 1223.2728,177.23351 C 1225.7677,178.67195 1227.2062,181.22681 1227.2062,184.31356 C 1227.2062,190.26982 1221.8343,193.94097 1213.1209,193.94097 C 1204.6698,193.94097 1199.1631,190.40469 1199.1631,184.9654 C 1199.1631,181.22681 1201.1336,178.93421 1205.7187,177.30089 C 1203.2913,176.37935 1202.3772,175.33049 1202.3772,173.68968 C 1202.3772,171.59939 1203.8832,170.22084 1207.9439,168.7149 C 1203.6883,167.0067 1201.7254,164.12221 1201.7254,159.73933 C 1201.7254,153.31855 1206.2431,149.12294 1213.1209,149.12294 C 1214.8217,149.12294 1216.1328,149.32525 1217.9759,149.84965 L 1227.4684,149.52002 L 1227.4684,152.98891"
         style="fill:#211d1e;fill-rule:nonzero;stroke:none"
         id="path20959" />
      <path
         d="M 1253.8782,149.52002 C 1254.2678,150.62888 1254.4701,152.13476 1254.4701,153.77557 C 1256.4331,150.30667 1259.2501,148.65843 1263.5056,148.65843 C 1267.8286,148.65843 1270.5183,150.36662 1272.0917,154.10521 C 1274.1895,150.43406 1277.2687,148.65843 1281.6592,148.65843 C 1285.3228,148.65843 1288.2073,150.10442 1289.6533,152.66671 C 1290.7022,154.49479 1290.8296,155.67859 1290.8296,161.56741 L 1290.8296,180.57496 L 1286.2444,180.57496 L 1286.2444,161.56741 C 1286.2444,157.50667 1286.117,156.46525 1285.3228,155.14664 C 1284.3413,153.64819 1282.6406,152.79409 1280.2132,152.79409 C 1277.4636,152.79409 1275.2384,154.03777 1273.9947,156.27043 C 1273.1406,157.64149 1272.8109,159.40969 1272.8109,162.22669 L 1272.8109,180.57496 L 1268.2257,180.57496 L 1268.2257,162.29412 C 1268.2257,157.50667 1268.1583,156.72745 1267.499,155.55121 C 1266.585,153.77557 1264.6894,152.72666 1262.262,152.72666 C 1259.5123,152.72666 1257.0849,154.03777 1255.9086,156.27043 C 1255.0545,157.83631 1254.7323,159.67189 1254.7323,162.48895 L 1254.7323,180.57496 L 1250.1396,180.57496 L 1250.1396,159.14743 C 1250.1396,152.72666 1250.0798,152.13476 1249.3605,149.52002 L 1253.8782,149.52002"
         style="fill:#211d1e;fill-rule:nonzero;stroke:none"
         id="path20963" />
      <path
         d="M 1303.0792,164.84898 C 1303.0792,172.446 1306.5555,177.42827 1311.9274,177.42827 C 1317.2319,177.42827 1320.7756,172.446 1320.7756,164.9838 C 1320.7756,157.57411 1317.2319,152.59927 1311.9274,152.59927 C 1306.6829,152.59927 1303.0792,157.57411 1303.0792,164.84898 z M 1325.4882,165.05124 C 1325.4882,174.61121 1319.9215,181.36168 1311.9274,181.36168 C 1303.8659,181.36168 1298.3666,174.67865 1298.3666,164.78904 C 1298.3666,155.41633 1304.0007,148.65843 1311.9274,148.65843 C 1319.9215,148.65843 1325.4882,155.3414 1325.4882,165.05124"
         style="fill:#211d1e;fill-rule:nonzero;stroke:none"
         id="path20967" />
      <path
         d="M 1337.1535,149.52002 C 1337.5431,151.0859 1337.7454,152.72666 1337.7454,154.30003 C 1337.7454,154.68962 1337.7454,155.3414 1337.6779,156.20305 C 1339.8431,151.02595 1342.3306,148.65843 1345.6721,148.65843 C 1346.8483,148.65843 1348.092,148.98806 1349.4107,149.6474 L 1349.4107,154.23259 C 1347.3053,153.25111 1346.4587,152.98891 1345.275,152.98891 C 1342.855,152.98891 1340.6898,154.75705 1339.3112,157.76887 C 1338.3298,159.93409 1337.9402,162.55638 1337.9402,166.68456 L 1337.9402,180.57496 L 1333.2876,180.57496 L 1333.2876,160.19635 C 1333.2876,153.12373 1333.2201,152.53189 1332.7631,149.52002 L 1337.1535,149.52002"
         style="fill:#211d1e;fill-rule:nonzero;stroke:none"
         id="path20971" />
      <path
         d="M 1374.0374,162.22669 C 1373.5204,155.94079 1370.6958,152.53189 1366.0432,152.53189 C 1361.5254,152.53189 1358.6484,155.87335 1357.7269,162.22669 L 1374.0374,162.22669 z M 1357.5996,165.83046 C 1357.7943,173.36753 1360.9335,177.42827 1366.5752,177.42827 C 1369.9766,177.42827 1372.007,176.11715 1373.7751,172.7082 L 1378.0456,173.23266 C 1376.1351,178.61206 1372.2093,181.36168 1366.5077,181.36168 C 1358.1839,181.36168 1352.8795,175.13567 1352.8795,165.37344 C 1352.8795,155.28151 1358.1165,148.65843 1366.2455,148.65843 C 1373.91,148.65843 1378.8248,154.88438 1378.8248,164.51928 C 1378.8248,164.7216 1378.8248,165.24606 1378.7574,165.83046 L 1357.5996,165.83046"
         style="fill:#211d1e;fill-rule:nonzero;stroke:none"
         id="path20975" />
      <path
         d="M 1422.5265,177.49571 C 1422.5265,179.52611 1420.8183,181.22681 1418.728,181.22681 C 1416.6977,181.22681 1414.9894,179.52611 1414.9894,177.49571 C 1414.9894,175.39793 1416.6977,173.68968 1418.7954,173.68968 C 1420.8183,173.68968 1422.5265,175.39793 1422.5265,177.49571 z M 1408.2465,177.49571 C 1408.2465,179.52611 1406.5458,181.22681 1404.4405,181.22681 C 1402.4101,181.22681 1400.7094,179.52611 1400.7094,177.49571 C 1400.7094,175.39793 1402.4101,173.68968 1404.5079,173.68968 C 1406.5458,173.68968 1408.2465,175.39793 1408.2465,177.49571 z M 1393.899,177.49571 C 1393.899,179.52611 1392.1908,181.22681 1390.093,181.22681 C 1388.0626,181.22681 1386.3619,179.52611 1386.3619,177.49571 C 1386.3619,175.33049 1388.0626,173.68968 1390.1605,173.68968 C 1392.1908,173.68968 1393.899,175.39793 1393.899,177.49571"
         style="fill:#211d1e;fill-rule:nonzero;stroke:none"
         id="path20979" />
      <path
         d="M 717.01331,35.41457 C 715.60478,23.659408 709.31889,18.197635 697.3689,18.197635 C 686.42288,18.197635 678.92327,24.063977 678.92327,32.567601 C 678.92327,40.471774 682.98401,43.513625 701.21989,48.78807 C 717.01331,53.440704 722.89464,56.280241 726.94795,60.940368 C 730.59662,65.195867 732.41721,70.867447 732.41721,77.557913 C 732.41721,95.996113 719.04371,107.54152 697.57122,107.54152 C 674.26315,107.54152 661.30171,95.996113 661.30171,75.32526 L 675.07229,75.32526 C 676.29349,88.901073 683.58334,95.584043 697.3689,95.584043 C 709.92577,95.584043 717.83,88.901073 717.83,78.771681 C 717.83,73.504669 715.79961,70.065802 711.34179,67.436073 C 708.09769,65.398181 706.89141,64.993612 690.27387,59.719108 C 671.62592,54.047588 664.53832,46.967479 664.53832,33.59398 C 664.53832,17.381004 677.91182,6.434979 697.57122,6.434979 C 718.03226,6.434979 729.77993,16.77412 730.79138,35.41457 L 717.01331,35.41457"
         style="fill:#211d1e;fill-rule:nonzero;stroke:none"
         id="path20983" />
      <path
         d="M 761.08215,9.072201 L 787.22976,89.103333 L 814.17152,9.072201 L 828.961,9.072201 L 797.35915,98.416093 C 788.43597,123.94932 786.61538,127.60549 780.53929,134.28097 C 773.4367,141.78812 764.12394,145.63162 752.57859,145.63162 C 751.7619,145.63162 750.15111,145.63162 748.11322,145.42181 L 748.11322,132.865 C 766.34916,133.06726 771.61611,128.60945 779.32553,106.11801 L 745.88806,9.072201 L 761.08215,9.072201"
         style="fill:#211d1e;fill-rule:nonzero;stroke:none"
         id="path20987" />
      <path
         d="M 859.4541,9.072201 C 860.6678,12.518621 861.2747,17.186182 861.2747,22.243386 C 867.3508,11.514662 876.0642,6.434979 889.2354,6.434979 C 902.6089,6.434979 910.9177,11.716917 915.78,23.254839 C 922.2683,11.911738 931.7833,6.434979 945.359,6.434979 C 956.7097,6.434979 965.6178,10.900285 970.0756,18.797025 C 973.3197,24.468546 973.7243,28.117221 973.7243,46.353162 L 973.7243,105.10655 L 959.5417,105.10655 L 959.5417,46.353162 C 959.5417,33.796294 959.1371,30.552188 956.7097,26.498944 C 953.6678,21.838817 948.3934,19.209088 940.8937,19.209088 C 932.3902,19.209088 925.5124,23.052524 921.6539,29.952798 C 919.0167,34.19337 918.0052,39.662636 918.0052,48.3835 L 918.0052,105.10655 L 903.8226,105.10655 L 903.8226,48.585815 C 903.8226,33.796294 903.6203,31.361326 901.5974,27.712652 C 898.7579,22.243386 892.884,18.99928 885.3919,18.99928 C 876.8808,18.99928 869.3886,23.052524 865.7325,29.952798 C 863.0952,34.807747 862.0838,40.471774 862.0838,49.185146 L 862.0838,105.10655 L 847.9012,105.10655 L 847.9012,38.853498 C 847.9012,18.99928 847.7064,17.186182 845.4737,9.072201 L 859.4541,9.072201"
         style="fill:#211d1e;fill-rule:nonzero;stroke:none"
         id="path20991" />
      <path
         d="M 1010.2186,9.072201 C 1011.4248,13.934583 1012.0317,18.99928 1012.0317,23.869215 C 1012.0317,25.082923 1012.0317,27.105828 1011.8219,29.74305 C 1018.5199,13.732329 1026.2218,6.434979 1036.5535,6.434979 C 1040.1947,6.434979 1044.0456,7.446432 1048.0989,9.47677 L 1048.0989,23.659408 C 1041.6182,20.625109 1038.981,19.815971 1035.3398,19.815971 C 1027.8326,19.815971 1021.1496,25.285237 1016.9016,34.597939 C 1013.8598,41.288465 1012.6385,49.38746 1012.6385,62.154076 L 1012.6385,105.10655 L 998.2611,105.10655 L 998.2611,42.09011 C 998.2611,20.22054 998.0513,18.392456 996.6353,9.072201 L 1010.2186,9.072201"
         style="fill:#211d1e;fill-rule:nonzero;stroke:none"
         id="path20995" />
      <path
         d="M 1081.836,-23.046652 C 1081.836,-17.18031 1077.588,-12.917259 1071.5044,-12.917259 C 1065.623,-12.917259 1061.1727,-17.18031 1061.1727,-23.046652 C 1061.1727,-29.122802 1065.623,-33.588108 1071.6991,-33.588108 C 1077.588,-33.588108 1081.836,-29.122802 1081.836,-23.046652"
         style="fill:#211d1e;fill-rule:nonzero;stroke:none"
         id="path20999" />
      <path
         d="M 1064.0122,105.12154 L 1078.9965,105.12154 L 1078.9965,9.072201 L 1064.0122,9.072201 L 1064.0122,105.12154 z "
         style="fill:#211d1e;fill-rule:nonzero;stroke:none"
         id="path21001" />
      <path
         d="M 1154.9444,35.41457 C 1153.5209,23.659408 1147.235,18.197635 1135.285,18.197635 C 1124.339,18.197635 1116.8469,24.063977 1116.8469,32.567601 C 1116.8469,40.471774 1120.8926,43.513625 1139.136,48.78807 C 1154.9444,53.440704 1160.8108,56.280241 1164.864,60.940368 C 1168.5127,65.195867 1170.3408,70.867447 1170.3408,77.557913 C 1170.3408,95.996113 1156.9598,107.54152 1135.4873,107.54152 C 1112.1942,107.54152 1099.2253,95.996113 1099.2253,75.32526 L 1112.9884,75.32526 C 1114.2171,88.901073 1121.507,95.584043 1135.285,95.584043 C 1147.8494,95.584043 1155.7461,88.901073 1155.7461,78.771681 C 1155.7461,73.504669 1153.7232,70.065802 1149.2504,67.436073 C 1146.0288,65.398181 1144.8151,64.993612 1128.19,59.719108 C 1109.557,54.047588 1102.4619,46.967479 1102.4619,33.59398 C 1102.4619,17.381004 1115.8279,6.434979 1135.4873,6.434979 C 1155.9484,6.434979 1167.6886,16.77412 1168.7075,35.41457 L 1154.9444,35.41457"
         style="fill:#211d1e;fill-rule:nonzero;stroke:none"
         id="path21005" />
      <path
         d="M 1252.9942,48.3835 C 1251.3684,28.926419 1242.655,18.392456 1228.2776,18.392456 C 1214.2972,18.392456 1205.389,28.724104 1202.5495,48.3835 L 1252.9942,48.3835 z M 1202.1375,59.524347 C 1202.7443,82.824924 1212.4767,95.381733 1229.9034,95.381733 C 1240.4299,95.381733 1246.7158,91.328493 1252.1925,80.794526 L 1265.3562,82.405369 C 1259.4749,99.030403 1247.3226,107.54152 1229.6861,107.54152 C 1203.958,107.54152 1187.5502,88.279203 1187.5502,58.108325 C 1187.5502,26.911007 1203.7558,6.434979 1228.877,6.434979 C 1252.5971,6.434979 1267.7837,25.682313 1267.7837,55.478596 C 1267.7837,56.077926 1267.7837,57.696263 1267.5814,59.524347 L 1202.1375,59.524347"
         style="fill:#211d1e;fill-rule:nonzero;stroke:none"
         id="path21009" />
      <path
         d="M 1388.4822,-47.613389 C 1385.8899,-43.245494 1379.2968,-38.83258 1372.3666,-36.892159 C 1367.0846,-35.386219 1361.5554,-35.386219 1357.5621,-38.248235 C 1361.5554,-39.956429 1366.6801,-43.672542 1373.9474,-46.032579 C 1378.1056,-47.238793 1382.7133,-47.890635 1388.4822,-47.613389 z M 1384.6837,-84.474795 C 1381.2448,-84.744487 1378.5401,-86.662489 1378.3678,-88.707814 C 1378.1655,-91.112809 1380.8102,-93.442873 1384.4964,-93.91488 C 1383.2152,-93.270531 1382.2562,-91.42746 1382.2562,-89.239766 C 1382.2562,-86.932182 1383.2902,-85.029166 1384.6837,-84.474795 z M 1386.3469,-93.989811 C 1389.7558,-93.79499 1392.4381,-91.80961 1392.6478,-89.479546 C 1392.8427,-87.194441 1390.1155,-84.766967 1386.3469,-84.474795 C 1387.748,-85.029166 1388.7744,-86.947168 1388.7744,-89.239766 C 1388.7744,-91.532364 1387.748,-93.427886 1386.3469,-93.989811 z M 1539.4864,-41.91939 C 1518.2537,-34.419725 1505.8093,-29.752105 1488.7946,-15.224843 C 1486.9215,-13.569041 1484.2918,-6.758685 1484.9436,2.306804 C 1484.9436,2.306804 1485.6704,9.072201 1485.7977,11.282375 L 1485.6704,11.244909 C 1486.7642,26.970952 1477.5264,45.536471 1451.9781,67.053923 C 1448.2471,71.594161 1442.5156,97.419623 1438.8144,101.13573 C 1438.5897,101.35297 1438.3799,101.55529 1438.1776,101.72763 C 1437.2486,102.3944 1436.6417,102.61919 1435.4055,102.22955 C 1435.2932,102.16217 1435.1808,102.09473 1435.0459,102.01231 C 1433.4501,100.88846 1434.8961,88.466533 1434.2667,84.638022 C 1434.2667,84.638022 1431.18,85.754323 1428.9173,85.244906 C 1427.1192,84.855263 1427.6737,81.993307 1427.6062,80.307532 C 1427.6062,80.307532 1405.6093,99.150293 1400.7918,101.19568 C 1400.095,101.44289 1399.698,101.26312 1399.5631,101.02334 C 1399.3234,100.76863 1399.0012,100.36406 1399.0761,99.435033 C 1399.211,97.517033 1408.7934,82.607624 1411.1235,78.704242 C 1413.4311,74.785815 1421.3652,63.315391 1425.7557,52.938724 C 1427.8085,48.016397 1429.8988,44.540064 1431.1875,42.32983 C 1385.4928,80.240154 1398.9038,17.7556 1379.7014,8.158159 C 1363.4135,0.0067120074 1331.9015,29.390933 1315.0142,45.843689 C 1302.6671,26.588862 1295.4746,3.715332 1295.4746,-20.806506 C 1295.4746,-89.149849 1351.0664,-144.74162 1419.3873,-144.74162 C 1452.2029,-144.74162 1482.0517,-131.89258 1504.2284,-111.00449 C 1506.6109,-108.71189 1513.661,-101.90897 1517.452,-96.207478 C 1521.4754,-90.131329 1523.1086,-82.077293 1518.2313,-75.236964 C 1512.5672,-67.272786 1502.4902,-66.830751 1494.2713,-68.194321 C 1490.6377,-69.10087 1487.5659,-70.494412 1487.1688,-71.490878 C 1485.7903,-74.952225 1492.0762,-73.753504 1491.8439,-74.77245 C 1491.1546,-77.709337 1487.1688,-78.398645 1483.8872,-77.709337 C 1481.6396,-77.23733 1478.89,-76.645493 1476.4625,-76.510616 C 1473.3458,-76.338274 1465.9136,-76.578054 1465.3891,-79.440071 C 1464.5575,-84.130111 1471.5102,-81.530354 1471.233,-83.403397 C 1470.9333,-85.478694 1468.843,-87.082044 1465.2168,-87.201934 C 1460.212,-87.374216 1457.9419,-86.033126 1452.9072,-85.853351 C 1448.1122,-85.695995 1443.2573,-87.688928 1443.7593,-90.191274 C 1444.2537,-93.697579 1449.9628,-91.277658 1449.7755,-92.948386 C 1449.5133,-94.941319 1447.0183,-96.701965 1443.2573,-96.701965 C 1435.2107,-96.701965 1432.566,-95.450792 1426.8345,-98.088014 C 1425.4409,-98.889659 1424.3396,-99.519022 1423.6503,-99.908605 C 1423.6503,-99.908605 1431.0001,-112.66773 1421.605,-124.2581 C 1420.9232,-125.11969 1419.9717,-126.28844 1418.5033,-127.50221 C 1417.6117,-128.13151 1416.8999,-128.35631 1417.237,-127.06018 C 1417.4843,-125.79396 1417.4843,-125.34443 1417.4843,-124.40041 L 1417.5068,-124.40791 C 1417.342,-112.20321 1406.5308,-101.55685 1390.7148,-104.95082 C 1376.2625,-107.9027 1367.4218,-101.33212 1364.9194,-91.30763 C 1355.0597,-91.292644 1346.7584,-99.166845 1333.9693,-98.267789 C 1331.0549,-93.974825 1331.377,-87.456641 1331.7516,-86.707448 C 1319.2472,-82.916403 1313.5008,-63.481741 1335.9248,-61.78104 C 1335.7674,-57.59292 1338.0975,-51.554236 1343.1247,-50.273091 C 1346.0092,-49.344063 1345.4098,-50.670167 1344.4883,-51.80151 C 1341.1918,-55.277843 1343.3045,-64.62807 1352.2052,-63.2645 C 1359.4801,-62.155637 1359.6674,-58.147352 1367.4817,-56.956124 C 1370.0815,-56.559048 1372.464,-56.686371 1374.2396,-57.33072 L 1374.2396,-57.323227 C 1374.2396,-57.323227 1374.2546,-57.33072 1374.2546,-57.338214 C 1374.3145,-57.360693 1374.4045,-57.3532 1374.4794,-57.390665 L 1374.4794,-57.420638 C 1378.4427,-58.791701 1381.2598,-61.03934 1385.2156,-60.43995 C 1389.8083,-59.743209 1390.3253,-56.191885 1389.7558,-52.805469 C 1383.5524,-53.749484 1378.2929,-53.809429 1373.7901,-53.269983 C 1360.2593,-51.868948 1352.5873,-45.60547 1340.4425,-47.47102 C 1333.6996,-48.497459 1330.448,-52.206079 1329.6464,-54.071628 C 1329.1144,-55.884726 1327.8483,-54.843301 1327.7583,-54.371294 C 1326.3573,-51.883934 1325.3309,-45.950154 1328.1329,-41.971782 C 1330.6353,-38.383052 1335.5127,-36.899652 1338.5995,-36.352713 C 1342.4654,-35.663405 1352.0479,-37.716283 1353.0144,-37.776228 C 1352.9844,-37.536448 1351.9055,-32.681559 1358.1315,-29.654694 C 1352.2352,-24.110497 1356.5956,-18.176717 1365.5038,-16.873092 C 1370.3812,-16.161365 1376.2775,-20.611685 1380.4656,-24.095511 C 1392.2358,-33.932732 1399.2934,-37.274248 1406.0813,-34.846774 C 1412.989,-32.351861 1421.9796,-26.208334 1440.8448,-3.222407 C 1440.8448,-3.222407 1445.2052,2.666414 1447.0783,3.033517 C 1448.5243,3.32575 1449.6331,2.808784 1450.3374,2.029558 C 1450.3674,2.007079 1450.3898,1.977166 1450.4123,1.954687 C 1450.8244,1.467693 1451.0941,0.90576801 1451.2065,0.35883001 L 1451.2289,0.36632301 C 1451.2364,0.34384301 1451.2439,0.32136401 1451.2514,0.29888501 C 1453.4616,-10.392374 1459.4778,-16.663344 1465.4191,-19.270594 C 1467.3371,-20.237088 1469.2476,-20.851465 1471.0082,-21.158623 C 1478.5528,-22.484727 1484.7114,-20.16965 1486.929,-21.076199 C 1488.7047,-21.810406 1512.5672,-38.825086 1539.0369,-43.590118 C 1539.2842,-43.627584 1539.7037,-43.665049 1540.0109,-43.5002 C 1540.1608,-43.350338 1540.5803,-42.803459 1540.0709,-42.241534 C 1539.9285,-42.144124 1539.7487,-42.01674 1539.4864,-41.91939 z M 1419.3873,-148.54766 C 1348.9686,-148.54766 1291.6612,-91.240192 1291.6612,-20.813999 C 1291.6612,49.619687 1348.9686,106.90467 1419.3873,106.90467 C 1489.821,106.90467 1547.1285,49.619687 1547.1285,-20.813999 C 1547.1285,-91.240192 1489.821,-148.54766 1419.3873,-148.54766 z M 1471.4503,-14.175925 C 1468.9928,-12.75241 1468.0038,-9.8380019 1469.2701,-7.672727 C 1470.5212,-5.5449777 1473.5405,-4.9530804 1475.9905,-6.3990747 C 1478.4554,-7.8375759 1479.4294,-10.76703 1478.1632,-12.902273 C 1476.9195,-15.059994 1473.8927,-15.636905 1471.4503,-14.175925"
         style="fill:#da2c24;fill-rule:nonzero;stroke:none"
         id="path21013" />
    </g>
  </g>
</svg>
