<?xml version="1.0" encoding="UTF-8"?>
<svg id="Layer_1" data-name="Layer 1" xmlns="http://www.w3.org/2000/svg" viewBox="0 0 2000 2000">
  <defs>
    <style>
      .cls-1 {
        fill: #fff;
      }

      .cls-2 {
        fill: #6f3b96;
      }

      .cls-3 {
        fill: none;
      }
    </style>
  </defs>
  <g>
    <path class="cls-1" d="m951.21,724.8c-13.63-12.61-20.44-28.26-20.44-46.94s6.81-34.31,20.44-46.93c13.63-12.61,31.28-18.93,52.99-18.93s39.36,6.06,52.99,18.17c13.63,12.11,20.44,27.25,20.44,45.42,0,19.68-6.81,35.96-20.44,48.83-13.63,12.87-31.3,19.31-52.99,19.31s-39.36-6.3-52.99-18.93Z"/>
    <path class="cls-1" d="m951.21,1369.07c-13.63-12.61-20.44-28.26-20.44-46.94s6.81-34.31,20.44-46.93c13.63-12.61,31.28-18.93,52.99-18.93s39.36,6.06,52.99,18.17c13.63,12.11,20.44,27.25,20.44,45.42,0,19.68-6.81,35.96-20.44,48.83-13.63,12.87-31.3,19.31-52.99,19.31s-39.36-6.3-52.99-18.93Z"/>
    <rect class="cls-1" x="945.15" y="800.5" width="118.09" height="407.28"/>
  </g>
  <path class="cls-1" d="m911.97,922.78c-2.72,5-5.53,9.96-8.4,14.88v1.55c2.91-5.42,5.73-10.89,8.4-16.43Z"/>
  <g>
    <path class="cls-3" d="m656.91,1123.98c10.18.45,20.39-.27,30.48-1.78.86-.13,1.71-.31,2.57-.45-6.76.55-13.78.86-21.11.86-24.7,0-46.76-3.35-66.27-9.96,7.87,2.94,15.88,5.49,24.06,7.33,9.96,2.19,20.08,3.56,30.26,3.99Z"/>
    <path class="cls-3" d="m649.55,1029.88c11.85,8.84,28.13,13.25,48.83,13.25s38.1-4.66,53.75-14.01c15.64-9.33,26.74-23.09,33.31-41.26v-41.64h-81c-48.45,0-72.67,15.9-72.67,47.69,0,15.14,5.93,27.13,17.79,35.96Z"/>
    <path class="cls-1" d="m130.62,1003.6c16.05-13.41,33.45-25.28,52.04-35.03,11.97-6.24,24.44-11.57,37.28-15.85v-37.53c0-36.34,8.82-63.71,26.5-82.14,17.66-18.42,41.38-27.63,71.16-27.63,26.74,0,47.18,7.95,61.32,23.84,10.29,11.58,16.82,27.54,19.62,47.83h-.2v89.81c3.88,1.94,7.65,4.09,11.5,6.09l6.97,3.73c2.35,1.2,4.49,2.75,6.74,4.11l13.36,8.43c2.27,1.34,4.36,2.95,6.48,4.5l6.37,4.66c4.21,3.15,8.58,6.1,12.65,9.42l12.11,10.09c8.26,6.53,15.67,13.99,23.37,21.12l11.35,10.76,5.58,5.36c1.1,1.04,2.24,2.03,3.37,3.03v-39.45c2.46,15.98,7.97,30.68,16.65,44.05,8.48,13.08,19.68,24.13,33.48,33.24.56.33,1.11.68,1.67,1.01,8.86,5.17,18.05,9.72,27.48,13.66,1.69.67,3.39,1.3,5.09,1.94,19.51,6.6,41.57,9.96,66.27,9.96,7.33,0,14.34-.31,21.11-.86,19.27-3.22,37.98-9.74,55.5-18.67,18.35-9.28,35.42-21.1,51.26-34.39,15.87-13.26,30.52-28.02,44.19-43.63,23.66-26.92,44.58-56.32,62.68-87.4v-60.57h-.18c-1.28-57.01-18.12-99.98-50.6-128.83-33.81-30.02-82.27-45.04-145.35-45.04-32.81,0-64.72,4.29-95.76,12.87-31.04,8.59-57.66,20.7-79.87,36.34l42.39,82.51c14.63-11.61,32.42-20.82,53.37-27.63,20.94-6.81,42.26-10.22,63.97-10.22,31.28,0,54.75,6.94,70.4,20.82,15.64,13.89,23.47,33.69,23.47,59.43h-93.87c-59.56,0-103.59,10.86-132.1,32.55-23.16,17.62-36.9,40.57-41.26,68.83v-95.33c0-59.54-15.52-104.47-46.56-134.75-31.04-30.28-71.8-45.42-122.26-45.42-27.76,0-53.25,4.67-76.46,14.01-23.22,9.35-42.65,22.59-58.29,39.74v-47.69h-112.8v321.37c8.97-9.63,18.63-18.64,28.78-27.05Zm573.81-57.38h81v41.64c-6.56,18.17-17.67,31.92-33.31,41.26-15.65,9.35-33.57,14.01-53.75,14.01s-36.98-4.41-48.83-13.25c-11.87-8.82-17.79-20.82-17.79-35.96,0-31.8,24.23-47.69,72.67-47.69Z"/>
    <path class="cls-2" d="m881.06,977.16c-11.39,17.5-23.7,34.43-37.08,50.53-13.43,16.05-28.01,31.2-43.87,44.97-5.66,4.92-11.5,9.66-17.51,14.18-4.4,22.33-13.64,41.21-25.8,55.03-19.88,22.59-82.15,39.9-119.7,38.29-65.79-2.82-109.79-32.68-118.9-84.11v-26.78c-1.06-.92-2.12-1.83-3.16-2.75-1.96-1.76-3.94-3.5-5.86-5.3l-5.66-5.5c-3.79-3.7-7.53-7.26-11.27-10.82-7.54-7.07-14.8-14.47-22.87-20.92l-11.84-10c-3.98-3.29-8.25-6.2-12.36-9.32l-6.22-4.61c-2.08-1.53-4.11-3.12-6.33-4.45l-13.02-8.33c-2.2-1.34-4.28-2.88-6.57-4.06l-6.79-3.68c-2.66-1.4-5.28-2.87-7.92-4.3v106.24c0,35.32-8.07,61.94-24.23,79.86-16.15,17.91-49.18,26.87-76.94,26.87-24.72,0-43.78-7.95-57.16-23.84-13.37-15.9-20.06-40.01-20.06-72.3v-134.29c-12.13,3.89-23.98,8.75-35.43,14.41-18.6,9.06-36.18,20.28-52.51,33.12-8.22,6.35-16.07,13.19-23.62,20.33-2.21,2.08-4.38,4.2-6.54,6.34v84.56h.1c1.03,56.89,15.99,99.86,44.94,128.83,30.03,30.02,70.53,45.04,121.5,45.04,30.28,0,69.26-5.81,94.73-17.41,25.49-11.62,46.56-28.01,63.21-49.21,14.14,21.69,32.81,38.23,56.02,49.58,23.22,11.35,97.03,23.39,125.8,23.39,26.25,0,100.29-6.35,126.99-19.98,21.16-10.8,40.5-22.21,55.64-39.36v46.93h112.8v-345.15c-6.94,12.96-14.5,25.61-22.52,37.95Z"/>
    <path class="cls-1" d="m86.83,1048.23c4.72-5.68,9.78-11.05,15.01-16.24v-1.34c-5.26,5.64-10.28,11.5-15.01,17.58Z"/>
    <path class="cls-1" d="m108.38,1025.65c7.55-7.15,15.4-13.98,23.62-20.33,16.33-12.83,33.91-24.06,52.51-33.12,11.45-5.66,23.29-10.52,35.43-14.41v-5.07c-12.84,4.28-25.31,9.61-37.28,15.85-18.6,9.76-36,21.63-52.04,35.03-10.15,8.41-19.81,17.42-28.78,27.05v1.34c2.16-2.14,4.33-4.26,6.54-6.34Z"/>
    <path class="cls-1" d="m783.98,1078.86c-.38,2.72-.87,5.36-1.39,7.99,6.01-4.52,11.85-9.26,17.51-14.18,15.86-13.78,30.44-28.92,43.87-44.97,13.38-16.1,25.7-33.03,37.08-50.53,8.02-12.34,15.57-24.99,22.52-37.95v-1.55c-18.09,31.08-39.01,60.48-62.68,87.4-13.66,15.61-28.31,30.36-44.19,43.63l-12.73,10.17Z"/>
    <path class="cls-1" d="m514.83,1055.17l-5.58-5.36-11.35-10.76c-7.7-7.14-15.11-14.59-23.37-21.12l-12.11-10.09c-4.07-3.32-8.45-6.27-12.65-9.42l-6.37-4.66c-2.13-1.55-4.21-3.15-6.48-4.5l-13.36-8.43c-2.25-1.36-4.39-2.91-6.74-4.11l-6.97-3.73c-3.85-2-7.62-4.15-11.5-6.09v8.34c2.64,1.43,5.26,2.91,7.92,4.3l6.79,3.68c2.29,1.18,4.37,2.72,6.57,4.06l13.02,8.33c2.21,1.32,4.25,2.92,6.33,4.45l6.22,4.61c4.11,3.12,8.38,6.03,12.36,9.32l11.84,10c8.07,6.45,15.33,13.86,22.87,20.92,3.74,3.55,7.49,7.11,11.27,10.82l5.66,5.5c1.91,1.81,3.9,3.54,5.86,5.3,1.05.93,2.11,1.84,3.16,2.75v-11.07c-1.13-1-2.27-2-3.37-3.03Z"/>
  </g>
  <g>
    <path class="cls-3" d="m1343.09,876.02c-10.18-.45-20.39.27-30.48,1.78-.86.13-1.71.31-2.57.45,6.76-.55,13.78-.86,21.11-.86,24.7,0,46.76,3.35,66.27,9.96-7.87-2.94-15.88-5.49-24.06-7.33-9.96-2.19-20.08-3.56-30.26-3.99Z"/>
    <path class="cls-3" d="m1350.45,970.12c-11.85-8.84-28.13-13.25-48.83-13.25s-38.1,4.66-53.75,14.01c-15.64,9.33-26.74,23.09-33.31,41.26v41.64h81c48.45,0,72.67-15.9,72.67-47.69,0-15.14-5.93-27.13-17.79-35.96Z"/>
    <path class="cls-1" d="m1869.38,996.4c-16.05,13.41-33.45,25.28-52.04,35.03-11.97,6.24-24.44,11.57-37.28,15.85v37.53c0,36.34-8.82,63.71-26.5,82.14-17.66,18.42-41.38,27.63-71.16,27.63-26.74,0-47.18-7.95-61.32-23.84-10.29-11.58-16.82-27.54-19.62-47.83h.2v-89.81c-3.88-1.94-7.65-4.09-11.5-6.09l-6.97-3.73c-2.35-1.2-4.49-2.75-6.74-4.11l-13.36-8.43c-2.27-1.34-4.36-2.95-6.48-4.5l-6.37-4.66c-4.21-3.15-8.58-6.1-12.65-9.42l-12.11-10.09c-8.26-6.53-15.67-13.99-23.37-21.12l-11.35-10.76-5.58-5.36c-1.1-1.04-2.24-2.03-3.37-3.03v39.45c-2.46-15.98-7.97-30.68-16.65-44.05-8.48-13.08-19.68-24.13-33.48-33.24-.56-.33-1.11-.68-1.67-1.01-8.86-5.17-18.05-9.72-27.48-13.66-1.69-.67-3.39-1.3-5.09-1.94-19.51-6.6-41.57-9.96-66.27-9.96-7.33,0-14.34.31-21.11.86-19.27,3.22-37.98,9.74-55.5,18.67-18.35,9.28-35.42,21.1-51.26,34.39-15.87,13.26-30.52,28.02-44.19,43.63-23.66,26.92-44.58,56.32-62.68,87.4v60.57h.18c1.28,57.01,18.12,99.98,50.6,128.83,33.81,30.02,82.27,45.04,145.35,45.04,32.81,0,64.72-4.29,95.76-12.87,31.04-8.59,57.66-20.7,79.87-36.34l-42.39-82.51c-14.63,11.61-32.42,20.82-53.37,27.63-20.94,6.81-42.26,10.22-63.97,10.22-31.28,0-54.75-6.94-70.4-20.82-15.64-13.89-23.47-33.69-23.47-59.43h93.87c59.56,0,103.59-10.86,132.1-32.55,23.16-17.62,36.9-40.57,41.26-68.83v95.33c0,59.54,15.52,104.47,46.56,134.75,31.04,30.28,71.8,45.42,122.26,45.42,27.76,0,53.25-4.67,76.46-14.01,23.22-9.35,42.65-22.59,58.29-39.74v47.69h112.8v-321.37c-8.97,9.63-18.63,18.64-28.78,27.05Zm-573.81,57.38h-81v-41.64c6.56-18.17,17.67-31.92,33.31-41.26,15.65-9.35,33.57-14.01,53.75-14.01s36.98,4.41,48.83,13.25c11.87,8.82,17.79,20.82,17.79,35.96,0,31.8-24.23,47.69-72.67,47.69Z"/>
    <path class="cls-2" d="m1118.94,1022.84c11.39-17.5,23.7-34.43,37.08-50.53,13.43-16.05,28.01-31.2,43.87-44.97,5.66-4.92,11.5-9.66,17.51-14.18,4.4-22.33,13.64-41.21,25.8-55.03,19.88-22.59,82.15-39.9,119.7-38.29,65.79,2.82,109.79,32.68,118.9,84.11v26.78c1.06.92,2.12,1.83,3.16,2.75,1.96,1.76,3.94,3.5,5.86,5.3l5.66,5.5c3.79,3.7,7.53,7.26,11.27,10.82,7.54,7.07,14.8,14.47,22.87,20.92l11.84,10c3.98,3.29,8.25,6.2,12.36,9.32l6.22,4.61c2.08,1.53,4.11,3.12,6.33,4.45l13.02,8.33c2.2,1.34,4.28,2.88,6.57,4.06l6.79,3.68c2.66,1.4,5.28,2.87,7.92,4.3v-106.24c0-35.32,8.07-61.94,24.23-79.86,16.15-17.91,49.18-26.87,76.94-26.87,24.72,0,43.78,7.95,57.16,23.84,13.37,15.9,20.06,40.01,20.06,72.3v134.29c12.13-3.89,23.98-8.75,35.43-14.41,18.6-9.06,36.18-20.28,52.51-33.12,8.22-6.35,16.07-13.19,23.62-20.33,2.21-2.08,4.38-4.2,6.54-6.34v-84.56h-.1c-1.03-56.89-15.99-99.86-44.94-128.83-30.03-30.02-70.53-45.04-121.5-45.04-30.28,0-69.26,5.81-94.73,17.41-25.49,11.62-46.56,28.01-63.21,49.21-14.14-21.69-32.81-38.23-56.02-49.58-23.22-11.35-97.03-23.39-125.8-23.39-26.25,0-100.29,6.35-126.99,19.98-21.16,10.8-40.5,22.21-55.64,39.36v-46.93h-112.8v345.15c6.94-12.96,14.5-25.61,22.52-37.95Z"/>
    <path class="cls-1" d="m1913.17,951.77c-4.72,5.68-9.78,11.05-15.01,16.24v1.34c5.26-5.64,10.28-11.5,15.01-17.58Z"/>
    <path class="cls-1" d="m1891.62,974.35c-7.55,7.15-15.4,13.98-23.62,20.33-16.33,12.83-33.91,24.06-52.51,33.12-11.45,5.66-23.29,10.52-35.43,14.41v5.07c12.84-4.28,25.31-9.61,37.28-15.85,18.6-9.76,36-21.63,52.04-35.03,10.15-8.41,19.81-17.42,28.78-27.05v-1.34c-2.16,2.14-4.33,4.26-6.54,6.34Z"/>
    <path class="cls-1" d="m1216.02,921.14c.38-2.72.87-5.36,1.39-7.99-6.01,4.52-11.85,9.26-17.51,14.18-15.86,13.78-30.44,28.92-43.87,44.97-13.38,16.1-25.7,33.03-37.08,50.53-8.02,12.34-15.57,24.99-22.52,37.95v1.55c18.09-31.08,39.01-60.48,62.68-87.4,13.66-15.61,28.31-30.36,44.19-43.63l12.73-10.17Z"/>
    <path class="cls-1" d="m1485.17,944.83l5.58,5.36,11.35,10.76c7.7,7.14,15.11,14.59,23.37,21.12l12.11,10.09c4.07,3.32,8.45,6.27,12.65,9.42l6.37,4.66c2.13,1.55,4.21,3.15,6.48,4.5l13.36,8.43c2.25,1.36,4.39,2.91,6.74,4.11l6.97,3.73c3.85,2,7.62,4.15,11.5,6.09v-8.34c-2.64-1.43-5.26-2.91-7.92-4.3l-6.79-3.68c-2.29-1.18-4.37-2.72-6.57-4.06l-13.02-8.33c-2.21-1.32-4.25-2.92-6.33-4.45l-6.22-4.61c-4.11-3.12-8.38-6.03-12.36-9.32l-11.84-10c-8.07-6.45-15.33-13.86-22.87-20.92-3.74-3.55-7.49-7.11-11.27-10.82l-5.66-5.5c-1.91-1.81-3.9-3.54-5.86-5.3-1.05-.93-2.11-1.84-3.16-2.75v11.07c1.13,1,2.27,2,3.37,3.03Z"/>
  </g>
</svg>