<svg xmlns="http://www.w3.org/2000/svg" xml:space="preserve" viewBox="0 0 73.2 70">
  <path fill="#ea7600" d="M34.6 11.2a3 3 0 0 0-3-3 3 3 0 0 0-3 3 3 3 0 0 0 3 3 3 3 0 0 0 3-3z"/>
  <path fill="#fff" d="M62.8 16.2c-4.2-1.9-7.5-4.1-7.5-8.2 0-3.3 2.5-5.7 6.4-5.7 3.7 0 6.6 1.9 7.9 3.4V1.3L67.5.7c-1.1-.4-3-.7-4.6-.7-7.2 0-11.4 4.7-11.4 10.2 0 6.6 7.4 9.2 9.3 10.2 3.5 1.7 7.1 3.7 7.1 8.4 0 4.3-2.6 6.2-6.8 6.2-4.2 0-7.8-2.1-9.4-3.8v4.1l3.1 1.2c1.4.5 3.2.8 5.2.8 7 0 11.8-4.3 11.8-10.7 0-6.9-5.3-8.8-9-10.4zM9 18.2 25.5.8h-6.3c0 .1-.4 2.4-1.3 3.6-2.6 3.3-12 12.7-13 13.7V4.5c0-2 1.3-3.7 1.3-3.7H0s1.1 1.7 1.1 3.7v28.7c0 2-1.1 3.7-1.1 3.7h6.2s-1.3-1.7-1.3-3.7V18.3l3.8 4.2 8.8 9.6 1 1.2a9.2 9.2 0 0 1 1.3 3.6h6.3l-6.6-7.2C16.3 26.5 12.3 22 9 18.2zm39.9-6.9c0-3.1-.9-6.1-3.1-8-2.2-1.9-4.7-2.5-9-2.5h-8.9l-1.7 2.1H33c2.9 0 5.9.3 7.2.9 1.3.6 2.2 1.1 2.9 2.3.7 1.2 1 2.9 1 5.1 0 3.2-.7 5.4-2.2 6.8-1.5 1.4-3.8 1.7-7.1 1.7h-5v13.4c0 2-1.1 3.7-1.1 3.7h6.1s-1.3-1.7-1.3-3.7V21.8h2.9c4.2 0 6.8-.6 9.6-2.9 2-1.5 2.9-4.5 2.9-7.6zM.4 54.4V43.8h1v10.6h-1zm12 .2-3.9-5.8-1-1.5-.9-1.4v8.5h-1V43.8h.7l3.7 5.5.4.7.5.7.5.7.4.7v-8.2h1v10.8h-.4zm8.9-2.8c0 .9-.3 1.6-.8 2-.5.5-1.2.7-2.1.7l-1.3-.2a2 2 0 0 1-.9-.5l-.2-1.2 1.1.7c.4.2.9.3 1.3.3.5 0 .9-.2 1.3-.5.3-.3.5-.7.5-1.3 0-.5-.1-1-.4-1.4-.3-.4-.7-.8-1.3-1.2-.8-.5-1.3-1-1.7-1.5-.3-.5-.5-1.1-.5-1.7l.2-.9.5-.8.8-.5 1.1-.2 1.1.2.7.3-.2.9-.7-.4-.9-.2c-.5 0-.9.2-1.2.5-.3.3-.4.7-.4 1.1 0 .4.1.8.4 1.1.2.4.6.7 1.2 1.1.8.5 1.3 1 1.7 1.6.5.6.7 1.2.7 2zm6.5-7.1v9.7h-1v-9.7H24v-.9h6.7v.9h-2.9zm9.3 2.7-.2-.8-.2-.8-.2.8-.2.7-1 3.2h2.9l-1.1-3.1zm2.2 7-.9-3H35l-.9 3h-1l3.4-10.7h.5l3.4 10.7h-1.1zm11.2.2-3.9-5.8-1-1.5-.9-1.4v8.5h-1V43.8h.7l3.7 5.5.4.7.5.7.5.7.4.7v-8.2h1v10.8h-.4zm7.3-9.9v9.7h-1v-9.7H54v-.9h6.7v.9h-2.9zM4.1 62.1a2 2 0 0 0-.5-1.4c-.3-.4-.7-.5-1.2-.5H1.2v3.9h1.3c.5 0 .9-.2 1.2-.5.3-.4.4-.9.4-1.5zm1.1 0L5 63.3l-.5.9-.8.6-1.1.2H1.2v4.9h-1V59.3h2.4l1 .2c.3.1.6.3.8.6l.6.9.2 1.1zm3.1 7.8V59.3h1V69h3.9v.9H8.3zm11.5-7.1-.2-.8-.2-.8-.2.8-.2.7-1 3.2h2.9l-1.1-3.1zm2.2 7.1-.9-3h-3.4l-.9 3h-1l3.4-10.7h.5L23 69.9h-1zm7.3-9.8v9.7h-1v-9.7h-2.8v-.9h6.7v.9h-2.9zm6.9 0V64h3.1v1h-3.1v4.9h-1V59.3h4.6v.9h-3.6zm14 4.4c0-.7-.1-1.3-.3-1.8l-.7-1.4c-.3-.4-.6-.7-1-.9-.4-.2-.8-.3-1.3-.3a3 3 0 0 0-1.3.3c-.4.2-.7.5-1 .9l-.7 1.4a5.7 5.7 0 0 0 0 3.7l.7 1.4c.3.4.6.7 1 .9.4.2.8.3 1.3.3a3 3 0 0 0 1.3-.3c.4-.2.7-.5 1-.9l.7-1.4c.2-.6.3-1.2.3-1.9zm1 0c0 .8-.1 1.6-.3 2.2a4 4 0 0 1-.9 1.7c-.4.5-.8.8-1.4 1.1-.5.3-1.1.4-1.7.4-.6 0-1.2-.1-1.7-.4-.5-.3-1-.6-1.4-1.1-.4-.5-.7-1.1-.9-1.7a7.8 7.8 0 0 1 0-4.4c.2-.7.5-1.2.9-1.7s.9-.8 1.4-1.1c.5-.3 1.1-.4 1.7-.4.6 0 1.2.1 1.7.4.5.3 1 .6 1.4 1.1.4.5.7 1 .9 1.7.2.7.3 1.4.3 2.2zm7.6-2.4a2 2 0 0 0-.5-1.4c-.3-.4-.7-.5-1.2-.5h-1.3v3.9h1.3c.5 0 .9-.2 1.2-.5.3-.4.5-.9.5-1.5zm1.2 7.8L57.1 65h-1.3v4.9h-1V59.3h2.4l1 .2c.3.1.6.3.8.6l.6.9.2 1.2c0 .7-.2 1.2-.5 1.7s-.7.8-1.2.9l3 5.1H60zm12.2 0-.3-5.3-.1-1.3V62l-.5 1.4-.5 1.3-2.1 5.4h-.4l-2.1-5.4-.5-1.3-.5-1.4v1.4l-.1 1.3-.3 5.3h-.9l.7-10.6h.7l2.3 5.9.5 1.5.5 1.5.5-1.5.6-1.5 2.3-5.9h.7l.7 10.6h-1.2z"/>
</svg>
