<svg xmlns="http://www.w3.org/2000/svg" viewBox="0 0 200 98.7">
  <path d="M52.5 96.4h-.3v.2h.1v.1h.4v-.3h-.1m.4-.4h-.4v.2h.4V96m-1-.4-.1-.1h-.1v.3h.2v.1h.1v-.4m.3-.8H52v.1l-.1.1h-.1l-.1.2v.1h.2v.2h.2v.1h.2v-.7h-.2m-.2-.4v-.1h-.4v.2c-.1 0-.1 0 0 0-.1 0 0 .1 0 .2h.4v-.2m0-.9-.1.1h-.1l-.1.2v.1h.1v.1h.4l.1-.1.1-.1v-.1l-.1-.1h-.3m-.2-.5v.3h.4v-.3l-.2-.1h-.2m3.5 3.2h-.4l-.1.1-.2.1v.4h.3v.2l-.2.1v.4h.4v.1l-.1.1h-.5v-.1H54l-.1-.1h-.1v.3h.2v.1h.1v.1h.2l.2.1.2.1v.1h.1v.1h.1l.1.1h.2v.1h.2l.1.1h.1c.1 0 .1-.1 0-.1v-.1l-.1-.1h-.2v-.2h1.6l.2-.1h.1V98H57v-.1h-.1l-.3-.1-.2-.1-.1-.2h-.1v-.1l-.2-.2h-.1l-.1-.2-.2-.1c-.1 0-.2-.1-.2 0v-.4l-.1-.2h-.1m-1.1.3v.1l-.1.1.1.1v.5h.4v-.3l.2-.1h-.1l-.2-.1v-.1l-.1-.1H54m-.5.4h.3v-.4h-.2v.1h-.2v.3m-.2 0H53c0-.1 0-.1 0 0h-.3v.2h.6V97m0-.7h-.5v.1l.1.1h.2v.1h.4v-.1h.2l-.2-.2m7.2-.7h-.1v.1h-.1v.2h.4l.2-.2h.1v-.1h.1v-.4h-.5v.1h-.1v.1h-.1l-.1.1m-.3-.3H60l-.2.1v.5h-.2v.1c-.1 0-.1 0 0 0v.1l.1.1h.4V96l.1-.1.1-.1h.2v-.5h-.2m-1-37.6v.4h.4v-.4h-.2v.1m-6.9-4.3h.2l.1-.1.1-.1-.2-.2h-.4s-.1 0 0 .2v.1h.2m-2.1-.3-.2.1h-.1l-.2.1v.2h.3l.1.1.2.2h.5v-.4h-.5l-.2-.2h-.1m2.6-1.6c0-.1 0-.2-.2-.1-.2 0-.2 0-.2.2v.3h.2l.2-.1v-.3m-5.1-1h-.5l-.2.1h-.4l-.1.2h-.1l-.2.2h.2l.5.1h.2V51h.2l.1-.2h.4v.1l.1.1.2.2h.7v.2h.7l.2.1h.1v.2c0 .2 0 .2.2.2h.5v.2c.1 0 .1 0 0 .1l-.2.1v.2h.2l.1.1.2-.1h.4l.1-.2h.1l.3.1v.1h.4v-.1l-.1-.2-.2-.1-.2-.2h-.1l-.3-.2-.4-.1h-.1l-.2-.1-.2-.1-.4-.3h-.2l-.2-.1v-.1h-.1l-.3-.2h-.1l-.2-.1h-1m2-1.3v.4l.1.1h.2a.5.5 0 0 0 0-.5l-.1-.1H50m6.8 4h-.4l-.1.1h-.1v.4h.9v-.1l-.1-.1-.1-.1m-3.2-.8-.1-.1h-.8v.2h.1l.1.2.2.1.1.2-.2.2v.2h.5c0 .2 0 .2.2.2h.1v-.4h.7l.2.1h.7v-.2h-.1L55 53l-.1-.1h-.1l-.2-.2-.2-.1H54l-.1-.2h-.2v.2h-.1M8.4 27h.2v-.1h.2v-.2h-.6v.2L8 27v.1h-.2l-.1.2.1.2h-.5v.2l.1.1h.7v-.1h.2v-.1h.2v-.2h.1v-.2h-.2v-.4m3.4-1.8h.3-.1c0-.1 0-.1 0 0l-.2.1m-.3 0h-.2l-.1.1-.1.1v.2c.3 0 .4 0 .4-.3V25m8 4.9v.4l.1.1v.1h.1v.2h.1v.1h.1v.2h.1v.1h.2v.2h.2v.1h.2v-.1l-.1-.1-.1-.2h-.1v-.2l-.2-.1v-.2s-.1 0 0 0v-.2h.1V30h-.6m-.5-1.5v.2h.1l.2.1v.6l.1.1h.1v-.1h.2v.1l.1.1h.2v-.4L20 29l-.1-.1-.1-.1v-.4h-.3l-.1-.1h-.2m-.9-.8h-.1v.5h.1l.1.1h.1V28h.1v-.1h.2v.5h.2v-.1l.1-.1h.5v-.4l-.2-.2H19v.1h-.4l-.1-.1-.2-.1M18 27v-.1h-.4l-.1.2v.2h.4l.1-.2V27m.5 0v.2-.2h-.3v.5h.1l.2.1h.2v-.2.1h.2v-.3h-.1V27h-.2M.8 30.2H.5v.2l-.4.3.6-.1.2-.3m1.3-1-.2.2h-.1l-.4.3h.7l.3-.2v-.2h-.3m1.4-.6-.1.2.3.1v.1h.4v-.3l-.2-.2-.4.1m-.2-.1.1.1.4-.2h-.5m0 .3v-.2h-.1L3 29l-.2.3v.1l.3.1.3-.4V29M1 25H.5v.5H1v-.2h.1V25m16.8-8h.5v-.2l.1-.1h.4v-.2h.1v-.2h-.6v.1l-.2.2c-.2 0-.2.1-.3.2v.1m41.5 19h-.2l-.1.1v.1h-.3l-.1.1h-.3l-.2.1v.2h-.3l-.1-.1h-.4v.1h-.1l-.1.1c-.2 0-.2 0-.3.2h-.1v.1l-.1.1v.4h.1l.1.1h.4l.1-.1h.1v-.1l.1-.1h.1l.2-.2v-.2h.1l.1.1h.4l.2-.1.1-.1.2-.1h.4l.1-.1h.1l.1-.2v-.2h-.2V36m.6-.7h-.4v.2h-.1v.2l-.1.1v.2h.5v.1h.4l.1-.1v-.1l-.2-.1h-.1v-.2l-.1-.2m-1.5-2.1H58v.2l.3.1h.2v.1h.2l.2.2h.4v-.4h-.1l-.1-.1H59l-.3-.2h-.2m-9.3-5.1-.1.1.1.2.2.2.2-.1.1-.2v-.2h-.5m-2.3-5v.1h.1v.1h.4l.2-.2V23h.3v-.2H47l-.1.2-.1.1m2.5.5v-.2l-.1-.1h-.5v.2h-.1v.2h.1v.1h.5v.1h.1l.1-.2v-.1m1-1.4H50v.3h.1v.2h.4v-.4l-.1-.2m7.2 1.6v-.1h-.5l-.1.1v.2l.1.1.1.1h.4v-.2h-.1v-.1h-.1v-.1m-2 1.2v.2h.2l.1-.1v-.1h.1v-.2h-.4v.1h-.1v.1M24 33.3l-.2-.1-.1-.2h-.1v-.1l-.2-.1h-.6l-.2-.1h-.5.1v.1l.2.2h.2v.1l.2.1v.1h.2l.1.1h.1l.1.1.1.1.2.1v.1h.1l.1.1h.4v.1h.1v.1h.1v.1h.1v.1h.4V34h-.2l-.1-.2h-.1v-.1l-.2-.1-.1-.1-.2-.2v-.1m14.3-16.5-.2.1.2.1.3.2.2.2h.2l.2-.1h1V17l-.1-.2-.1-.2-.6-.2-.1-.2h-.1c0-.1-.1-.2-.3-.1v.2l-.1.2-.2.2h-.2m-1 .2v.3h.2c.1 0 .2 0 .1-.1v-.2h-.2m-1.8-6.4v-.1h-.1l-.1-.1h-.4v.4l.2.2h.4v-.3m0-1.7h-.3v.3h.1v.1h.7-.2V9l-.2-.1-.1-.1m.9.7h-.1v.1h.4v.1h.1v-.1h-.5m-.5-.3h-.2l-.1.2.1.2h.3l.1-.1h.2v-.2h-.1l-.1-.1m1.7 0h-.1l-.3-.1v.1l.2.2h.1v-.2m.8 2.5h-.1v.4l-.2-.1h-.1V12c0-.1 0 0-.1 0h-.9v.2c.2 0 .2.1.2.2v.1l-.2-.1H37v.2l.2.1h.4l.2.3-.1.2c0 .2-.1.2-.3.2H37c-.1 0-.2-.1-.1-.2l-.3-.3h-.2v.1h-.1v.1l.1.1.2.2h.1l.2.2h.4l.2.2.4.4.2.1.2.1.1.1h.4v-.2l-.1-.2s-.1 0 0-.1h.1l.3.2h.5v-.5h.1l.1-.3v-.2l-.1-.1v-.2h-.2v.4h-.1a.8.8 0 0 1-.3-.3h-.4v-.2s.1-.1.2 0h.2v-.5l.2-.1V12H39l-.2-.1h-.2m2 0 .1.1v.1h-.4v.7h-.1v.5h.1l.1.1.1.1.1.1v.4l.1.1h.3V14h.1v-.1h.1v-.2h.1v-.1l.1-.2-.1-.1.6-.1h.1v.1h.3l.2-.2V13h.1v-.2l.2-.2v-.2h.1l.1-.1h.1V12h-.3v-.1h-.1l-.3-.1h-.5l-.1-.1h-1.1v.1m-2.2-3V9h.1-.6v-.1h-.3v-.1h-.2v-.1h-.2V9h.5v.1h.2v.1h.1v.2h.2l.1.1v.1h-.8v-.1h-.1v-.1h-.1v-.2h-.1V9h-.4.1v.1h.1-.1v.1c0 .1 0 0 0 0h-.2v.1h.1v.1h.3v.1h.1v.1h-.5v.1h-.1v.2h.3a3.3 3.3 0 0 1 .4 0s.1 0 .1 0h.8-.4v.5h.2v.4h.2v.1h.9v-.5h.2V10h-.1v-.4l.1-.2v-.2h-.1V9H39l-.1-.1v-.1h-.4m2.4 1-.2-.2h-.2v.2h.1v.1h.2m.7.6h-.1l-.1-.1h-.2l-.2-.2-.2-.1h-.5l-.2.1v.1l-.1.1v.1h-.1v.1h.2l.1.2.1.1h.1v.1h.1v.1l.2.1h.6V11h.1v-.3h.2v-.2m-.2-2h-.9v-.1h-.6v.1h-.2v.3l.3.1h.1V9l.1.1h.2v.1h1l.1-.1v-.5m-8.2 8.7c0 .1 0 .2-.2.2v.3h.2l.2-.2h.1v.1h.5v-.2l.2-.1h.3v-.1h.1V17H34v.1h-.6v.1m-5.7-7.7-.4.2H27v.1l-.1.1v.1h.8v-.1l.1-.1.1-.2h.1v-.1l-.2.1m7.6 2.4h-1v.1l-.2.1v.2h.4v.2h.1l.1.2h.1c0 .1.1.2.2.1l.2-.1.2-.1V12h-.1m-6.1.7-.3.2v.1h-.3l-.2.2H28v.2l-.2.2h-.2v.1h-.1c-.1.1-.2.3-.1.4v.2h.4v.2h1.4v.1H29a2 2 0 0 1-.4 0v.1h-.8v.4h.1v.2h2.8l.2.1.2.1.2.1.1.2h-3v.2l.1.2.2.1.1.2.1.1h.1v.1h1.4v.4l.1.2.2.2H32l.2-.1.5-.2h.6l.2-.1h.1l.3-.3h.1l.1-.1h.1l.2-.1.1.1v.1h.1v.1l.1.1h.6v.1h.1v.1h1V17h.6v-.2l-.2-.1v-.1l-.1-.1-.2.1h-.2v-.3h.1l.1-.2h.5l.3.1h.2V16h-.2v-.1l-.3-.2-.2-.1h-.1l-.3-.1H36l-.2-.2-.2-.3h-.1v-1.1h-.2l-.2-.2c-.1 0 0 0 0 0v-.2H35v-.2l-.1-.1-.3-.4-.1-.2v-.1h-.2v-.1H34l-.1.1v.2h-.5v.2a.8.8 0 0 0 0 .3v.1l.2.2v.3l.2.1v.1l.1.2h-.7v-.7c-.2 0-.2-.1-.2-.2v-.1h-.2l-.2-.1h-.1V13H32v.1h.4l.1.3h-.6s-.1 0 0 0v.1l-.1.1h-.4v-.2h.1V13h-.1c0 .1 0 .1 0 0H31l-.3-.1h-.4v.5h-.6s-.1 0 0 0l.1-.2h.1v-.3l-.1-.2h-.7v.1m0-.4-.2-.1-.2-.2-.2-.1v-.1l-.3-.1-.2-.1h-.6l-.1.1-.2.1-.2-.1-.1-.1a.7.7 0 0 0-.5-.1l-.1-.1h-.4l-.1-.1h-.9l-.4.2H24v.1h.1l.1.2.1.1v.2l.1.2v.1l-.3.1v.1H24l-.1.1v.5l-.3.2h-.1v.1l-.1.2v.4h.4l.2.2h.1l.2.2v.2h.5v.1h.2l.1.1h.2l.1-.2v-.1h1v-.4l.1-.4h.1l.1-.1.3-.1.1-.1.1-.1.1-.1.2-.1h.2l.2-.1.1-.1h.2l.1-.1.1-.2h.6l.1-.2v-.1m1.1-3.8v-.1h-.4v.2h.1V9h.4v-.5m2.8 0-.2-.1h-.2l-.1.1v.2l-.1.1V9h-.1l-.1.3h.4v.4h-.2l-.1.2h.3v.2h-.1l-.3.1h-.7l-.1-.1-.2-.1h-.1v-.1H31v-.2l-.2-.2H30V9h-.7v.3h.3l-.3.1a3 3 0 0 0-.3 0h-.2l.1.3h.6-.6l-.2.1v.2h.1l.2-.1.4.1v.2h-1v.4h.1l.3-.2h.2v.1h.9v-.1h.1v-.1h.2s.1 0 0 .1h.1v.2l.3-.1v-.1h.4l.4-.1a1.6 1.6 0 0 0 .2 0l.1.2h-.8l-.2.2v.1h-.2c-.2 0-.4 0-.4.2H30v.1h.1v.1h1.5l.2-.1h.2l.2-.1.1-.1h.2l.2-.1h.8l.2-.1h.9l.1-.1v-.4h.1v-.6h-.1s-.1-.1-.1 0h-.4s-.1 0 0 .1l-.1.1h-.2l-.3-.2h-.1l-.2-.1h-.1v-.1L33 9v-.5m-3.2-1.4h-.4v.2h.1l.1.1v.2h.4v-.2l-.1-.1v-.2h-.1m1.3-.5a3.6 3.6 0 0 0-.5 0V7h.8v.3H31v.1h-.4v.1h-.2v.1h-.1v.2l.2.1.2.2h.1l.1.1h.7V8h.3v-.1h.1v-.6h.6v-.1l-.1-.1-.2-.1h-.1v-.2h.1c0-.1.1-.1.2 0l.2-.1v-.1h-.2v-.1h-.1v-.1h-.1v-.1h-.1l-.1-.1h-.6v.2h-.1l-.2.1v.1H31M27.4 8h-.5l-.2.2-.2.2-.2.2h-.1c-.2.1-.3.3-.3.4h-.5v.1l-.2.1-.1.2c-.1 0-.1 0 0 0v.4h.2l.1-.1.1-.2h.3v.1h.2l.1-.1h.4v.1h.1l.3.1c.1 0 .2 0 .1-.2v-.1h.2l.2-.1V9c-.1-.1 0-.2 0-.2h.2l.1-.1h.3v.4h.1l.4.1V9h.1l.5-.1v-.2l-.1-.2v-.2l.1-.2-.3-.2h-.3v.2h-1m12.8-.6h-.2v.1l-.1.1V8h1.5l.2-.1v-.2h-1.2l-.1-.1m-.6-1h-.1l-.1-.1H39v.3h-.2v.1h.1V7h.5v.1h.3v.1h-.2v.1h-.1v.1h.4v.1h.5l.3-.1.1-.2h-.2V7h.2c.1-.1.1-.2 0-.2v-.1H40l-.1-.2m-3 1h-.3c-.1.1-.1.1 0 .2v.1h.7v-.2H37v-.1h-.2m-2.3.1v.2l.1.3v.1h.1v.1h.1v.2h.5V8H35l-.1-.2-.1-.1h-.1m1-2h-.2v.1h-.7v.5h.2l.2-.1v.2h.2v-.2h.2v.4h.4v.1l-.2.1h-.5v.1l.1.1h.9l-.1.1v.2h.6l.1-.1h.6v.2l.2.1v.1h.1v.2h.6v-.1h.1V7l-.1-.1-.2-.2-.1-.1v-.2l-.2-.1h-.6l-.1-.1L37 6h-.2l-.1.1h-.4V6h.1v-.4h-.7m2.3-1v.1h-.1l-.2.1V5h.7l.1.1h.2v-.3h-.1l-.1-.1-.1-.1h-.1M52 18h-.2l.3.4h.4v-.2l-.1-.1h-.2v-.2h-.1s-.1 0 0 0H52m-1.6.5v.2l.1.1h.5v.1l.1.1h.2v-.1h.1v-.1h.2l.2-.1V18l-.2-.1h-.8v.1h-.1v.2l-.2.2m-.4-1.8v-.1h-.4v.3h-.3v.1l-.1.2v.1h.4l.1-.1V17h.1v-.2h.1l.1-.1c0-.1 0 0 0 0m-4.4 3.5v.1h-.2v.2h-.1v.4h.1v.8l-.1.3h-.2v.1H45v.2h.7v.3l.1.2h.2v-.1h.2v-.1l.1-.1.2-.1h.1v-.1h.1V22h.1l.1-.1h.6l.1.1v.1h.1v.1h.5v.1h.5V22l-.2-.1H48v-.6h-.3a1 1 0 0 0-.2-.1l-.2-.1-.3-.1v-.2.1h-.2v-.1h-.2v-.1H46v-.1l.1-.1h.1v-.1h.1v-.1l-.1-.2h-.5v.1m3.1-7v.4h-.1v.1h-.1v.3h.4v-.1h.1v-.1h.7v-.2l-.1-.1h-.5v-.2l-.1-.1H49m-.7-.7-.1-.1h-.9c-.2 0-.2.1-.2.2v.2h-.2v-.1h-.4v.3h.1v.1h-.2v.1h.1v.1h-.1l-.1.4v.1h.1v.1h.1v.1l.1.2h-.1l-.1-.1h-.1l-.1-.1H46v.2h-.1v.1l.1.1h.4v.1h.1l-.1.2h-.1v.2h.1v.1l.1.1v.2H46v-.1l-.1-.1V15h.1l.1-.1v-.4.2h-.2v-.1h-.1v-.2h-.1l-.1-.1h-.1v-.1h-.1V14l-.1-.2v-.1h.2v-.2h-.1v-.1l-.2-.1v-.2h.1l.1-.1h.1l.2-.2.1-.1.1-.1h.1l.1-.1v-.2h-.2v-.1H45v.1h-.3c-.2 0-.2.1-.3.2l-.1.1-.2.2-.2.2h-.1v.1h-.1v.1l-.1.1v.1l-.2.3v.8a5.5 5.5 0 0 0 0 .3v.1h.9a4.6 4.6 0 0 1 .5.1h.1l.1.1h.1v.2h-1c0-.1-.1-.1-.2 0h-.2v.1h.1v.1h.2v.1l.1.1h.1l.2.2h.5v-.1h.3v.1l.1.1.1.1h1.2v.4H46v.3l.1.2h.1l.2.2v.2H46l-.2.2-.1.3v.2h-.1l-.1.1h-.2l-.1-.1h-.1v.2h.1l.2.2v.2l-.2.1-.1.1h-.5v-.1a1 1 0 0 1-.4-.4l-.1-.3.1-.1h.2v-.5l-.2-.1V17h-.7v.4c-.1 0-.1 0 0 .2v.1H43a1 1 0 0 0-.2-.3v-.2l.1-.1V17l-.2-.3v-.1h-.3l-.2-.1v-.2l.1-.2v-.3l-.1-.2-.2-.1-.1-.2h-.1V15l-.2-.1v-.1l-.2-.1v-.1H41l-.2-.1-.1-.1h-.3v.4h-.6v.1l-.1.2v.3l.2.2h.1l-.2.2v.3l.1.2h.1l.2.2h.4v.2h.6v.3c-.1 0-.1.2 0 .2l.2.1v.7h-.2l-.3.1-.1.1h-.4v.1l-.1.1v.2h.1v.1l.1.2c0 .1 0 .2-.2.2h-.2L40 19h-.1v-.4l.1-.1v-.2l-.2-.1h-.2l-.1-.2h-.7l-.1.1v.1l.2.1h.3v.1h.1v.2h-.4v-.1h-2.7l-.3-.1-.2-.1-.6-.1h-.2v-.3l-.1-.1h-.2c-.2 0-.2.1-.3.2l-.1.1H34v.1h-.5v.1h-.2v.4l.3.1h.1v.2h-.2v.3h.2v.2h-.5V19l-.3-.2h-.2l-.4-.2-.1-.1v-.1H32l-.1.1-.3.1h-2.4v-.4h.4v-.4h.4v-.1l-.2-.1v-.1h-.1l-.2-.2v-.1H29l-.2.1h-.6l-.5-.1-.3-.1H27l-.2-.1h-.2l-.2-.1c0-.1 0-.2-.2-.3h-.9c0-.1-.2-.1-.2 0h-.3v.2l-.2.2h-.3v-.1l-.1-.1v-.1h.1c.2 0 .2 0 .1-.2h-.2V16h-.5v.4h-.2v.5h-.1l-.1-.1-.1-.1-.1-.1a1.2 1.2 0 0 1-.3-.3V16h-.2v-.1l-.2-.2-.2-.1H22v.2c0 .1 0 .2.2.2l-.3.2v.2l-.2.2H21v.1h-.2v.2h-.2v.1h-.8l-.2.1-.1.2-.1.2.1.2H19l-.2-.2.1-.1h.1v-.2h.1l.1-.1.4-.1h.1l.1-.1h.2c.1 0 .2 0 .2-.2h.2v-.1h.3v-.4h.4l-.1-.1h-.8v.1H20l-.3.1h-.2l-.2.2-.2.2H19l-.1.1h-.4l-.1.3v.1l-.1.2H17l-.4-.2a2 2 0 0 1-.4-.1V17l-.3-.1h-.1v-.1h-.6l-.6-.1h-.2c0-.1 0-.1 0 0l-.3-.1-.1-.1-.2-.1h-2.1v-.1a.5.5 0 0 0-.4-.2h-1.2l-.2-.1h-1l-.3-.2h-.1l-.3-.3h-.4v-.1H7v-.1l-.1-.1h-.3v.4h-.4v-.1h.1V15h-.5c-.2 0-.3.1-.3.2-.1 0-.2.1-.1.2h-.3l-1 .1H4v.5l-.1-.1h-.3l-.1.3-.6-.1c-.3.1-.5.3-.6.6 0 .2 0 .4-.2.6l-.4.2H.8l-.2.3c-.2 0-.2.2.2.4l.4.2.7.5.1.3h1.2v.3h-.5c0 .1 0 .3.3.3l.3-.1c.5-.3.7-.2.7.1l-.5.2-.4.3-1.2-.1V20c.1 0 .2-.1 0-.2v-.1l-.6.1-.4.1v.3H.4l-.1.2c-.5 0-.7.1-.5.4h.5c.2 0 .3 0 .3.2l-.3.2c0 .1 0 .2.4.3l.5.1.3-.1h.9l.1.3h.1l.3-.3.4-.1v-.2h.3l.1.3-.3.1v.3l.3.2v.3l-.3.1v.1h-.6l-.4.4-.7-.2-.3.3v.3h-.3L1 24l-.3.3c0 .2.1.3.4.4l.3-.6-.1.6c0 .2.2.3.3.3l.3-.2c.2 0 .3.1.2.3h-.7c-.2 0-.2 0-.2.2l.3.1c0 .2.2.4.5.5.1 0 .2 0 .2-.2h.4l.1-.2v-.2l.1-.2h.3l-.3.2v.2l.4.4c0 .1-.1.2 0 .4h-.3c0 .1 0 .2.2.2l-.2.4h.7v-.4H4l.1.2.2-.1c0 .2.1.3.3.4.1 0 .2-.1.1-.2v-.2l.2-.3.2.1-.1.1v.2h.2l.1-.1h.3l-.1.3v.3l-.2.3v.2L5 28l-1 .7-.1.1v.1l.2.2.6-.2h.1l.2-.1v-.3l.1-.1h.2v-.1h.2l.1-.1.3-.1v-.2l.3-.2h.2v-.1l.2-.1.1-.2.2-.1.1-.1h.1l.2-.1h.1v-.1l.1-.2h.1l.1-.1v-.2h-.1l-.2-.1v-.5h.4l.2-.2v-.3s0-.1 0 0h.1v-.1h.4V25l.2-.2v-.2H9l.1-.1h.1v-.1h.7l-.4.2h-.2l-.1.1H9v.5h-.1v.1h-.1l-.2.2v.1H9c0 .1 0 .2-.2.2h-.1v.2h.6l.1-.2.2-.2h.3l.1-.1.2-.2h.5v-.2l-.2-.3h.1l.1-.2.2-.1h.3l.1.1h.4v.1l.2.1c0 .1 0 .1 0 0l.2.1h.1l.2.1v-.2h.1l.2.1v.3h.1l.1.2h1.5c.2 0 .3 0 .4.2h.2l.1.1h.2v-.1h.1v-.1h.2v.4h.2l.5.4.3.2.1.2h.4v.1h.3v-.2h-.1v-.1h.3l.2.2h.2v-.5h.1l.1.2.2.2v.4h.4v-.2h.1c0-.1 0-.1 0 0v.4l.1.1h.1l.1.1v.4l.1.1.2.2.1.1.2.2h.1l.2.2h.1v.4l.2.2.2.1h.1l.1.2h.3v-.1h.2v.2h-.4v.1l-.1.2v.1l.2.1v.2h-.4c0 .1 0 .2.2.2v.1h.1v.4l.3.1h.1v-.3h.5v.4h-.1v.1s0 .1 0 0h.2l.1-.1h.2v.4l.2.1h.1l.2-.2h.1v.2l-.2.1-.2.1c-.1.1-.1.2 0 .2h.6v.2h-.5v.4H22v.1h.2v.1h.5l.2-.1v-.1h.4v.1h.2l.1-.1v.3h.2v-.1h.1v-.2h.2a3.1 3.1 0 0 1 .1.3l.2.1v.1l-.1.2v.2h.2s.1 0 0-.1l.1-.1.1.2.1.2h.2v-.1h.2v.2h.1l.1.3.1.3v.8h-.2l-.1-.1H25l.1-.1v-.4l-.3-.1h-.4l-.2-.1v-.2h-.1v.7l.2.2v.6h.1l.2.2h.2-.2l-.1.1-.1.2V38h-.2v.9l.2.1a.4.4 0 0 1 0 .4l-.1.3v.5h.1v.1h.1v.5l.1.3h.1v.1l.2.1.1.1.2.1v.1h.1v.3l.1.2v.1h.1l.1.2h.2v.5l.3.2v.1l.1.2.1.1.1.2v.2h.1l.1.1h.3l.2.2h.3v.1h.2l.2.1h.1l.1.1v.2h.1v.3h.1l.1.2.3.3.1.1.1.4v.2l.1.1.2.2v.1l.1.1v.1c.1.1.1.2 0 .2h.1v.1h.1l.1.1v.1h.2l.1.1h.1l.1.3.1.2v.1h-.2l-.2.1v.2h.2l.2.2h.1l.1.1.2.1h.3l.2.2.1.2h.1c0 .2.1.2.2.3v.3h-.1v.3h.2v.1h.1l.3.3.1.1.1.2h.1v.1h.1v.1l.2.1h.2v-.7l-.1-.2h-.4L32 50v-.6l-.2-.1-.1-.1V49l-.2-.2c0-.2-.2-.3-.3-.3v-.2H31l-.2-.2V48l-.1-.2h-.1v-.4l-.4-.3a4.5 4.5 0 0 1-.5-.5h-.1v-1h.4c0 .2.2.2.2.2h.5v.2l.2.1v.6l.2.2v.4h.2l.4.3.4.3.2.2h.1l.2.2v.2h.1l.1.2.1.2v.4l.1.1.1.1.2.2.4.3h.1l.3.2v.2l.2.2h.1v.1h.1l.2.2.1.1.1.1.1.1v.6l.1.2h.1v.4l-.1.1v.3l.1.2.2.2h.2l.2.1.4.4.1.2h.1l.2.2h.8v.1l.4.3h.1a1.1 1.1 0 0 0 .4.3l.1.1h.1l.5.3h.3l.3.1h.9l.2-.1V55h.8l.2.2.3.2.2.2.1.2.1.1.2.1.3.3h.8l.1.1.1.1H45l.1.1v.4l.1.1.2.2.1.1h.1l.2.2v.1l.2.1c.2 0 .2.2.1.3l-.1.2v.1h.1v.1h.3l.1.1h.1l.2.1.1.1.3.3h.1v.3h.2v.1h.7l.2.2h.1v.1l.2.1v.1h.4v-.3H49v-.4h.1l.3-.3h1.3-.3v-.1l-.1-.1h-.1l-.1-.1h-.2l-.1-.1h-.4l-.2.2h-.1l-.2.1H48v-.1l-.2-.1-.2-.1-.1-.1-.1-.1-.1-.1-.2-.2V58H47v-.7l.1-.1v-.6l.1-.2v-.2l.1-.2v-.4l-.3-.3c-.2 0-.2-.1-.3-.2h-1.5L45 55h-.1l-.2.1-.2.1h-.2V55c-.2 0-.1-.1 0-.2v-.1l.1-.2V54h.1v-.2l.1-.1.2-.2v-.2h.1v-.8l.2-.2h.1l.1-.2V52l-.1-.2h-.4a1 1 0 0 1-.3 0l-.6.1h-.4v.1l-.2.1v.6l-.2.2v.2l-.2.2h-.1l-.1.1h-.2v.1h-1l-.2.1H41l-.1-.1s-.2-.1-.2 0h-.1v-.1h-.3v-.1L40 53v-.2l-.1-.1v-.1h-.1l-.2-.2v-.2l-.2-.3-.1-.3v-.1l-.2-.4v-1.3l.1-.1v-.1l.1-.1h.1v-.7l-.2-.2v-.4h.1l.1-.2h.1v-.1l.1-.1c.1-.1.2-.1.2 0l.2-.1.1-.2h.1l.2-.1v-.1h.1v-.1h.1V47h.1v-.2H42l.2.2h.2l.2-.1.1-.1c.1 0 .2 0 .3.2h.4l.1-.1h.4l.1.2h.2L44 47v-.4l-.1-.1h-.4l.2-.1h.3a2 2 0 0 1 .5 0H46v.1l.1.2h.1l.2.1h.2l.1-.1h.5l.1.2h.1v.3l.3.1v1.1h.2v.1h.1v.1l.1.2v.1l.2.2h.1v.1l.2.1v.1c.1 0 .1 0 0 .1s.1 0 .1 0v.1l.1.1h.1v-.1l.1-.1v-.4l.1-.1v-.6l-.1-.2-.1-.1-.1-.3v-.1l-.1-.1v-.3l-.2-.2V46h-.1v-.4l.1-.1.1-.1.2-.2h.1V45h.1a1.2 1.2 0 0 0 .5-.4l.1-.2v-.1h.2l.3-.1h.3V44h.1v-.2h.7v-.4h-.3l.1-.1h.5v-.1l.2-.2-.1-.1h-.3v-.4h.1c0-.2 0-.3-.2-.2h-.1l-.2-.1.2-.1v-.4h-.2l-.1-.1-.1-.1V41l.1-.2v.2h.1v.2h.3v.4h.2v.2h.5l.1-.2v-.2h-.1l-.1-.2v-.5h-.1v-.3h.2v.4h.3l.1-.2V40l.2-.1v-.3h.3l.1-.1.2-.1h.7l.1-.1V39h.3l.2.2h.3c.1 0 .2 0 .2-.2v-.2h-.5v-.1l-.1-.2v-.2l.1-.1V38l.3-.2.1-.2h.1l.2-.1h.2v-.3c0-.1 0-.1.1 0h.4l.5-.1h.2V37h.1v-.1l.2-.1.2-.1.2-.1h.1l.2-.1h.1v-.1h.1v-.1h.2V36v.2l.1.1v.1h.8v-.2h.2l.1-.1h.1V36h.1v-.2l-.2-.1h-.5l-.2-.1-.2-.2s-.1-.1-.2 0h-.4v-.1c-.1-.1 0-.2 0-.2v-.3h-.1v.1H57v-.4h.5v-.1l.1-.1h.4V34l-.3-.2h-.2l-.2-.1h-.6l-.1.1h-.2v.2c-.2 0-.2.1-.3.2l-.3.1-.1.2-.2.1h-.1v.1h-.1l-.1.2-.2.1-.1.1-.3.2h-.2v-.1h.1l.2-.2.2-.2v-.1l-.2-.1-.1-.1h-.2.9v-.4h.1l.1-.1h.1l.2-.2h.5v-.2l.2-.1v-.2l.1-.2h.2l.1-.2h.5c.3 0 .5 0 .8.2H60V33h.1a14.5 14.5 0 0 1 .7 0l.1-.2.1-.1v-.1l.1-.1h.2l.2-.1.2-.1h.5v-.1h.1l.3-.1v-.2h.1c0-.2.2-.2.3-.1v-.3h-.4s-.1 0 0-.2h.2V31l.1-.1v-.2l-.1-.2h-.5v-.1l-.2.1H62l-.2-.1V30l-.1-.1h-.2l-.1.2h-.2v.1H61l-.2.2H60v-.1h.2c0-.1.1 0 .1 0h.1v-.1h.4v-.1l.1-.1h.1l.3-.1h.4l.1-.1h.1l.1-.1v-.1h-.1v-.1l-.2-.1h-.5l-.1-.1h-.5v.1h-.1v-.2h-.2s-.1.1-.2 0v-.1h.1v-.3l-.1-.1-.1-.1h-.4v-.1l-.2-.1v-.1l-.2-.2-.1-.2h.4l.1-.2-.2-.1v-.2H59c0-.1 0-.2.2-.1h.2v-.1l-.2-.2H59l-.3-.1h-.2v-.1h.2v-.2h-.1s-.1-.1-.2 0v-.2l.1-.1V26h-.2v-.2l-.1-.2h-.1v-.1H58V25h-.3v.2h-.1v.1h-.1l-.1.2h-.1v.5h-.1l-.1.2H57v.4l-.2-.2h-.2v.1l-.1.2-.2.1h-.7v.1h-.2l-.2.1.3-.2.1-.2v-.2l-.1-.1h-.3l-.1.1h-.3l.1-.1h.1l.1-.1v-.4H55V25l.1-.2v-.4c.1 0 0 0 0 0h-.7v-.1h-.1v-.1l-.1-.1H54l-.1-.1-.2-.1-.4-.2-.1-.2-.2-.2v-.1l-.1-.1h-.2l-.4.3H52l-.1-.1h-.4l-.3-.2H51V23h-.2a.6.6 0 0 0-.5 0v.8c.1 0 .1.1 0 .2v.4l.2.3v.7l-.1.1v.1h-.1l-.2.3v.1l-.1.1v.3h.1c0 .2.2.2.3.2h.1c0 .2.1.3.2.3l.1.2.1.2.1.1h.1v1.2H51l-.4.3h-.2v.1h-.1c-.2.1-.2.2-.3.4h-.5v.1s-.1.1 0 .2v.4l.1.2h.1v.6l.2.1v.8l-.1.2v.1l-.1.2h-.3v.2h-.1l-.1-.1v-.1h-.4l-.2.1v-.1h.1V32h.1v-.2h-.1l-.1-.1a.4.4 0 0 1-.2-.2h-.2v-.2l-.1-.1-.1-.1-.1-.1h.4v.1h.2c0 .1.1.1.2 0v-.4H48l-.1-.2V30h-.2v-.2l.1-.1v-.4a.4.4 0 0 0-.4-.2h-1c-.2 0-.2.1-.3.2v-.2L46 29l-.3-.2h-.4v-.1l-.7-.4-.2-.1V28l-.3-.1h-.6l-.2-.3h-1.1l-.2.2V27l-.2-.2v-.2l-.2-.2a2 2 0 0 1-.7 0V25l.2-.2.1-.2.1-.3h.1l.1-.3.2-.1v-.1l.1-.3.1-.2.2-.1h.2V23h.2c-.1-.1-.1-.1 0-.2h.3l.2.1h.1v-.1l.1-.2v-.1l-.1-.1H43l-.1-.1h-.3l-.1-.1h-.2V22h-.1l-.1-.1-.1-.2h-.8l.1-.2h.4l.2.2h.1l.2.1.2.1v.1h.6l.2.2.3-.2c-.1 0-.2-.1-.1-.2v-.1h1.1l.1-.2h.2l.2-.2v-.2h.2v-.2l-.1-.1-.1-.1h-.4v-.1h-.3l-.2-.2H44v-.1l-.2-.1V20H43h1l.2.3h.2l.1.2h.9v-.1l.1-.1v-.1h.1v-.4h-.2v-.1l-.2-.2.2-.1h.1l.1-.1h.4l.2.1v.1h.2v.1h.4v.4h.1v.1l.2.1h.2V20H47v-.1h-.1v-.4h-.3l-.1-.1v-.1l-.2-.2V19h.2l.2.1.1.1h.1l.2.2.1.1h.4l.1-.1.2-.1h.2V19l.1-.1.1-.1v-.1l.2-.2v-.2h-.1l-.1-.1-.2-.1V18c-.2-.1-.3-.2-.3-.4v-.2h.6v-.1h-.1l-.1-.2V17h.2l.1-.1.5-.6.1.1h.1v.1h.3v-.2h-.1v-.1H49v-.1h.7v-.4h-.2v-.4h.1v-.1h.2l.1.1h.1v.2l.1.1.1.1h.4v.5l.2.2h.2l.2.1v.1h.4v.1l.1.1v.2h-.2v-.1h-.1l-.1-.1v-.1h-.5l.1.2.2.2.1.1v.1l.2.1h.4V17h.1c.1 0 0 0 0 0l.1-.1h.2v.5h.4l.1-.1h.1v.1h.1v.5h.3v.3l.1.2h.1l.1.1.1.2v.3h-.2l-.1.2H53l-.1.1v.1h.8l.2-.1.1-.1h.1V19h.2v.1l.1.1h.2v.1a.8.8 0 0 1 .4 0l.2.2v.1l-.1.2h-.8v.1H54v-.4l-.5-.1h-.3l-.1-.1h-.4v.1h-.1v.1c-.1 0-.1.1 0 .2v.4h.1v.1h.1v.1h-.2c0 .1 0 .1 0 0l-.1.1H52l-.1.2h-.6l-.2-.1-.1-.1h-.5l-.1.1v.2l-.2.2v.5h.1v.2h.5v.2h.5l.2-.1.1-.2h.1c0-.1.1-.1.1 0h.2l.1.1h.2v-.1h.1v-.2h.4v.1h.2l.1.1.1.2.2.2a6.2 6.2 0 0 0 .2.2s.1 0 .2 0l.3.1.1.1v.1h-.5v.2l.2.1h.1l.1.1.2.1v.1c0 .1 0 0 0 0h-.1v.2h.4l.1-.1h.3l.1.1h.2v.2h.2v.1h.5l.2.1h.5v.1h.4v-.4h-.2l-.1-.2-.1-.1h-.1l-.1-.2h-.2v-.1H56v-.1l-.3-.1-.1-.1-.1-.1-.1-.1V22h.4v.2h.2l.1-.1h.1v.1l.2.1h.1v.1h.1l.1.1h.2v.1h.1l.1.2.2.1.4.3h.2l-.2-.3v-.3h-.1v-.5l.1.1.1.2h.2v-.5l-.2-.1-.2-.1v-.4h-.1v-.1h-.2l-.1-.1H57V21h-.1v-.1l-.2-.1v-.1h-.1v-.1l-.1-.1h-.1v-.1l-.1-.1h-.1v-.1H56V20l-.2-.1v-.1l.1-.1v.1h.4v-.4h.5l.1.1v.1h.1v.1h.9v.1l-.1.1h-.2v.2h.2v.1h.2v.2l.1.1h.2l.1.1.1.2h.3V20h.1v.1h.5V20H59v-.3h.8l.1-.1v-.3l-.1-.2-.1-.1-.3-.1H59v-.1h-.1l-.1-.1-.1-.1h-.4l-.1-.1c-.1-.2-.2-.2-.3-.2h-.3v-.1h-.4l-.1-.1-.2-.1v-.2l-.1-.1h-.2l-.3-.1h-.1v-.1H56l-.4-.2v-.1h.1v-.1h.1V17h-.2v-.1h1.1v-.1a1 1 0 0 0-.4-.1h-.6v-.1h-.2v-.1h.3l.1-.1h.7v-.1l-.1-.1V16h-.1l-.2-.2h-.3v.1l-.1.1v.1h-.1v.1l-.1.1h-.1v.1h-.4v-.2h.2l.1-.1V16h-.1l-.2.1H55V16h.1v-.1h.5v-.2h.1v-.2l-.2-.1h-1v.1h-.1v.1h-.1v.2h-.1v.1H54v-.4h.2v-.1h.2v-.1h.1v-.2h-.4v.1l-.2.1h-.4V15h.7v-.4H54l-.1-.1h-.5v.1h-.2v.1H53v.3h-.6v-.4h-.2l-.1.1-.1-.1v-.2h.1v-.1h.5V14h-.8v.2l-.1.1h-.1v-.1h-.2V14h-.1.5c0-.1 0-.1 0 0v-.1h.2l.1-.1v-.2H52l-.1-.1h-.4v-.1h-1.1v.2h.2l.1.1h.1l.1.1v.1h-.5v.1h.2v.2H50V14l-.1-.1v-.1l-.1-.1h-.2v.2H49v.2h-.2v-.4h-.2v-.2h.2v-.1l.1-.1V13h-.2v-.5h-.1v-.1m-1 26.1v.3h-.2v-.2l.1-.1m2.7-26.3H50v.1h-.4l-.1.1h-.3v-.1h-.4v.4l.1.1h.1l.2.1v.2h.1l.1.1h.5v.1h.2l.2-.1.1-.1h.9v-.2H51v-.1l-.1-.1-.1-.1-.1-.1-.2-.1h-.4m-.8-2.2h-.8l-.1-.1-.2-.1H47v.1h-.2l-.1.1h-.4v.1H46v.1l-.1.1h-.6v-.1l-.1-.1H45l-.2-.1h-.2v.2h-.7l.1-.1v-.4h-.7v-.2l-.3-.1v-.1h.4l.2.1h.5v-.2H44v-.1h-.2v-.5h-.5V9h-.1v-.1h-.1l-.1-.1h-.7V9h-.6v.2l.1.1v.2h.5l.1.2v.1h.1v.1l.2.1v.2h-.1v.2h-.2v.2h.1v.1h.1v.2h.1v.2h.1c0 .1.1.1.2 0h.4v.2h.2l.2.1h.2v-.1h.2l.1-.1.1-.2h.2v.2h.2v.1h2.5l.1-.2h.2l.2.2h.2c.1 0 0 0 0 0h.8v.1h.5l.1-.2V11l.1-.1v-.1h-.2l-.1-.2h.2v-.5m.5-.7h-.4v.1h-.1v.2h.4v-.1h.1v-.2m2.3-3.8h-.4v.1h-.1l-.1.1V6l.1.1h.5l.1-.1v-.2h-.1m-1.5 0V6h.6v-.1h.2l.1-.1v-.1h-.9v.1m-7 2h-.3v-.1h-.2v-.1H43v.7h.2l.1-.1h.4v-.4h-.1m1-3.7h-.2v.2h.1v.1l.2.1h.3v-.2l-.1-.1-.2-.1m1.4 1.1h-.9v-.4l-.1-.1h-.6v-.1h-.2v-.4H44V4h-.5l-.1-.1h-.1l-.2-.2v-.1l-.2-.1v-.1h-.1l-.1-.1h-.1v-.1l-.2-.1V3h-1l.1.1h.2l.2.1h.2-.1v.1h-1.3v.2h.4v.1l.1.1V4l-.1.2h-.2V4h-.2l-.3-.1v.2h.2v.1h-.1l-.2.1v.1l.1.1h.6v.2h-.4l-.1-.1H40V5l.1.2.2.1h.1l.1.1v.2h.8l.1.1h.2v-.1h1c.1 0 0 0 0 0h.4v.1h.2v.1l-.1.2H43l-.2-.1h-1V6l-.1.1h-.2v.2l.1.1.1.1.2.1.2.1h.7v.1h-.1V7l.1.1h.7v-.2h.1v-.1l.2-.1.2.2h.1l.1.1h.2v-.4h.2v-.5h.4l.1.2h.2l.2-.2.2-.1h.3l.4-.1v-.1h.1l.1-.1v-.2h-.2v-.1h-.1m13-4h-.7v-.2l-.2-.1H58v.1l-.1-.1V1h-.1V.8h-.4V1H57l-.1.1h-.3v.1h-.7.1l.1-.1h.3V1h.3V.8h-.4l-.2-.1h-.9V.6h-1l.2.2h-.2V.7h-.3l-.1-.1H53l-.2.2.1.1h.2V1h.2v.1h.1-.5l-.2-.1-.2-.1-.2-.2H52V.5h-.8v.2H51V1h.2c0 .1 0 .1 0 0l.1.1.2.1h.1v.2h-.4l-.1-.1V1h-.2l-.2-.1h-1.4V1h.6v.1H49V1h-.5.1v.1h.2v.2h-1l-.1.1v.2h.2l.4.1h.1l.1.1h.4V2h.2v.1h.1l.1.1h.2l.1.2h-.3l-.2-.1-.1-.1h-.1l-.1-.1h-1.2v-.2l-.2-.1-.2-.2h-.4v-.1l-.2-.1h-.5v.4c.1 0 0 0 0 0l-.1.1V2l.1.1h.2v.3H46l-.1-.1-.1-.1h-.4v.2h-.2v-.1L45 2h-.8v.1l-.2.1v.2h-.2l-.1-.1-.1-.1h-.4l-.1.1h-.3v.1h-.2l-.1.1h-.1v.1h.3v.1h.8l.2.1h.9V3h-.4l-.3.1h-.2v.1h-.2v.1l.2.1s0 .1 0 0v.1h.7l.1.1h.6v-.1h.2l.2-.2h.2l.1-.1h.8v.1h-.1v.1h1.3l-.2.1H47v.1h-.7v.1H46v.1h-.4V4l.1.1c.1 0 0 0 0 0H47l.1-.1h.1v-.1h.8l.2-.1v.1H48V4l-.1.1h1.2l.1-.1v-.1h.2v-.1h.1v-.1h.1v-.1l.3-.2h.2v-.1l.1-.1h.3V3h.1l.2-.1V3h-.1l-.2.2h-.1l-.1.1h-.1v.1l-.2.1v.1h.6a9 9 0 0 1 .5 0l.1.1H51l-.1.1h-1.1V4h.4v.1H49l-.2.1h-.4v.1h-.7l-.2.1v.1h.1v.1h.2l.2.1.1.1h.1V5l.1.2h.7v.2h-.5l-.1.1h-.3l-.2-.2h-.1l-.2-.1V5l-.1-.1v-.1h-.2v-.1l-.1-.1H47l-.3-.1h-1.2l-.2.1v.1h1.1V5h-.7l-.1.1h.1v.1h.8l.1.2h.1v.1h.1v.2l.2.1h.2V6h.1l.2.1.1.1h.8v.2H48v.4h-.2l-.2-.2-.1-.1h-.2l-.2-.1h-.4l-.1-.1h-.4v.1H46v.1l-.2.2h-.4l-.1.1-.2.2.1.1h.5l.2.1h.4v.1h.2v-.4l.1-.1h.1V7h.1c.1 0 0 .1 0 .1v.1h-.1v.3l-.1.2h-.1v.2h1l.1-.1.2-.2v-.1h.1v.2h-.1l-.1.1v.1h-.1V8h-.2l-.2.1h-1L46 8l-.1-.1-.2-.2-.1-.2h-.1c-.1 0 0 0 0 0a1 1 0 0 0-.4 0h-.5V8h.1l.1.1h.1l.1.1h.2v.1h.1l.1.2h.1H44v.3l-.1.1V9h-.1v.2h.1v.1h.4V9h.2v.1h.1v.1h.4v.1h.5V9h.2v.2h.1v.1h.9l.1-.1v-.1h.7V9h.1l.2.1h.2V9h.4v.1h.4c0-.1 0-.1 0 0h.1v.1l-.1.1v.2h.2l.2-.1v-.1h.5v-.1h.2v-.1h.2l.2-.1.1-.1v-.1h.2v-.3h-.8v.1h-.2v-.1h.1v-.2h-1.5c0-.1-.1-.1-.1 0v-.1h.2V8c-.1-.1 0-.1 0-.1h.2V8h.4l.1.1h.4c0 .1 0 .1 0 0h.8v-.5h.2l.2-.1h.8l.1-.1v-.2H51V7h.5l.1-.1v-.1h-.4v-.1h.6l.2-.1h.1v-.2h-1v-.2h-.7v.1h-.1v.1h-.1l-.1.1H50v-.1l.1-.1.1-.1H50V6h.4v-.2l.1-.1h.6v-.2l.1-.1h.3v.1h.3l.2.1h1.2v-.4h-.5l-.2-.1h-.3V5l.1-.1h.4l.1.2h.5v.1l.2.1h.3L54 5h.4v-.2h.1v-.1h-.9l-.1-.1v-.1h.2v.1h.8v-.1l.1-.1v-.1l-.1-.1v-.1h.2v.1h.1v.1h.2l.1-.1.1-.1.1-.1h.6l.1-.1h.1l.1-.1h.1l.4-.2h.1l.1-.1h.1v-.1l.3-.1.2-.1.1-.1h.2l.1-.1h.1v-.1h-1.4v.2H56l-.1.2h-1.1.4l.2-.1h.1l.1-.1h.2v-.2h-.1l-.1-.1v-.1h.2l.1.1h.1V3h.2l.1-.1h.5v-.1h.7l.3-.1h.2l.1-.1h1v-.1h.3v-.1h.2l.2-.1.1-.1h.1v-.5h-.7m59 71.6v1l.1.1v.4c0 .2.1.3 0 .4h.1v.2h-.1l-.3.2v.2l-.2.2v.7h.1l.2.6c0 .1-.1.3 0 .4v.2l.1.1.2.1.2.1c.5.2 1 0 1.4-.5l.1-.2v-.1a4 4 0 0 1 .3-.5v-1.2h.1v-.1l.2-.4.1-.2v-.1l.2-.6V74h.1v-.1l.1-.1h.1V73l.1-.4h.4v-1.1a1 1 0 0 1-.3-.3l-.1-.3-.2-.3-.1-.2v.6h-.1l-.1.2v.1h-.5l-.2.1v.5h-.1l-.2.2h-.1l-.2.2h-.2v.1l-.2.1-.1.1h-.2v.1h-.8v.3l-.1.2m20.4-15v.7h-.1v1.5h.1l.1.1h.2v.1h.2v-.1l.1-.1.1-.1.2-.1v-.7h-.1v-.2h-.1l-.1-.2V59l-.1-.1v-.1h-.1v-.2h-.1l-.1-.2h-.1M64 60.5l-.2-.1h-.2l-.1-.1h-.4v.1H63v.1h-.2c0-.2-.1-.2-.2-.2h-.2c-.1.1-.2 0-.2 0H62l-.1-.1V60l-.1-.1v-.1h-.1v-.1h-.1v-.1h-.1v-.1h-.2v-.1h-.1l-.1-.2-.1-.1h-.1V59h-.3l-.1-.1h-.9.1v-.1h.2v-.2h.1v-.2h-.2v-.1h-.2l-.1-.1-.1-.1H59V58h-1.6l-.1-.1h-.1v-.1l-.2-.1h-1.1v-.1h-.1v-.4l-.4-.1h-.3v-.2h-.4v.2h.1v.1l-.1.1h-.3l-.1.1-.2.1v.4l.1.1h.1v.6h-.4v-.2l-.2-.1v-.4h.1l.1-.1v-.4h-.1V57h.4l.1-.2v-.2l-.1-.1h-.4v.1l-.1.1-.1.2h-.1l-.1.2s-.1.1-.2 0v.1h-.5v.1h-.1v.1h-.2v-.1H52l-.1.2h-.1v.7h-.1v.1h-.1v.1h-.1v.1l-.1.1h-.2v.2H51v.4l-.6.5a.5.5 0 0 1 .2.3v1.3h.1v.1l.1.1h-.1v.5h-.1v.1h-.1l-.1.2h-.1l-.1.1H50l-.1.1-.1.3v.1h-.1v.2h-.1l-.1.1h-.3v.1h-.1v.5H49l-.1.1v.1l-.1.1v.4h-.1v.2h-.1v.5h.1v.1h.2l.1-.1h.2v.4l-.2.1-.2.2h-.2v.1l-.1.2h-.1v.4l.1.1.1.1v.2l-.2.2v.1h.2v.1h.1v.1h.2l.1.1v.1h.2v.1h.1v.1h.1l.1.2h.1v.2l.1.1.1.2v.2h.1v.2l.1.1.1.2v.2l.1.1v.2l.1.2.1.1v.2l.2.1v.2h.1v.1l.1.1v.1l.2.2v.1l.1.1v.2l.1.2.1.1.1.2v.1l.1.1.1.1.1.2.2.2h.1v.1h.1l.3.2.2.1h.1l.1.1h.1v.1h.1l.2.1.1.1h.2l.2.2h.1l.1.1.2.1v.2h.1l.2.2.1.1h.1v2.2l.1.4-.2.1-.2.2v.5h.1V79l-.1.2v.5l-.1.1v.1l-.1.2-.1.4c0 .1-.1.2 0 .2v.7h-.1v2.3l-.1.1-.1.2-.1.2v.6h-.1v.2l-.1.1v.1h-.1v.2h-.1v.1l-.1.1-.1.1h-.1v.1h-.1v.1h-.1v.7l.1.1v.1c0 .1 0 0 0 0l.2.1v.5l-.1.2h-.1v.1h-.1v.1l-.1.1v.8l-.1.2V90h.4v-.5l.1-.2v-.4h.4v.7h-.1v.2H53v.7l.1.1v.1H53v.2h-.4l-.1-.1h-.1v.2l.1.1h.5l.1.1v.1h-.4v.8h-.2v-.4l-.1-.2v-.1h-.3v.4H52v.1h-.2l-.2.2c0 .1 0 .2.2.1h.7v.5h-.1v.2h.5v.1h.1v.1l.1.1v.2h-.4v-.2h-.3v.4c0 .1 0 0 0 0v.4l.1.1v.5h-.1v.2h-.1v.2l.1.1h.4v1h.2v-.5h.4v.1s.1 0 0 .1h.1v.5l.1.1v.2h.4l.2.1v.1h.1v.1h.3l.1-.1h.1l.2-.1h.1v-.2h.1l.2-.1h.2l.1.1v-.2h-.2.1V96l-.1-.1v-.7h-.1v-.4h.2v-.4h.2l.1.2h.2l.1-.1V94l.1-.2.1-.1h.2v-.2h.3l.1-.1h.1v-.1l.1-.1-.1-.1-.1-.2h.2v-.1h.1l.1-.1v-.4h-.6l-.1-.1h-.2l-.1-.3v-.5h.1v-.1h.1l.1-.1.1-.1V91h.6v-.3l.1-.1.1-.1v-.7h.4v-.5h.6V89h-.1c-.1-.1-.2 0-.2 0h-.5v-.5l-.1-.1h-.1v-.2l.2-.1h.6v.1h.8v-.1h.1v-.6l.1-.2v-.6h1.4l.2-.1.1-.1h.4l.1-.1h.2v-.2h.1l.1-.1V86h.1l.1-.1.2-.1v-.6h-.1L62 85l-.2-.1v-.1h.1v-.2h.1v-.3l-.1-.1h-.2l-.1-.1h-.1l-.1-.1v-.4h.2l.1.1h.5v.1h.3v.1h.1l.1.1.1.2.2-.1h.8l.2-.2v-.1h.1v-.1l.2-.2v-.2h.1l.1-.1.1-.2.1-.1c0-.2 0-.2.2-.3V82h.1v-.2h.1l.1-.2.2-.1v-.1h.1v-.1h.2l.1-.1h.1v.2h-.1v.1h-.1l-.1.2h-.1v.1l-.3.2v.2l.1-.1.1-.1h.1l.1-.1.1-.1.2-.2.1-.2v-.2l.1-.2.1-.2h.2v-.1h.1l.1-.1v-.2h.2l.1-.2V80h.1v-1.5l.1-.3h.3l.2-.2.1-.2h.1v-.1h.2v-.1h.1l.1-.2h.2l.1-.1h.4v-.1l.1-.2h.2l.1-.2.2-.1h1.2l.1-.1.2-.2h.1v-.1l.2-.2.1-.3v-.2h.1v-.1l.1-.1.2-.2.1-.1.1-.2.1-.1V74h.1l.2-.1v-.2h.1v-2.2c-.1 0 0-.1 0-.2V71h.5v-.4h.1l.1-.3.2-.2V70h.1l.1-.1.1-.1h.2v-.1l.1-.1.1-.1h.1l.1-.2.1-.2.2-.2h.1v-.1l.2-.1v-1.8h-.1v-.1l-.2-.1-.1-.1h-.2l-.4.1h-.2l-.1-.1-.1-.1-.2-.2-.1-.2H73V66l-.2-.2-.1-.1-.2-.2h-.1l-.1-.1h-.5c0-.1 0-.1 0 0h-.9v-.1l-.2-.1-.1-.1-.4-.1v.2h-.4l-.1-.1-.2-.2h-.1l-.1-.2H69l-.1-.1-.2-.1-.1-.1h-.3V64H68l-.2-.1h-.2l-.1-.1h-.1l-.1.1h-.1v.2l-.1.1v.1H67v.1l-.1.2h-.1l-.1.1h-.1l-.2.1h-.2v-.2h-.4v-.4l-.1-.2h-.2v.5h-.1l-.2.1V64l.2-.1v-.1h.1v-.1h.1v-.1l.2-.1h.1v.4h.1v.6h.7v-.1h.3v-.2h.1v-.5h-.3l-.1-.1h-.1c0-.1 0-.1 0 0v-.1H66l.1-.2h.1V63h.1v-.6H66v-.1h-.1l-.1-.2v-.8l-.1-.2-.1-.1a6.8 6.8 0 0 1-.3-.2l-.1-.1-.1-.1H65l-.1-.1h-.1l-.2-.1h-.2l-.1-.1-.1-.1m27.6-30.6h-.1v.4h.1v-.2m-2.1-.6h-.1l-.2.1v.1h.1l.1.2v.1h-1.1v.2l.1.2h.2-.1v.1h-.1c-.1.1-.2.2-.1.3h.5v.5l-.2.1-.1.2h-.3v.2l.2.1h.1l.2.1v.2h.4c.2 0 .3-.1.3-.3l.2-.1h.6l.2-.1V31c.1 0 .1 0 0-.1v-.2h.4v-.5l-.1-.1v-.2h-.1v-.1h.3v-.4h.1c.1 0 0 0 0 0v-.1H91v-.1l-.1-.2-.1-.1-.1-.1h-.2l-.2.1-.1.1h-.6m1.6-.6-.2.1v.1h-.1v.1h.3v-.3m-.4-.7v.2h.2v-.3m-.5-.6.1.3h.2v-.2h-.2V27m.2-.8h-.1a2 2 0 0 0-.4.4c0 .2.1.2.2.2h.2v-.1l.1-.1v-.4m9.8 2.3v.2h.1v.1l.2.1h.3v-.4h-.2v-.2h-.3l-.1.1m-.7.2v.2l.1.1.2.1h.1l.1-.1v-.1s-.1-.1 0-.2h-.5m-7.4-2.4L92 26h-.4l-.2.1v.1l-.1.2v.2l-.1.1H91l-.2.1v.1h.3v.1c.1 0 .2.1.1.3l-.1.2v.1h.1l.2.1v.2l-.1.1H91v.3h.7v.2l-.1.3v.2s-.1.1 0 .2v.1h.4v-.2h.5v.5h-.1v.2h.2v.1l.1.1v.5h-1v.2l.1.1h.2-.1v.1l-.1.2v.1c0 .1-.1.2-.3.2h-.1v.1l.1.2h.4l.2.1h.1l.2-.1h.4v.2l-.2.1h-1.1v.4h-.1l-.2.3v.2h.1v-.1h.5v-.1h.7v-.2l.2-.2h.4v.2-.1h.1v-.1l.2.1v.1h.4l.2-.1h1v-.1h.1V32H95l-.2-.1v-.4h.1l.2-.1v-.2h.1V31h.2v-.2l-.1-.1h-.8v-.1c-.1 0-.1 0 0-.1v-.2l-.1-.2H94V30h.2v-.3l-.2-.2h-.3a1.8 1.8 0 0 0-.2-.2v-.1l-.1-.2v-.3h-.1l-.1-.2H93l-.2-.1h-.5v-.2l.1-.1c.1 0 0 0 0 0h.1l.2-.1.1-.2.1-.1h.1c0-.2.2-.2.2-.3h.1V27h-.1l-.1-.1H93v-.1h-.5l-.2.2h-.4v-.4l.2-.1h.4v-.3m1.1-1.8h-.1v.4-.1l.1-.1v-.2m-29.4 10v.4l-.1.1h.2v.1l.1.1h.3V35l.1-.1v-.2h-.1v-.4h-.3v.1h-.2v.1m-1-2.5v-.4h-.4l-.1.1h-.1v.1l-.1.1h-.1v.1h-.1v.2l-.1.2-.1.1-.1.1v.6h-.1l-.1.2-.2.2h-.1v.1h-.1l-.1.1v.1h.2v.2h-.1v.1h-.1v.1h-.1v.2l.1.1h.4l.1-.1h.4v.1h.3v.1h.8l.2-.1h.1v.1h-.2v.1l-.2.2h.3l.2-.1.2-.1.2-.2h.1v-.1l.1-.2h.1v-.1h.2v-.4h-.4l-.1-.1h.1l.2-.1h.1v-.4H64v-.1h-.2v.2l-.1.1h-.1v-.2h-.2l-.1-.1v-.3l-.1-.1h-.4v.1h-.2v-.3l.1-.1.2-.2v-.1l.1-.1.2-.1m17.9-12-.2.1v.2h.3V20H81m-.8-5h-1l-.3.1-.1.1v.2H80v-.2l.2-.1M66 17.8h-.3v.1h.3v-.1m-1.7 1.6v.1h.4v-.3h-.2l-.1.1m0-.8v.2h.5v.1h-.1v.5h.3V19l.1-.1h.6v-.1s0-.1 0 0l-.1-.2h-.2l-.1-.1h-.9m1-.8H65v.2h.5v-.1m0-.6H65v.1h-.1v1-.5.1h.5v-.1h.2v-.3h-.1M64 15.7h-.4l.1.1.1.2c-.2 0-.2.1-.3.2h.7v.1l.1.2h.2l.1-.1h.3v-.1h.2V16h-.4l-.2-.2H64m.5-1v-.1h-.2c0-.1 0-.1 0 0h-.1v.2h.2v-.1m3-14V1h.2V.6h-.4m-2 1.1h-.1V2h.5v-.1h-.1m-.7-.4v.2h.4-.1v-.1h-.5M72 .2h-.2v.4h.4l.2.1h.2l.2-.1-.1-.1-.1-.1h-.4L72 .2m-2.9 1L69 1h-.1a1 1 0 0 0-.3 0h-.7v.1l.2.1.1.1h.1l.1.1.2.1h.1l.1.1h.5l.1-.1v-.2l-.1-.1m-1-.7v.2h.2l.1.1h.3l.2-.1-.1-.1h-.1l-.3-.2h-.3m14.5 19.2a1.3 1.3 0 0 0 0 .3v.3h-.2v-.1h-.4V20h.1v-.2l-.1-.1h-.1l-.1-.2-.2-.1h-.4l.1.1.1.1v.1h-.1l-.2.6h.5l.1.1v.2h-.7v.1h-.1v.2h.8l.1.2h.4v.4H82l-.2.1v.2h.8l.2-.1h.1l.2.2.2.1.2.1h.7V22h.5l.2-.1.1-.2h.2l.1-.1v-.1l.1-.1h.2l.4-.2h.3l.1-.1h.1V21l.1-.1v-.1h.1v-.5h-.2l-.1-.1-.2-.1v-.4l-.1-.1h-.4v-.1h-.2v-.2h-.1l-.2-.1-.1.2v.3h-.8v.4h.1v.1h-.1l-.1-.2-.1-.1v-.1H84v-.1h-.4v.3h-.2l-.1-.2v-.1h-.5m1.2-9.5-.1.1v.4c.1.1.2.1.2 0h.2v-.2h-.1l-.1-.1h-.2m-1 0-.1.1h.2m.8-1.6h-.2V9h.1v.4h.1v.2h.1v.1h.2V9h-.2v-.1m.7-1.5h-.2c0-.1 0-.1-.1 0v.2h.3v-.2m-1-1.4h-.2v.3h.2l.1-.2-.2-.1m1-.1v-.2h-.2V6h.2m.5-3.8-.2.1-.1.1-.1.2h-.2l-.1.2H84l-.1-.1h-.5v.1h-.3v-.2h-.4l-.1.1h-.1l-.1.2h-.2L82 3l-.2.2-.2.1v.1l-.2.1-.1.1h-.2v.1H81l-.2.1-.1.1v-.1h.1v-.1h.1l.1-.2h.1l.1-.1h.1l.1-.1.2-.1V3l.1-.1v-.1h.1v-.1l.1-.2v-.4l-.2-.1-.1-.1h-.8V2l-.2.2-.1.1-.1.1-.2.1h-.4l-.2.1h-.4l-.1.2-.2-.1v-.1l.2-.1h.2v-.1h.2v-.1h.2l.2-.1v-.1c.1 0 .1 0 0 0l-.2-.1h-2.6v.2h-.7l-.1.1-.2.1H76v-.1l.1-.1h.1l.3-.1.2-.2h.6l.2-.1h3.1v-.1h.4v-.1c0-.1.1-.2.2-.1h.7l.1-.2h.4v-.2L82 1h-.3l-.2-.1h-.1l-.1-.1H80V.7l.2-.1.1-.1-.1-.2H78l-.1.1h-1l-.1.1h-1.1.5V.4h.8l.2-.1h2.3V.2h.4V.1h-.1l-.2-.1h-.1l-.1-.1h-1.1v-.1c.1 0 0 0 0 0H77l-.4-.1h-2.4V0H74l-.1.1h-.2V0h-.9v.1l.1.1h.1v.1h.5v.4h-.1s-.2.1-.2 0h-.5V1h-.4V.7H72V.6h-.4l-.1-.1h-.1V.4h-.1L71 .3l-.2-.1h-.4l-.2.1v.1H70v.1h-.3v.2h1.6l.1.1h.4l.2.1V1l.2.2v.1l-.2.2-.1-.1v-.1h-.1l-.3-.2h-.2v.2H71l-.2-.2-.2-.1H70l-.2-.1h-.1l-.2-.2h-.2v.4h.1l.2.2h.5l.2.2.1.1v.1H70l-.1-.1h-.5v.9h-.1l-.3-.2h-.1l-.2-.2H68V2h-.3v-.1h-.4v-.1h-.2v-.1H67v-.2h-1.3v.1l.3.2h.1a3 3 0 0 0 .3.4h-.2v.1H66v.1h.1v.1h-.2l-.2-.1h-.3v-.1h-.1V2h-.8v.5h-.1v.2h-.1v-.9h-.1v-.1h-1.7l-.4.1h-.3l-.1.1h-.1l-.3.1.1.1h.3v.1h.2v.1h.2v.1h.1l.1.1h.1v.2h-.2l-.1-.1h-.3l-.1-.1h-.2v-.1h-.1l-.1-.2h-1.5v.2h.2v.9h-.4l-.1-.1h-.6l-.1.1v.5l-.2-.2-.1-.2H58l-.1.1-.2.1-.2.1a1 1 0 0 0-.3.3H57c-.1.2-.2.2-.4.2h-.2v.1c-.1 0 0 .2 0 .2 0 .1 0 .2.2.2h.1l.1.1h.6l.1-.1.2-.1a2 2 0 0 1 .4 0l-.2.2h-.2v.6h-.1l-.1.2h-.1l-.4.1h-1.1v.1l-.2.1-.3.2h-.7l-.5.1h-.4c0 .2-.2.2-.3.2l-.1.1v.6l.2.1h.2c.2 0 .2.1.3.2l.1.1c.2 0 .2 0 .2-.2h.3l.2.4v.1h.1l.1.1h.2v-.1h.4l.1-.1h.3l.1-.2h.1l.5-.1h.1l.1.3-.2.1h-1c-.1 0-.2.1-.1.2h.3l.2.1h-1.6l-.2.1-.1.2v.1l.1.2h.3v-.2l.2-.1v.2l.1.1h1l-.1.1h-.2l-.2.1V9l.1.3h.5l.1.1h.1v.2l.2.1h.2v-.2h-.1l.2-.1h.2v-.2c0-.1 0-.2.2-.2l.2.1v.2h.4l.1-.1h.5v.1l.1.1.1-.3h.4l.5.1.5.2h.3l.4.2.4.1h.2v.1c0 .2.1.3.2.3v.3l.2.2.1.1.4.1h.1v.1l.1.1v.1l.1.1.1.1v.1l.2.2.2.3v.4l.1.1h.1v.2c-.2.2-.1.3 0 .3h.3l.1.1v.4h-.3l-.2.1c0 .2.1.2.3.2v.1h-.1v.1h.1v.1h-.3v.2l-.1.1h.2l.1.1h.3c0 .1 0 .2.1.1h.2v-.1l.2-.1h.1v-.4H64v-.3c.2 0 .3 0 .3.2v.2l.1.1h.4v.1h-.1l-.2.2h.6c0-.1 0-.2.1-.1h.2l-.1.2h-.1v.1l-.2-.1h-.4v.3h.5c.1 0 .1.1 0 .2v.2h.4l.2.2v.1h.1v.1h-.1l-.2-.1-.2-.1h-.5l-.2-.1H64v.2h.1l.3.1h.4v.1l.1.1.1.1h.1l.4.1h.4v.5a1.5 1.5 0 0 0-.3-.3v.4l.1.3v1l.2.2.1.1.2.2v.2h-.4l-.1-.1h-1.2v-.1h-.2v.2h.1l.2.1h.9v.1h.4v.1h.1l.1.1-.1.1c0 .1 0 .1.1 0v.1h-.7l-.2.1-.1.2v.1H65v.1l-.1.1-.1.1-.2.1v.1s0 .1.1 0h.4l.2-.2v.2H65l-.1.1v.2h.2l.2-.2h.4l.1.1h-.5l-.2.2v.7h.4v.1l.1.1h.2v-.1l-.2-.3h.4v.1l.3.1h.2l.1.2-.3.1v.5H66l-.2-.1-.1.1.1.3.1.1v.1l.1.2.3.3v.2l-.2.1v.2h.5l.2.1v.4h.2l.1.2.2.2.1.1.3.2H69v.3h.1l.2.2h.3v.1l.1.1h.4v-.5h.2v-.5l.1-.2V24h.2v-.1h.1v-.4l-.1-.3v-.4h.4l.1-.2v-.1l-.2-.1h.3l.2-.1v-.1l-.1-.2.2-.1.2-.1c-.1-.2-.2-.2-.3-.2v-.2h.5c0-.2-.1-.3-.3-.3h-.1v-.2l.2-.1h.5v-.5h.6l.1-.1.2-.4.1-.3.1.1c.1.1.1.2 0 .4v.2H73h.4l.1-.1h.3l.2.1V20h.3v-.3l.7-.2h.2v-.1h.1a11.2 11.2 0 0 0 .3-.4v-.3h.1v-.1l.3-.2h.1l.2-.2v-.4l-.1-.1v-.2h.2a4.6 4.6 0 0 0 .5.5h.3v-.3h1l.1-.1h.6c.3 0 .5 0 .7-.2v-.2h.1l.3-.2h.2l.3-.1v-.1h.1l.1-.1h.2v-.1l.2-.1.2-.1c.2 0 .2-.1.3-.2h.2V16h-.1c-.1-.1-.2-.1-.2 0h-.7l-.2-.2h-.8l-.4.1h-.2v.1-.2h-.5l-.6-.4h.5V15h.5l.1-.1h.5l.2-.1h.1v-.1c-.2 0-.2-.2-.2-.3h.2l.1.1h.1l.4.1v.1l.2.1v.5h.1l.2.1h.2v-.1l.2-.2h.2v.1l.2.1h.1l.1-.4v-.3l-.2-.2-.1-.1h-.1v-.1h-.1v-.1h-.1l-.1-.1h-.1v-.2h.4l.2.1v-.3l-.2-.2-.1-.1v-.1h.4v-.4h-.5l-.3-.1H81l-.1-.2.1-.2h.2-.1v-.1h-.6l-.1.1v.1l-.2.3h-.1v-.1h-1 .1l.1-.1h-.1l-.1-.2v-.1h.1l.2.1h.2l.1.1h.3v-.2h.4v-.1l-.1-.1-.1-.1h.4l.1.1h.1l.1-.1h.3l.1.1v.1h.5v.1l.1.1h1v-.1h.2l.1-.2-.1-.2h-.5l-.1.1v.2h-.2V12H82v-.4l.1-.4h.2v.4h.3l.1-.1h.8l.2-.2v-.2h-.4v-.4h-.2v-.1h-.3l-.1.1h-.4v-.1h.2l.1-.2.1-.2h.1l.1-.1h.1v.2h.1v.1h.2l.1-.1v-.4l-.2-.1v-.1h.2v.1h.1v.1h.3v-.1h-.1v-.1h-.1v-.2h-.1v-.1h-.1v-.2h-1v-.4H82l-.2-.1v-.2h.4v.1h.4v-.2h.4v-.1h.4l.1.1v.1h.4l.2.1h.2v-.1h.1v-.6h-1.1v-.1h-.2v-.1H83v-.2h.3l.1.1h.4v-.1l-.2-.1v-.1h-.2l-.1-.1H83l-.1-.1h-.4v.2h-.1v.1h-.2v-.1l.1-.2v-.4h.1l.1-.2v-.3h.1V6h.5l.1-.1.1-.1v-.1h.4v-.2h-.1l-.1-.1V5l.2-.1h.4v-.1h.5v-.2h.1v-.1h-1.1l-.1.1h-.1v.2H83v-.2l.2-.1v-.1l.1-.2h1.4v.1h.3l.1-.1.1-.1v-.2H85l-.2-.1h-.1l-.1.1h-.3v-.1h-.5v-.1h.5l.1-.1h1.2l.1-.1a.7.7 0 0 1 .3 0h.1v-.1l.1-.1v-.1H86V3h.6l.1-.1h.6v-.1h.1v-.1h.4v-.2h-.2v-.1H87v-.1l-.2-.1h-.2l-.2-.1H86V2h-.9m-1.3.1v.1h.1v.1h.1l.1.1h.1v-.2h-.4m-.7-.4h-.4V2h.1l.1.1.1.1h.5V2h-.1l-.1-.1m21.4 25.3v-.6l-.2.1v.2l-.1.3v.2h.2v-.1m2.2-1.2h-.1l-.1.1s-.1.1 0 .2.1 0 .1 0h.3v-.1h.1V26h-.3m-1.2-1.5-.2.1v.1h.2v-.2m1.4 1.1-.2-.1h-.1v.1h.2m2.2-10.8-.1-.1v.1m1-.2h-.4v.1h.4m-7 1.6v.4h-.2v.1h-.2v.3h-.1l-.3.2h-.1.5l.2-.1h.2v.2h.4v-.3l.2-.2v-.2l-.1-.1v-.2l-.3-.1m-.1.5c.1 0 .2 0 .1.1l-.2.1v-.2m1.8-.8h-.1v.2h.1V16m.4-.2v-.1h-.5v.2h.2v-.1m1.3-.6h-.2v.3h.4v-.1l-.1-.2h-.1m.4-8.5a2 2 0 0 1-.6.1v.4l-.1.1v.2h.8v.2h.4l.1-.2h.4v-.1l.1-.1h.1v-.2h-.5V7l-.2-.2h-.4m-1.1-.4h-.1l.1.2.2.1h.1v.1h.8v-.4l-.1-.1h-.2v-.1h-.6M104.6 5h-.1l-.1.1h-.1v-.5h-.1l-.1-.1h-.4l-.3-.2V5l.1.3v.4h-.2l-.1-.2v-.2l-.1-.1-.2-.2-.2-.2h-.2l-.1.1v.4l.1.1h-.2a4.9 4.9 0 0 0-.2-.2h-.2V5h.2v-.1h.1v-.2h-.2v.1l-.3.1V5h-.4l-.2-.2h-.6l-.1.1-.1.2v.2l.1.1c0 .2.1.2.2.1l.2-.1h.2l.1.1v.3c.1.1 0 .1 0 .1h-.5l-.2.1v.2l.2.2v.1h.1v.1h.1l.2.1h.1l-.1-.2h-.1v-.1h-.1c0-.1.2-.2.3-.1h.2l.1.1h-.2v.2l.4.1h.5c.1 0 .2-.1.1-.2v-.3h.5l.2-.1V6h.2v.4h.2c.1 0 .2 0 .2-.2v-.1h.2v.2h.1v.2l-.3.1h-.1v.1h-.1l-.1.1-.6.1h-.3V7h-.1v.4h.2l.2-.2h1.1l-.3.1h-.5v.4h.4v.1h-1v.4h.1l.3.1h.1l.2.1h.1V8h.2v.5c0 .2 0 .3.3.3l.1-.2.2-.4.1-.2.2-.1.1-.2.1-.3v-.1l.1-.1V7h.1l.1-.2c0-.2.1-.2.2-.3h.1l.1-.1.1-.2h.9l-.1-.3h-.5l-.2-.3h-.3a1 1 0 0 0-.3 0v-.3l-.2-.2m.8-1-.2.1-.1.1h-.5v.2l.2.1v.2h.5l.1.3h.2v.1h.3V5h.2v-.3h.7v.1l-.1.1h-.4v.4h.2v-.1h.1l.4.1.1.1.2.1h.5l.1-.2h.6v-.2h.1l.2-.1.2-.1h.2l.2-.2h.2v-.3h-.2v-.1h-1l-.1-.1h-.1v-.1h-.3a1 1 0 0 0-.2.2h-.2v-.2l-.2-.2h-.2l-.1.2v.4h-.1v-.1l-.4-.2h-.5l-.1-.1V4h-.1l-.2-.1h-.2m15.3-.2h-.4v.1h-.1l.1.1h.4v-.1m.2.4v-.1h-.3.2-.2v.2h.2l.1-.2m-1-.5h-.4V4h.6v-.1l-.3-.1m1-.2v.2h.5v-.2h-.4m12.8 8.6v.6h.7v-.4h-.2v-.1h-.1l-.2-.1h-.2m5 .7v-.1h-.3v.3h.1l.1.1h.1l.1-.1v-.2M127 15.7c0 .2 0 .2.2.3l.2.1.1.1h.6V16h-.2l-.2-.2-.3-.2h-.2l-.2.1m-5.3.8h-.5v.3l.2.2h.7l.2-.2h-.1l-.1-.2h-.2l-.2-.1m9.2-7.7h-.3V9h-.1l-.2.1h-.2l-.1.1h-.1l-.1.1h-1.5v.1l-.4.3h-.8c0 .2-.1.2-.2.2l-.1.1h-.3l-.2.1v.1l-.2.2-.2.2-.2.1v.3h.1v.1h.1-.4v.1h-.1v.1l-.1.1h-.2v.1h-.1v.2h.2l-.1.1h-.5l-.1.1-.1.1v.2h.7v.1h-.5l-.1.1v.2l-.3.1-.3.1v.1l-.2.1v.2h-.1v.2l.2.1h-.1v.2l-.2.2h-.2l-.1.1h-.1c-.1 0-.2 0-.2.2v.1l.1.1.2.1h.6l.2.1h.2l.1.1v.2h-.1v.2c0 .1 0 .2.2.2h.5v.1h1.3l-.1-.1-.2-.2-.1-.2-.1-.2h-.2l-.1-.2h-.1c0-.1-.1-.2 0-.2V14l-.1-.2h-.2v-.2l.1-.2.1-.1.4-.1v-.4l-.1-.1-.1-.1h.4v.1h.2l.1-.3V12l-.1-.1s0-.1 0 0h.4v-.4h.5v-.4h.4l.1-.1.4-.1h.2v-.3l.2-.2.3-.2h.3l.1-.1h.4l.4-.1h.1c.1-.2.2-.2.4-.2l.2-.1h.6l.3-.1h.1l.1-.1h.1l.1-.2h.1v-.1h.5v-.1h.2V9h.1v-.2h.1v-.1h.1v-.3l-.2-.1h-1.2l-.2.2-.2.1h-.2m1.1.5h.2-.2m-4.7-4.6v.1l.1.1h.1l.2-.1v-.2h-.4m-.5-.4h-.1l-.2-.1v.4h.3v-.2m.5-.1h-.4v.2l.1.1h.1l.1-.1V4m-.3-1.4h-.4V3h.4v-.1m2 .8h.1-1.3l-.1.3.1.1v.1h.1l.1.1h.7c0-.2.1-.2.2-.2.2 0 .2-.2.2-.2l.1-.2m-.2-.3v-.1s0-.1 0 0V3h-.8s-.1 0 0 .1l.3.2h.4v-.1m1.5-.1h-.2l-.3.1-.2.2c0 .1 0 .2.2.2h.5c.1-.1.2-.2.3-.1s.1-.1.2-.1l.1-.1.1-.2h-.5m-.5-.7.1-.1h-.7v.1l.2.1h.4M121.4 4h-.4v.1h-.1v.4h.2l.2-.2V4m.4-.6.1.1h.5v-.1h-.1l-.2-.1h-.2m0 .6-.2-.2h-.1v.5l.1.2.1-.1V4m-.4-.4v.2h.3v-.2h-.3m1.2 0h-.2l-.3.1-.2.1V4l.1.1h1V4h.1v-.2l-.2-.1h-.1m3 .6v.3h.2l.2-.2v-.1l-.1-.1h-.1l-.3.1m-1.9-.2h-.1v.4h.4v-.4l-.1-.1h-.1m.7 0 .2-.3h-.1l-.2.1h.1V4m.8-.8h-.5v.2h.4v.1l.2.1h.3l.2.1h.4v-.1l.6-.1.1.1h.1v-.4h-.2l-.3-.1h-.2v.2h-.2v-.1h-.7l-.1-.1h-.1m-.2-.3.1.1.2.1a13 13 0 0 1 .9 0h-.3l-.9-.2m2.1-.6h-.7v.1l.3.1.1.1h.3v-.4m11.2 1.1-.1.2.1.1h.6v-.2h-.6M187 92v.2h.1l.2.1h.1l.1-.2V92h-.5m6-6.2h-.5l-.1.1-.1.1c-.1 0-.2 0-.1.1h-.2c-.2 0-.2-.1-.3-.2l-.1-.2-.2-.3-.1-.1v.2h-.3v.8l-.2.2h-.1l-.1.1-.2.1v.2c-.1 0-.2 0-.1.1v.2h.4c.1 0 .3 0 .3.2h.1v.5h-.2v.4l.2.1h.1l.2-.3c.2 0 .3-.1.3-.3v-.1l.1-.2h.5V87l.1-.2h.4l.1-.1h.1l.1-.3v-.5m-2.2-1s-.1.1 0 .2v.1h.1V85h-.3m-.9-1 .2.2v.1l.1.2h.1v.2h.6v-.2l-.2-.2h-.2V84l-.1-.2h-.2l-.1-.1-.3-.2v.2h.1m-3.4 7v.4c0 .2-.1.2-.2.2l.2.1h.4l.2.1h.2v.1h.8v-.1h.2l.2-.2v-.2h.2V91h.1l.1-.2v-.1l.1-.3V90h.1l.2-.1h.1l.1-.1h.4l.2-.1h.1v-.2h-.2v-.3h.4v-.1l.2-.2.1-.2V88l-.2.1h-.2v-.3h-.1l-.2-.1h-.2v.1h-.1v.1l-.1.2v.5l-.2.2-.2.2-.1.1-.1.1-.2.1-.2.2-.2.1-.2.1a1.7 1.7 0 0 1-.3.2v.1h-.1l-.2.1v.1h-.2l-.1.1v.1l-.2.1v.1h-.3v.4M185 75.4l.1.1.1.1h.1v.1h.1v.2h.2l.2.1.1.1h.1l.2.2.3.2v-.1l-.1-.3-.2-.1v-.1h-.1l-.1-.1-.2-.2-.2-.2-.2-.2h-.3v.2m-2.4-6.2h.5l-.1-.2h-.4v-.1h-.2l.1.3h.1m-.3-1.1h-.1l-.2-.1-.1-.1h-.2v.1c0 .1 0 .2.2.3l.2.1h.4v.1h.2v-.2h-.1l-.1-.2h-.2m10.8 5.7-.1-.1-.1-.1h-.5s-.1 0 0 0v.3l.3.1h.4v-.3m.7-.6c.2 0 .2-.2.3-.2h-.2l-.1-.1h-.3v.1l-.1.1h-.1l-.1.2h.4l.1-.1M181 67.3v.3l.1.1.2.1h.1v-.2l-.3-.2h-.1m-1.1-.7v.4l.2.2.2.2h.2v-.3h-.1V67h-.1v-.1h-.1l-.1-.1h-.2m-4 20.4v.1c-.1 0 0 .1 0 .1v.4h.3v-.4h-.1v-.1h-.1v-.1h-.1m-1.7.7v.2l.2.2v.1c.1.1.1.2 0 .2v.3l.1.3v.2h.1v.1h.2v.1h.1v.1h.5l.1-.1.2-.2h.4v-1.5h-.5l-.1.1h-.1v.1h-.8V88l-.3-.1m-.6-.8h-.1v.4h.3v-.3h-.2m-4-2.5v.1h.4l.2-.1v-.2c-.1-.1-.2-.2-.3-.1h-.1l-.2.1h-.1v.2m-8.9-15.6-.2-.1h-.2l-.2-.1v.1l.2.1.1.1.2.2h.2V69m.6-.7h-.5l-.2-.1h-.2l-.1.1v.1l.2.1.4.1h.5v-.2m2.3-.2h-.1l-.1.1-.2.1h-.2l-.2.1-.2.2h-.1l-.1.1h-.1v.5l-.1.2v.1h.2l.1-.2.2-.1.3-.2.2-.2h.1v-.1h.2l.5-.1.3-.1-.1-.1v-.1h-.7m7.1.2a2.3 2.3 0 0 1 0-.4l-.1-.1-.3-.1-.1.1v.4h.5m-7 3.2h-.2l-.2.1.5-.1m-5.3 3.8-.2.1-.2.1-.2.1v.1h-.1v.1c-.2 0-.3.2-.4.3l-.1.1h-.1l-.1-.1h-.2v.1l-.2.1v.8l-.1.1v.5h.1v.2h.1v.6h-.2l-.1-.1h-.1v.2l.1.2.2.2.1.1v.1h.1v.5l.1.2.1.1v.1h.2v.1l.1.1v.8l.1.1.1.1v.1l.1.1h.1v.3l.1.2v1.4-.3h-.2v.1l-.2.1h-.1v.2l.2.2.2.1.3.1v.1h.1l.5.1h.5l.2-.1h.4V84l.2-.3v-.1l-.2-.2.3.2h2l.1-.1.2-.2.2-.2.3-.1h.1l.1-.1h.1v-.1h.2v-.2h1l.3-.1.2-.1h.1l.2-.1h.4V82h1.1l.3.1.1.1.1.1h.5v.1h.2v.1h.3l.1.1v.4l.3.2v.1h.1v.1h.1l.1.2v.2l.1.1.1.1h.1v-.1l.2-.1v-.1h.1v-.2h.1l.2-.1.1-.2h.1V83h.2v-.2h.2v.5l-.1.1-.1.1-.1.1v.5h.3V84h.1v-.2h.3v.5h.4l.1.1v.2l.1.2.1.2v.7h.1l.2.2.2.2h.1l.4.1h.2l.2.1h.2l.1.1.4.2h.2v-.2h.2l.1-.1v-.1h.5v.1h.1v.1h.1l.1.2h.1l.2.1h.1v-.1h.3v-.1l.2-.1v-.1l.2-.2h.2l.2-.1h.7l.1-.1v-.5h.1l.1-.3.1-.2v-.5c0-.2 0-.4.2-.5l.1-.3.1-.1v-.1h.1l.2-.2.2-.2.3-.3v-.4h.1v-.2l.1-.2v-.8h.1V81l.1-.1h.1v-1.7h-.1v-.7h.1v-.4s0-.1-.1 0h-.1v.1h-.2V78l-.2-.2v-.2l-.2-.1-.1-.1-.4-.2v-.4l-.1-.1-.1-.2h-.2c-.3 0-.4 0-.5-.3V76c-.2 0-.2 0-.2-.2v-.5l-.2-.1-.1-.2h-.3l-.3-.2-.7-.1v-.1c0-.1-.1-.2 0-.4v-.5l-.1-.2-.2-.3-.1-.3-.1-.3-.1-.3-.1-.2h-.1l-.1-.1h-.1l-.2-.1v-.1h-.1l-.1-.3-.1-.1v-.2l-.1-.1V71l-.1-.3-.1-.4-.1-.2-.2-.1h-.1l-.2.4c0 .2-.1.2-.2.3v.7l-.1.2v1.7c0 .1 0 .3-.2.4l-.1.1-.4.1-.2-.1-.3-.4-.6-.3a5 5 0 0 1-1.1-.8h-.3l-.3-.1V72l.2-.2c.2 0 .3-.1.2-.2v-.4l.2-.2.2-.1.1-.2v-.3l-.3.1h-.1v-.2h-.1l-.3.1h-.8c0-.1 0-.2-.2-.2l-.2-.1h-.1l-.3-.2h-.4l.1.3h.2c.2 0 .3 0 .3.2s-.1.2-.2.2h-1.1v.1l-.1.2h-.1l-.1.3v.2l-.1.1v.8h-.4l-.1-.1h-.3l-.1.1-.1.1h-.1l-.2-.1h.1v-.5l-.2-.2h-.5l-.8.2c0 .2-.1.2-.2.3l-.1.1-.1.2v.7h-.5v.5h-.2v-.4h-.4v.1l-.1.2v.8l-.2.2-.3.2-.2.1-.1.1-.1.1h-.6l-.4.1h-.1l-.3.2h-.2l-.2.2h-.3M158 81l1.9 2.1-2-2.1m.2-12.3-.1-.1h-.4v.1h.5m.2 0v.2h.2v-.4h-.1m.8 0h-.4v.1c-.1 0-.1.1 0 .2l.1.2h.4v-.4l-.1-.1m.3-.2c-.1 0-.2 0-.1.1v.2l.1.1h.4v-.2l-.2-.2h-.2m-2.3-.8h-.4a3.3 3.3 0 0 0-.3.1v.1h.8c.1-.1.1-.1 0-.1v-.1m-3.3-2.2h-.4v.4h.4v-.4m-1.5 2a5.7 5.7 0 0 0 0 .2h.1v.1l.4.1.2.1.2.2.2.1h1v.1h.4l.2.1h1.6l.3.2a7 7 0 0 0 .2.2h.2v-.4h.1V68h-1l-.1-.1v-.2h-.4l-.2-.1h-.2l-.1-.2h-.2c0-.1 0 0 0 0h-.1l-.3.3-.4-.1-.1-.1h-.2l-.2-.2a.8.8 0 0 0-.5-.1h-1.2m.3-2.4v-.1l-.2-.1-.2.1-.1.2v.2h.3l.1-.1h.1v-.2m4.3-3.3a.5.5 0 0 0-.2.2l-.1.2h-.2l-.2.1-.2.1-.1.2h-.4v.7h-.1l-.1-.1-.3-.1-.2-.1h-.3l-.1.3v.3c-.1.2 0 .3 0 .4v.1l.1.2v.3l.2.1c0 .2.1.2.2.3v.2l.1.2.1.2.2.2h.5l.1.1v.1h.4v-.1h.4l.1.1h.3v-.1h.2l.2.1v.1c-.2 0-.2.1-.1.2h.4v-.1h.1l.1-.1h.4v-.6l.1-.1V65l.2-.2v-.3c.2 0 .3-.2.4-.3v-.5h-.1v-.3h.2v-.1h.5l.2-.1-.2-.2-.2-.1v-.1l-.2-.2v-.3l-.1-.2-.2-.1v-.2h.2l.1-.1v-.2h.1v-.1l.2-.1h.1V61h-.1c-.1 0-.2 0-.2-.2h.5v-.2h-.7V60l-.2-.2h-.6l-.1.2-.2.3v.1h-.2v.4l-.2.2h-.4l-.2.1c-.2 0-.2 0-.2.2m-8.3 3-.1-.2v.7h.2v-.3M148 63h-.2l.1.3h.2V63m-1.4-2.3.1.2h.1v.2h.1l.1.2.1.1.3.2.3.2v.2l.1.1.1.1.1.1v.1l.2.1h.2v.1l.1.2v.1l.1.2.1.2.2.2.1.1.3.3.2.1v.3l.2.2v.4l.1.1.1.2.2.2.2.2h.1v.1h.2v.1l.4.2.2.2v.2h.1l.3.2v.1h.1l.1.1h.8v-1.4l.1.1h.3l.1-.1v-.2l-.1-.1h-.1V65h-.2v.4h-.1c-.1-.2-.2-.2-.3-.1h-.1l-.1-.1V65l-.2-.3-.2-.1-.2-.2-.1-.2V64l-.2-.1v-.1h-.1v-.1h.3v-.2l-.1-.1h-.4v.1h-.1l-.1-.4h-.2v-.2h-.1a.7.7 0 0 0-.6-.2v-.1h-.1l-.1-.2h-.1v-.1h-.2v-.1l-.1-.1-.1-.2h-.1l-.2-.2-.1-.1-.1-.1h-.1v-.1c0-.1 0 0 0 0h-.1v-.1l-.1-.2h-.2V61h-.1c0-.2 0-.2-.2-.2h-.6l-.1-.1-.1-.1h-.3l-.1.1m7.8-8.2-.1.2h-.1v.1l-.1.1v.4h.1l.1.1h.5l.1-.1v-.1l.1-.1h.1V53h.1v-.1h.1v-.2h.1v-.4l-.2-.1h-.5v.1l-.2.1M177 67h-.4l.1.2.2.1h.2v.1h.9v-.1h.1l.1-.1.1-.1.1-.2.2-.1.2-.1v-.1l.1-.2v-.1l-.4-.1h-.1v.3h-.2v.1l-.1.1-.1.2h-.9m-9.6-1.5v.1h.1v.1h.1v.4h.1v.1h.2V66h.1v-.5h.1v.3h.1l.1.1v.1h.1l.1.1v.1h.4V66l.1-.1h.1l.1.2h.1l.1.1.2.1.1.1.3.1.2.1.2.1h.1l.1.1.1.1.1.1a3.7 3.7 0 0 0 .3.3v.1l.1.1v.7h.1v.2h.5v-.2l.2.1v.3l.3.2.3.1h.8v-.2l-.2-.2v-.1c0-.1 0-.1 0 0h.2l.1.1h.1c.1-.1 0-.2 0-.2v-.1h.2V68h.8c0 .1 0 .2.2.2h.3l.2.2.1.2v.4h.1l.3.3.1.1.1.2h.9l.2.1h.6v-.4h-.3l-.2-.2-.2-.1-.1-.1-.2-.1-.3-.3-.2-.3a3.7 3.7 0 0 0-.5-.3l-.1-.2h-.2c0-.1 0-.2.1-.1h.8v-.2h-.4v-.1l-.1-.2h-.2l-.2-.1h-.1v-.1h-.2v-.2l-.4-.3-.2-.2-.2-.1-.2-.2-.3-.2h-.2v-.1h-.2l-.1-.1-.2-.1h-.5v-.1l-.3-.1-.3-.1h-.5l-.2-.1h-.1l-.2-.2h-.1c0-.2-.1-.2-.2-.2h-.7l-.1.1v.2c-.1 0-.3 0-.4.2v.1l-.2.2-.1.1h-.4l-.1-.1h-.1v-.1l-.1-.1-.4-.1h-.7v.1m-1 .2-.1-.1h-.4l-.2-.1a2 2 0 0 0-.5 0h-.1c-.2.1-.2.2-.2.3v.1h1.2v.1h.1a2.8 2.8 0 0 1 .2.1s.1 0 .2 0h.1v-.3l-.1-.1m-.3-.8h-.2v.1h.3v-.1m.4-1h-.4v.4h.4l.1-.1v-.2m-1.4-1.2v-.1h-.1l-.2-.1v.2h.2v-.1m2.3 1.4h-.4v.1h-.4v.1h-.3l-.1.1v.3h.1v.2h.7v.2h.1l.1.1h.4l.2.1h.3l.1-.1.1-.1V64h-.6v-.1h-.2l-.1-.1m-3.3 1.5h-.5l-.1.2v.2h.5v-.4h-.1m.4-1h-.2v.2l.1.1h.4v-.1l-.1-.1m-1.5-1.7h-.3v.1l-.1.1v.1l-.2.1h-1.2l-.1-.1h-.2v-.1h-.2l-.1.1v.1h-.4v.2h-.2v.6l-.2.2v.2l-.2.3-.1.1v.6l.1.2v.1h.1l.1.2.2.2v.3l-.2.2v.1l.1.1h.4v-.2l.1-.1v-1.1l.2-.2h.2v.7l.1.1.1.1v.2l.1.1h.2l.2-.1h.3l.1-.2-.1-.2h-.1v-.4c0-.1-.1-.2-.2-.1h-.2V65l-.1-.1-.2-.1v-.2h.5l.2-.1V64h-.8v.2l-.1.1-.2-.1-.1-.1-.2-.2v-.5h.1l.1-.1h.9a19.3 19.3 0 0 1 1.1 0h.2l.1-.2.2-.2v-.3m1.5-.2-.1-.2h-.1v.2l-.1.2v.7l.1.2h.1v.1l.1.3h.3v.1-.4l-.1-.2v-.1l.2.1h.2l-.1-.2v-.4l-.1-.1h-.2v.1l-.1.2h-.2v-.4l.1-.2m-2.7-3.7-.1.1-.1.1v.1h-.2v.1l-.2.2v.2h.2l.1-.2h.6v-.1h.2v-.5h-.5m-2-1.3v.1l-.2.1-.1.1v.1h-.1l-.1.2h-.1l-.2.3-.1.1-.1.1v.5h.1l.1-.1.1-.1v-.1l.2-.1v-.1l.2-.2h.1V58h.1v-.1l.2-.1v-.4m1.4-.6v.2h.1v.5l-.1.1v.2h.2l.2-.1c0-.1 0-.2.2-.2V57l-.2-.2h-.5m-.3-.6V56h-.1l-.1-.1-.1-.2h-.1l-.1.1v.4h.2v.4a1 1 0 0 1 .2 0h.1v-.4m2.3 2c-.1 0-.1 0 0 0l-.1.2h-.1v.1l-.2.1v.1h-.1v.1h-.2l-.2.1v.4h.2v.2l-.1.1-.1.1v.3h.1l.1.2h1c.1 0 .1 0 0 0V60h-.2v-.4l.3-.1.1.1v.1h.2V59l-.2-.2v-.5h-.2c0-.1 0-.1 0 0m-.8-.4h-.2s-.1 0 0 0v.2h.2V58m-.4-.4.1-.1h-.7v.4h-.1l-.1.1v.1l.1.2h.4V58l.2-.1h.1v-.4m.8 0c-.1 0-.1.1 0 .2s.1 0 .1 0v-.2h-.1m-.2-1.1-.1.1v.2h.2v.1c.1 0 .1 0 0 0v.1l-.1.1-.1.1v.2h.1v-.1h.5V57h.1v-.4h-.1v-.1h-.1v-.1h-.4m-.5-.6h-.2v.5h.1v.2h.1v.1h.2v-.4h-.1l-.1-.2m.2-.3h-.1v.2h.2v-.2m-1.4-.3v.2l.1.1.1.2h.1v.1h.3v-.1h.1v-.1h.1v-.1h-.1v-.1l-.1-.1-.2-.1h-.4m.1-2h-.4v-.1l-.1-.2h-.2c-.2 0-.2.1-.3.2l-.2.2v.9h-.2v.4l.1.1v.1l.1.1v.2h.5v.1h.5v-.8l.1-.1h.1v-.1h.1l.1-.2V54c.1-.1 0-.2 0-.2v-.4h-.1m1.1-4v.2-.2m-1.6-.2h-.2v.2h-.1l-.1.2v.1h-.1l-.1.2v.5l.1.1.1.1v.4h.1v-.1l.1-.1v-.2l.1-.1v-.1l.2-.1V50l.1-.2v-.4h.1v-.2h-.2m3.8-1.3h-.2v.2l-.2.2v.1h.1l.3-.2h.1V48h-.1m1.7-4.2h-.4c-.2 0-.2.1-.3.2h-.1v.2h-.1v.2h.5v.5h-.1v.1c-.1.1 0 .2 0 .2v.1h.1l.1.1v.1h.1c0 .1.1 0 .2 0v-.2h.1l.1-.1.1-.2v-1l-.2-.1h-.1m1.7-.2v-.1h-.7v.1h-.4l-.1.2v.4h.2v.1-.1h.1V44h.7v-.3M171 41h-.2v.3h.1v-.1c.1-.1.1-.1 0-.1m6.4-5.3c-.1 0-.2.1-.1.2s0 0 .1 0h.5v-.4h-.2l-.3.1m1.4-.8h-.2l-.1.2h.4V35l-.1-.1m-3 2.2h-.2l.1.2.1-.1v-.1m-.8-.3h-.2v.3h-.7l-.2-.2v-.1h-.1l-.2-.2v-.1l-.2-.2-.4-.2h-.2v.8l-.1.1v.5h-.1c-.1 0-.1 0 0 0h-.4v.2h-.1v.1h-.2v.2c-.2 0-.2.1-.2.2.1 0 .2.1.1.2v.2l.2.1v.2l.2.1h.1l-.1-.2h.2v-.1l-.1-.1v-.2l-.2-.1v-.1h1.2l.2.2h.4V38l.1-.2h.7l.2-.1h.2v-.1l-.1-.1v-.2h.2V37h-.1v-.2m.4 0h-.2v.2h.1l.1-.1v-.1m.5-.5v.2h-.1v.2l.2-.1h.1l.1-.2v-.1l-.1-.1h-.2v.1m1-.3h-.5v.1h-.1v.1l.2.1c.1 0 .2 0 .2-.2m-8.3 7.1v.2h.1l.1.1.1-.1v-.1h-.2M167 43h-.1l-.2.2v.1l-.2.2h1l.3-.1h.1l.4-.2h.3l.2-.1h.5v.8h.2l.1-.1v-.2h.2v-.1l.1-.2V43h.1l.1.2h.6v-.1h.1V43h.2l.1.1h.1v-.3h.2l.1-.1h.1v.2h.4l.1-.1V42l.3-.2v-.3l-.1-.1V41c-.1-.1 0-.2 0-.2l.2-.1h.2v-.1l.2-.1v-.7l-.1-.1v-.4l-.3-.2h-.7v1.2h-.1v.2l-.1.2-.4.3v.2l-.1.1h-.2l-.2.1-.2.2h-.4v-.4l-.2.2c-.1 0-.1.1 0 .2v.1l-.1.2-.2.2v.1l-.4.3h-1.5v.1h-.1l-.3.3h-.2m2.3-.5v-.1h.1v.1m4-12.7h-.2l-.1-.2c-.1 0-.2 0-.2.2v.1h.1l.2.2v.1h-.4v.1s-.1 0 0 .1c-.1 0-.1.1 0 .2v.4h-.2l-.1.1v.2l-.1.1v.1h.1v.1l.2.2.1.3v3.2l-.1.1v.4h.1l.2-.1v-.2h.3v.2c.1.1.1.1.2 0v-.2c0-.1 0-.2-.2-.2V35l-.2-.2V34l.2-.2.1-.2h.6l.1.3h.2v-.2l-.2-.2V33a.2.2 0 0 1-.3-.2v-.3l-.1-.3v-.1l-.1-.1v-.2l-.1-.2V30l-.1-.2m-3-.9h-.2v.3h.4v-.3m-13.9-17.8h-.7l-.2.1v.4h.7v-.1h.1V11m-9.6-8h-.4l-.1.1-.2.1h-.3V4h-.4c-.1.1-.2.2-.1.3h.4l.2.1.1.1h1l.3-.1h.4V4h-.2v-.1c-.1 0-.1-.1 0-.2l.2-.1h.1v-.2h-.1l-.2-.1h-.1l-.1-.3c0-.1 0-.2-.1-.1h-.2V3m.8 1.8h-.1v-.3l.2-.2h-.8l-.2.2v.1l-.1.2h-.1l-.2.1h-.4v.2l.2.2.1.1.2.1.1.2h.5l.2.1.1.1.2.1h.2l.2.1h1v-.3h-.2l-.1-.1-.1-.1v-.1h.2l.2-.2-.2-.2V5h.1v-.4h-.1v-.1h-.8a2 2 0 0 0-.4 0s-.1.1 0 .2m-2.9 0h.4c0 .2.2.2.3.2h.2l.1-.1h.1v-.3l-.2-.1h-.7l-.1.3m-.6-1.8V3h.6-.6m7.3 2.8-.2-.2h-.3v.1h-.2c0 .2-.1.2-.2.2h-.1v-.2h.1s.1-.1 0-.2v-.2l-.3-.1v.1c-.1 0-.1.1 0 .1v.1h-.1l-.2-.1h-.4c-.1 0-.2.2-.1.3h.4V6h-.5v.3h-.1l-.2.1-.1.1-.3.3V7h.6v-.1h.2v-.1h1.4l.1-.1h.7v-.1h.3v-.2c0-.1 0-.2-.2-.3L152 6l-.1-.2h-.1m20 6.4h1l.2.2h1v-.2h-.1l-.2-.1h-.1l-.2-.1h-.1l-.1-.1h-.4c-.1-.1-.2 0-.2 0h-.1l-.1.1v.1l-.2.2h-.2m0-.8v.2h.5v-.4h-.4v.1m1-2.1h-.4v.4l-.2.2-.2-.1v-.1h-.1a1.7 1.7 0 0 1-.5-.2l-.3-.2-.2-.1h-.4l-.2.2h-.1l-.1.2v.3l-.2.1v.1l.1.2h.1v.1h.1v.2h.1l.1.1h.3l.2.2h.4v-.4h.1c.1 0 .2 0 .3.2h.4l.4-.2h.2l.3.2h.2v-.4l-.2-.1v-.1h-.1l-.1-.2h-.1v-.2h.3v-.3h-.1v-.1l-.1-.1h-.1m2.2 4.6h.1c.2 0 .2-.1.2-.2l.1-.2h-.5.1v.5m-.4-4h-.4l-.4-.2a.6.6 0 0 0-.2-.2h-.2v.4l-.1.1-.1.1v.2l.2.1.1.1v.3l.2-.1.2-.1h.3v-.2l.1-.1h.3v-.4m2.4.4h-.1l-.4-.1h-.1V10h-.8l-.2-.1h-.1l-.1.2v.1l.1.2h.4v.1l.1.1h1.8l.1-.1v-.2h-.2l-.2-.1h-.2m0-1.7-.1-.2-.3.1-.2.1c0 .1 0 .2.2.2h.1l.1-.1v-.1m-7.6 3-.2-.2h-.1s-.1 0 0 .2v.1l.3.1h.2v-.2h-.2m0-2-.1.1-.1.2.1.3h.3v-.5h-.1m30.2 12.2h-.8v.2c0 .2.1.2.2.2h.1l.2-.1.2.1.1.2h.1v.1h.7v-.4l-.1-.1h-.1l-.2-.2h-.2M180 33l-.1.2.1.1h.1V33m.9-.8h-.4l-.2.5h.5v-.2h.1v-.3m4.7-6.3v-.2h-.4v.1h-.1v.4h.3V26h.1m8-11.2h.1l.3.1h1.7v-.4h-.2v-.2a.7.7 0 0 0-.5-.1 8 8 0 0 0-.7 0l-.3.3v.1h-.2l-.1.1m-38.9 36.5v.2l.1.1h.1v.2l.1.1h.1v-.5l.1-.1.2-.2h-.7v.1M199 18.8l-.2-.1-.2-.1h-1v.2h.2v.2h-.3v.2h-.1l-.2-.2v-.5c0-.1 0-.2-.2-.2v-.1h-.1V18l-.2-.1h-.1l-.1-.1-.2-.2h-.1v-.1h-.2v-.1l-.2-.1-.2-.2h-.3l-.2-.1-.2-.1h-.2l-.2-.2h-.1l-.3-.2h-.1v-.1h-.1l-.1-.1h-.1l-.2-.2h-.6l-.1-.1h-.9a5.7 5.7 0 0 1-.8 0h-.5l-.2-.1h-.2v-.1l-.2-.1h-.9s-.1 0 0 .1v.2l.2.3.1.2v.2h-.2l-.2.1h-.4l-.3-.2h-.3v-.2h-.1v-.2h.1l.2-.1h.2v-.3l-.2-.1h-.7l-.1.2-.3.2h-.2v.1h-.8V16h-.3l-.1-.1h-.1l-.4-.1h-1l-.4.2v.2h-.1v.5l-.1-.2-.3-.2-.3-.1v-.8l-.3-.2h-.2l-.2-.2h-.2l-.1-.2h-1.6l-.2.1a1 1 0 0 0-.3 0h-1.3l-.1-.1v-.2l-.2-.2-.4-.1h-.7l-.2-.1v-.5h.5v-.2h-.1l-.3-.1h-.2c0-.1-.2-.2-.3-.1h-.8v.3h-.4l-.2.2-.2.1h-.3l-.1-.1v-.1l.2-.1.2-.2-.2-.2h-.5l-.1.1v-.2h.4l-.1-.2h-1l-.2-.2h-.5l-.3-.1-.2-.1h-.2v.5l-.1.1h-.6l-.1.1v.5l.1-.1h.4v-.1c.1 0 0 .1 0 .1v.6h.3v.1h-.7l-.2-.1V14h-.3v.4h-.4l-.2-.2h-.4V14h-.2s-.1-.1-.2 0h-.3v.1l-.3.1-.2.2h-.1l-.2-.2-.2-.2h-.2v-.1h-.2v-.1l-.1-.1c-.1 0-.2 0-.2.2v.2h-.2a3.4 3.4 0 0 0-.3.4v.1l-.1.1h-.7l-.2-.1v-.1h-.2v-.2c-.2 0-.2-.1-.3-.2l-.2-.2v-.1l-.1-.1v-.1c-.1-.1 0-.2 0-.2h.6v-.2h-.5l-.2-.2v-.1l.3-.1v-.2h-.2.1l.2-.1v-.2l-.2-.1h-.1l-.3-.1-.2-.1h-.5v.1a2 2 0 0 0-.5 0 2 2 0 0 0-.3-.1h-.2v-.1l-.2-.2-.2-.1-.2.1-.2.1v.3h.1v.5h-1.8v-.1l-.2-.1h-.5l-.2-.1h-.1v-.1h.2V12l-.1-.1h-1.1l-.1-.1H157v.4h-.2V12l-.2-.2v-.3l-.2-.1h-.2l-.2.2-.2-.2h-.6l-.2-.1h-.2v.1h-.1v.3h.2l-.1.2h-.1a1.9 1.9 0 0 0-.5 0l-.2.2a2.8 2.8 0 0 0-.5 0h-.4v.1l-.3.1-.3.3h-.3l.1-.2h.1l.1-.1.1-.1.2-.2h.1v-.2h.2l.2-.1.2-.2h.2v-.1l.3-.1h.4l.2-.1.1-.2.3-.2.2-.2h.2l.3-.2h.2c0-.1 0-.2.2-.2h.4l.1-.1.2-.2h.2v-.3l-.1-.1h-.4v-.1h-.2v-.2h.4v.1h.4V9h-.1l-.1-.1h-.1v-.1l-.1.2-.1.1s-.1 0 0 0l-.2-.4-.1-.1-.2-.1-.2-.1-.1-.1h-.7l-.4-.1h-.7l-.2.2h-.7v-.2h.1l.1-.1v-.3h-1.5l.1-.2h.5v-.1l.2-.1v-.1h-.4l-.2-.1-.2-.2h-.6l-.3.2h-.2v.1l-.2.2h-.1a2.2 2.2 0 0 0-.4.4v.4l.2.2h.5v.1h-1.2a1 1 0 0 0-.3 0h-.4v.1h.2v.1h.2V9H148v.1c-.2 0-.3.1-.3.2h-.2V9c-.1-.1-.2-.2-.3-.1h-.2l-.1-.2h-.4l-.2.2-.1.1-.2.2h-.5l-.3.2-.2.1h-.5l-.2.1-.1.1a1 1 0 0 0-.3 0h-.5l-.2.1-.1.1-.3.1.2.2h-.4v.1l-.3.2v.1h.2l.2.1-.1.1v.5l.2.1h.1v.2l-.2.1h-.6v.1h-1.9c-.2 0-.2 0-.3.2h-.3c-.1 0-.2 0-.3.2v.5h.1l.1.3v.2c0 .2.1.2.2.2l.3-.1h.5v.2h.1v.4h-.6v-.1l-.1-.2h-.1l-.1-.1-.1-.1h-.7l-.2-.1h-.3V13h-.1l-.1-.1h-.8c0 .3 0 .3.2.3h.4v.5h-.3l-.2-.2h-.5v.4l.2.1h.4v.1h.3v.1h.1l.1.1.2.2h.1v.3h-.2l-.2-.2h-.1v-.1h-.8l-.2-.1-.3-.1h-.1v-.1h-.1V14l-.1-.2v-.2h.1v-.2h.1v-.6h-.1l-.1-.1c-.1 0 0 0 0 0h-.2v.5l-.1.1-.2.2-.1.1-.2.1c-.2 0-.2.1-.3.2v.4h.1l.2.2h.2v.1l.1.2v.4l-.2.2-.2.2-.1.2v.5l.1.2h.6v-.1h.1l.2-.1h.2v.1l.1.1h.1l.1.1h.6l.2.1v.1l.1.3.1.2v.3h-.2l-.2-.1-.1-.2V17l-.3-.2h-.1v-.1h-.7l-.2.1-.1.3v.3l.1.3v.1l-.2.2h-.1l-.2.2v.2h-.2l-.3.1c-.2.2-.4.3-.4.5h-1.2v-.1h-.4v-.1h1.2v-.1l.1-.2h.2l.2-.2v-.4h.1l.2-.1v-.5h.4V17l-.3-.1-.2-.1v-1.5h.1v-.7l-.2-.1-.1-.2c-.2 0-.2-.1-.2-.3l.2-.2.2-.2h.1v-.8h-.5l-.1-.1-.2-.1h-1.1l-.2.2-.1.1-.1.2-.1.4v.2h-.2l-.1.1h-.1l-.1.1-.3.2v.2h-.3v.4h.5v.5l-.1.1v.2h-.1l-.2.1v.2h.6l.2.1v.2l.1.3.3.2h.2v.4h-.1v.2l-.1.1h-.5v-.1l-.2-.1V17l-.4-.2-.2-.1-.2-.1h-.2l-.1-.1-.2-.1v-.1l-.3-.2h-.3l-.6-.1H128v.3h.1l.2.2v.2l-.4.1h-.2v.4h-.4l-.1-.1v-.5h-.6v.3H125l-.1.1-.1.1-.2.1v.1h-.3l-.2-.1v-.3h.2v-.2l-.2-.1h-.4c-.2 0-.2.2-.3.2l-.1.2-.3.1h-.5l-.3.1h-.2v.1l-.1.1-.1.1-.3.1h-.4l-.2.1-.2.3v.3l-.1.1v.1h-1l-.1-.1-.2-.1-.1-.1-.1-.1V18l.2-.2h.7c0-.2 0-.4-.2-.5l-.1-.1-.1-.1h-.2l-.3-.1h-.7v.2l.2.2v.3l-.2.2-.1.1v.3h.4v.5h-.1v.6s0 .1 0 0c-.2 0-.3 0-.3-.2V19a1 1 0 0 0-.5 0 3 3 0 0 0-.4.2h-.2c0 .2-.2.2-.3.2l-.4.3h-.2v.3l.1.2.2.2v.5l-.1-.1s-.1-.1-.2 0h-.3l-.2-.1h-.5v-.1l-.2-.2-.1-.1h-.3l-.1.3.2.1h.4c.2.2.2.3 0 .4l-.1.2h-.6c0-.2-.1-.2-.2-.2l-.2-.2-.1-.1-.3-.1-.2-.2v-.1l-.1-.3h-.1l-.1-.1.2-.1v-.5h-.2v-.1h-.2v-.1l-.2-.2v-.1h-.2v-.1l-.2-.2v-.1l-.3-.1v-.1h.4v.1h.2v.1l.4.2a14.8 14.8 0 0 1 .8 0l.1.1.2.1v.1h.5l.1.1.3.2h.8V19h.4l.2-.1h.3l.1-.4.1-.2V18l-.2-.2h-.1l-.1-.1a.7.7 0 0 0-.4-.2l-.3-.2-.2-.1-.3-.2-.4-.2-.3-.2v-.1l-.3-.1h-.2l-.2-.1h-.2a20.8 20.8 0 0 0-.9 0l-.2.1h-.1V16h-.4l-.2-.1v-.1h.1v-.3l-.2-.1h-.2l-.2.2v.2h-.1v-.1h-.3v.2h-.3l-.1-.2v-.2h-.1l-.2-.1h-.4v-.1h.5l.2.1.2-.1.2-.2h.2V15l-.2-.2-.4-.2h-.2v-.1h-.1l-.2.1v.1l-.2.2h-.2v-.1l-.1-.1h-.4v.2h-.1v.2h-.2l-.1-.1v-.3h-.1v.2h-.2l-.1.1h-.1v.1h-.1v.1h-.2v-.4l.1-.1v-.2h-.4v.4h-.2l-.3.1v.2l-.2.1v.1h-.1v-.1h-.5v.2c0 .2 0 .2-.2.2h-.2v-.1h-.4v.4h-.1l-.2-.2h-.2l-.1.1v.2h-.4V16h-.2v.2l-.2-.1-.1-.1h-.7v.1h.1v.1h.2l.1.1v.1l-.1.1h-.5v.1h.4l-.2.1-.1.1h-.1v.2h.4v.2h-.4l-.1.2h-.8v.3h.2l.1.2v.2h-.7v.1h-.1l-.1.2v.4h-.1l-.3.2c0 .1 0 .2.3.2h.2-.2l-.6.1v.2l-.1.3v.2l-.1.1c-.1.2-.2.2-.3.2v.1h-.3v.2l-.1.2h-.2c-.2 0-.2.1-.3.3v.2h-.1v.5H99v.1h-.2c0 .1-.1.1 0 .2s-.1 0-.1 0v.2h.2l.2.1-.1.2h-1c-.2 0-.2 0-.2.2h.1l.2.1v.1H97l-.1.2c-.1.1 0 .2 0 .2h.1v.1h.4v.4h.1-.5v.3h.2v.1H97c0 .2-.1.3 0 .4h.4v-.1h.4v-.1.2h-.1l-.1.1v.2h.2v.2h-.2l-.1.2v.4l-.1.1v.1l.1.2h.7v.1l.1.1.3.1h.2v-.1l.2-.1.1-.2V26h.2v-.1h.1c.1 0 .2 0 .2-.2h.1v-.1l.2-.2V25l.1-.1h.3l.1.2v.1l.2.3v.2h.1v.2l.2.2.1.2v.2h-.1v.1c0 .1 0 .2.2.2l.1.2.2.1v1.1h.6l.1-.3.1-.2h.4l.1.1h.3v-.3h.1l.1-.1V27l.2-.4.1-.3v-.1l-.2-.1V26h-.1l.2-.1.1-.1.2-.1c0-.1 0-.1 0 0l.4-.1.1-.1V25h.3v-.4l-.1-.1-.1-.1-.2-.1a.7.7 0 0 1-.5-.4v-.3l.1-.3V23h.1v-.6c0-.1 0-.2.2-.3h.1l.5-.3.3-.2.2-.1.1-.2h.2v-.1h.1l.2-.2h.1c.1 0 .2-.1.1-.2v-.2l-.1-.1v-.2l.2-.3.2-.2.2-.3.2-.1h1.1v.1l.1.2.2.3v.1l.1.1v.1l-.2.1h-.1l-.1.1-.1.1-.2.1v.1l-.3.1v.1l-.1.2-.4.2v.1l-.3.2-.2.1-.2.2v.6l.1.3h.1l.1.1a.6.6 0 0 1 .1.2v.1l-.1.2v.7h.3v.1l.1.1h.4v.1l.1.1h.6l.1-.1.1-.1h.2l.5-.1.2-.2h.5s0-.1.2 0h.5c0 .2.1.2.2.2h.4v.1l.2.2h-.8l-.2.2-.1.1v.2h-.6l-.4-.1h-1.3l-.1.2-.1.2-.1.1v.5l.2.1h.4l.1.2-.1.1-.2.3v.5h-.4l-.2-.2-.1-.2h-.6l-.1.1h-.1v.2h-.1l-.3.3v.5h.1v.9h-.1l-.2.1h-.4v.4h-.5a4.9 4.9 0 0 0-.3-.2 1 1 0 0 0-.3 0c-.2 0-.2.1-.3.2h-.4s-.2 0-.2.2h-.1l-.3.1-.2.1h-.1l-.3.2v-.1h-.1l-.1-.2V29h-.2a1.9 1.9 0 0 1-.4.2h-.3l-.1.2h-.2l-.2.1-.1-.2-.3-.1h-.1l-.2-.1v-.4a2.8 2.8 0 0 1-.3-.2v-.2h.2v-.1h.1l.1-.2v-.1h.4v-.3l-.1-.1h-.1v-.1l-.1-.1v-.1h.1l.2-.3v-.1c0-.2-.1-.2-.3-.2h-.1l-.2.1v.2h-.4v.1l-.1.1v.1h.1v.2h-.5v.6c-.1 0 0 .1 0 .2l.1.1v.5h.1v.1c0 .2.1.2.2.2v.4h.4v.2c0 .1 0 .2-.2.1H99v.1l-.2.1h-1.4l-.1.1v.6h-.6v.3l-.3.2v.1l.1.1v.3h-.7v.1h-.2l-.2.2-.3.2v.2H95a13 13 0 0 0-.5.5h-.3v.2h-.5V33h-.2v-.1h-.1v-.1h-.2v.2h.1v.4h-.8v-.1l-.2-.1H92l-.2.2h-.2v.8l.2.1h.9l.1.1h.2v.4l.1.2.1.1v.1h.3v.1l.1.1v.7h-.1v.3l-.1.3v.4l-.1.2h-.4l-.4.1h-2l-.3-.1H90V37h-.4v.1h-.1l-.3.2a3.3 3.3 0 0 0-.2 0v.4h.2V39l-.1.2v.6l-.2.3v.3h.2l.1.3v.4l.2.2v.1l.1.1h.3l.2-.2h.4v.2h.1v.2l.1.1.2.1v.2h.1v.7l-.4.4-.2.3H90l-.2.2v.1h-.3a27.5 27.5 0 0 0-.3.1 3.1 3.1 0 0 0-.3.4l-.1.7v.1c0 .1 0 .2-.2.2v1l-.3.3-.2.1-.4.1h-.1l-.1.2h-.1a1 1 0 0 0-.5.3l-.1.2-.2.3c0 .2-.1.3-.2.3h-.2v.1h-.1l-.3.4v.4l-.2.3-.2.2-.1.1-.2.3-.1.4c-.2.1-.3.3-.3.4-.1.1-.2.3-.1.5v.2h.2s.1 0 0 .2v.4c.1 0 0 .1 0 .2l.1.4h.1v.2h.1v1.1c-.1 0-.1 0 0 0l-.1.5v.3h-.2c-.1 0-.2.1-.2.3v.4l.1.1v.9h.1v.1l.2.2h.4l.2.1.2.2v.1c.1 0 .2 0 .2.2l.1.2.2.3.3.3.1.2.2.5.1.4.2.2.3.1h.2l.5.2.3.2.3.3.1.1h.1v.2l.2.1h.2v.1c.1.1.3.2.4.1h.7l.2-.3h.6l.4-.1h.3l.1.1h.5v.2h.7v-.2h.1c.2 0 .2-.1.2-.2h.2s.1 0 0-.1h.4V60h.1c.3-.1.6-.2 1-.1l.2-.1h.2c.1-.2.3-.2.4-.2h.7v.2h.1a19.3 19.3 0 0 1 .4.6v.2l.2.1h1.8l.2.3.1.3v.9h-.1v.4l-.2.2h.1v.8l-.1.3c-.1 0-.1.1 0 .2v.1c.1.2.3.2.4.3v.2c.2 0 .2.1.2.2l.2.3v.1h.1l.2.1.3.2c0 .2 0 .2.2.2v.1l.1.1c.2.1.2.3.1.5v.1c0 .2 0 .4.2.5l.1.5.1.2c.2.1.2.2 0 .3l-.1.3v.2h.1v.3l.4.2v.5l-.2.4v.3c-.1 0-.2 0-.2.2v.4h-.2l-.2.3-.1.3v.1l-.1.1v.9l-.1.5v.3l.1.3h.1c.1 0 .2 0 .2.2l.1.1v.1l.2.2.1.2.1.3.1.3.2.5.1.1.2.6v1l.1.7.1.3v.5a3.2 3.2 0 0 1 .4.3v.1l.1.2.2.3v.2l.2.4v.3h.1l.2.2v.4h.1l.1.2v.1h.2c0 .2.1.2.2.3v.4h-.3l-.1.1v.7h.2l.1.2h.2v.1l.1.2h.1v.1h.2l.3.2c.2 0 .2-.1.2-.2l.1-.2.3.1h.4v-.1h.1v-.1h1.3l.1-.2h1V83h.1l.2-.2h.1s-.1 0 0 0l.2-.3h.1v-.1h.1v-.1h.4V82h.1v-.1l.3-.2.1-.2.2-.2.2-.1v-.4h.1v-.1l.1-.1v-.1l.2-.2v-.1l.1-.1.1-.1.3-.2h.2v-.1l.1-.1v-.2l.1-.2a3.9 3.9 0 0 1 0-.5l.1-.1.1-.2v-.2l-.2-.1v-.2h.1v-.1h.2v-.1l.2-.1h.2v-.1h.2l.2-.1v-.1h.2v-.1l.2-.1V77a15.4 15.4 0 0 1 0-1.3v-.3l-.1-.2V75l-.1-.1-.1-.2v-.4l.1-.2h.1l.2-.1h.3v-.1c.1 0 .2 0 .2-.2h.1l.1-.2v-.1l.1-.3h.3l.3-.1h.1l.2-.1.3-.2v-.1h.1l.2-.3h.2l.1-.2h.1V72l.1-.1.1-.1v-2.6l-.1-.1V69l-.2-.2-.2-.1v-.1l-.2-.3V68l-.1-.1v-.3l.1-.1V67l-.1-.2-.2-.1v-.5l.1-.1.3-.4.1-.4v-.5l.2-.1.1-.2h.1l.1-.1.2-.2h.1v-.1l.2-.1.1-.2.2-.1.3-.3v-.2l.1-.1V63c.2-.2.3-.3.5-.3l.3-.3.3-.2.2-.2.2-.2c.2 0 .2-.1.2-.2l.4-.2.2-.2.3-.2.1-.2.2-.1v-.2h.2v-.3l.1-.1.1-.2v-.1h.1v-.2l.2-.2.2-.2v-.1l.1-.2h.1l.1-.1.1-.2h.1v-.3l.1-.2.2-.2.1-.1v-1.1l.1-.2-.3-.1-.2.2v.2h-1.6l-.2.1-.1.1-.1.1h-.3c0-.2-.2-.2-.2-.2h-.1l-.2.1h-.3v.1h-.4l-.2-.1v-.2h-.1l-.2-.3h-.1c-.1 0-.1 0 0 0h-.5l.1-.1h.5l.1-.2v-.1l-.2-.1-.1-.2-.2-.1-.1-.2-.2-.2-.2-.2V55l-.1-.1-.2-.2h-.5v-.1l-.2-.1v-.1h-.1v-.1h-.1l-.2-.3-.1-.2v-.4l-.1-.1v-.1l-.1-.1-.1-.1-.1-.1-.1-.1h-.1l-.2-.3-.1-.2h-.1v-.1l-.1-.3v-1l-.2-.2v-.1l-.2-.2v-.2h-.2l-.1-.1-.1-.1h-.1v-.2c-.1 0-.1 0 0-.1v-.4h-.1v-.1l-.2-.2v-.2h-.1v-.1l-.1-.1v-.1l-.1-.1v-.1l-.1-.1V48l-.1-.2-.2-.3v-.2l-.2-.1V47l-.1-.1v-.3h-.1l-.2-.2-.1-.1v-.5h-.1v-.4.1l.1.1v.2h.2v.2h.1v.5h.2v.3h.1v.1h.1v.2h.4v-.2c0-.1 0-.2.2-.1v.2h.4v.1l.1.2.1.3.1.1v.2l.1.2.1.2.1.1.2.2v.1h.1v.2h.1l.1.2v.1l.1.2h.4l.1.2.2.2v.2l.1.2v.4a2.6 2.6 0 0 0 0 .3l.1.2c0 .2.1.2.2.3h.1l.4.3.2.3a14.2 14.2 0 0 1 .5.7v.2l.2.2.1.1.1.1.1.1h.1c.1.2.2.2.1.3V55l.1.2.2.3v.5l.1.1h.9l.2-.1.1-.3v-.1h.1a3.2 3.2 0 0 1 .4 0h.2l.2-.1h.1l.3-.1h.4l.2-.1V55h.1v-.2h.6l.2-.1h.2v-.1h.2v-.1l.2-.1.2-.1.1-.1v-.1l.1-.2.1-.1.2-.2h.8a4.6 4.6 0 0 1 .6-.1v-.4h.1l.2-.1c.2 0 .3 0 .3-.2h.1v-.2l.1-.1.1-.1h.2l.1-.2v-.5l.1-.1v-.2h.5l.1-.1V51h.1v-.2l.2-.1.1-.2v-.1l.1-.1-.2-.2-.3-.3-.2-.2v-.1l-.2-.1h-.5v-.2l-.2-.2-.2-.2-.1-.2v-.5l-.1.1-.1.1h-.1v.2h-.1l-.1.1-.1.2h-.1l-.3.3h-.7c-.2 0-.4 0-.4.2h-.5l-.2-.3v-1h-.2l-.1.2-.2.3v.1l-.2-.2h-.1v-.1h-.1V48l.1-.1.1-.2-.1-.1-.2-.2-.4-.2V47l-.2-.1-.1-.3-.1-.1v-.1l-.1-.1v-.6h.5v-.2l.2.1.2.1h.2l.1.1.3.4.2.3.2.2.2.2.1.1.1.1.1.1.2.1.2.2.2.1v.1h.1l.1.1h.2c.1.1.2.2.4.1h.4l.2-.1v-.1l.1-.2.3.1h.1v.1l.1.4h.1v.1h.1l.2.2v.1h.6l.4.1h.8l.3.1.2.2h.2l.3-.1h.2l.3-.1h1.4v-.1h.5l.1.2.1.1v.1h.1v.2l.1.2v.1l.2.1.1.2h.3l.2.1.1.1v.1l.2.2h.5v.1h-.6v.4l.1.1.4.4c.2 0 .2 0 .3.2h.5l.1-.1.1-.1.2-.3v-.4h.3v.2l.1.1v.7l-.1.2v.4l.1.5v.7l.1.1v.1l.1.1v.2l.1.2.1.3.2.2.1.1v.1h.1v.2l.1.3v.6l.2.2v.2h.1l.3.3v.1l.2.1v.1l.1.4v.5l.2.2v.2h.1v.2l.3.3h.1v.1h.3l.1-.3v-.2l.2-.2.1-.1v-.1h.1l.1-.1.1-.1h.2l.2-.1v-1.3h.1l.2-.2v-.4c-.1 0-.1 0 0 0l-.1-.3v-.9h.2l.1-.1.3-.2h.3l.1-.1h.1v-.2h.1l.1-.1.1-.2h.2v-.1l.2-.2v-.1h.1V53h.2v-.1l.2-.1.1-.2.1-.1.3-.2h.1l.1-.1h.1V52l.2-.1.2-.2h.1v-.1l.1-.1V51h.2l.3-.3.1-.1.1-.1v.4h.3v-.1l.1-.1h.3l.1-.1v-.1h.1v.2h.4v-.4l-.1-.1v-.3h.2v.4h.5v.2l.1.1v.6h.1v.2l.2.1.2.2.2.3h.1v.1h.1v.1l.2.2v.2c.1.1.1.2 0 .2l.1.2h.1v1.3h.1v.1h.1l.2.2.1-.1.1-.1.2-.1h.2V54h.2v-.4h.2v.4l.1.2.2.3v.1l.1.8v.1h.1l.2.2v.7h-.1v.5l.1.1v.2l-.1.2v1.3l.2.2v.1c.2 0 .2.2.3.3l.2.2.1.2h.1v.1h.1v.2h.1v.8l.1.1v.2l.1.1.1.2v.1h.1v.1l.2.2.1.2.1.1.1.1h.1v.2h.1l.2.2h.1l.2.2h.6v-.4h-.1l-.1-.1v-.1h-.1l-.1-.2v-.1h-.1v-1.3l-.2-.2h-.1l-.1-.2-.1-.1-.2-.1-.2-.2v-.1h-.4l-.1-.1h-.1v-.1h-.2l-.2-.2v-.8l-.1-.2h-.2v-.1l-.1-.1a1 1 0 0 0-.1-.3V57l.1-.2.1-.2v-.2h.1v-.7c0-.1 0-.2.1-.1h.4v.4h.1v.1h.6l.2.3h.1v.1h.1v.2h.1v.1l.1.1.1.2h.1l.2.1v.4h.5v-.1h.3v.5h-.1v.3h.1v.1h.4v-.2h.2l.1-.2.2-.3h.1v-.1l.1-.2.1-.1h.4l.2-.2h.1l.2-.1.2-.2v-.1h.1v-.1l.1-.2V56l.2-.3v-.4l-.1-.1h-.1V55h-.1v-.2h-.1l-.1-.1-.1-.1-.1-.1v-.1h-.1v-.1l-.2-.1V54h-.1l-.2-.2v-.1l-.2-.2-.1-.1-.2-.3h-.1l-.2-.2h-.1V52l.1-.1.1-.1.2-.2.1-.1.1-.1.1-.1.1-.1.2-.1h.2V51l.1-.2h.4l.1.1h1.5v-.1c0-.1 0 0 .1 0v-.1h.5v-.1h.2v-.1h.1v-.1l.2-.1h1.4l.1-.1.1-.1h.1V50l.1-.1v-.2h.4l.1-.1.3-.2h.1v-.1h.2v-.1l.2-.2v-.2l.3-.3.1-.1v-.2h-.4v-.1h.5V48h-.4c0-.1 0-.2.1-.1h.2v-.2h.1l.1-.1.1-.1v-.1h.1V47h.5v-.1h.1v-.2c0-.1 0-.2.2-.2v-.2h.2V46l-.1-.1.1-.1-.1-.2h-.4l-.1.1h-.5v-.2h.2l.1-.1.2-.1h.2v-.2l-.1-.1h-.1l-.1-.1-.1-.1h-.3v-.1l-.3-.3h-.1.4l.4.2.2.1h.2v-.1l-.1-.1h-.1v-.1l-.1-.1v-.1c-.1 0-.2 0-.2-.2l-.1-.2-.1-.1v-.1l-.1-.2h-.1l-.1-.1h-.2V43h-.2v-.4h.1v-.2l.1-.1v-.1h.2l.1-.2v-.2h.3l.1-.2h.4v-.1l.1-.2h.5v-.1h-.4l-.1-.1h-.2V41h-.4v.2h-.2l-.2.1h-.5V41l-.1-.1-.3-.1c-.2 0-.3 0-.4-.2v-.2c-.1 0 0-.1 0-.2l.1-.2h.9l.2-.4.1-.1h.3l.1-.1v-.1l.1-.1V39l.1-.1h.7v.5h-.1l-.2.2.2.2.3-.1.4-.1.2-.1h.6a1.6 1.6 0 0 0 .4.1l.1.2v.4l-.3.2h.2l-.2.2v.1h.2l.1.1h.4l.2.2v.1l.1.1h.1v.2h-.4v.2h.3v.7l-.1.2-.2.1v.2h.1v.2h-.1l-.1.2.1.1h.2v-.1h.1l.1-.1h.9V43l.2-.2h.4v-.1l.1-.1.1-.1v-.1l-.1-.2h-.1v-.9s0-.2-.2-.2V41l-.2-.2-.2-.2-.1-.1v-.1l-.2-.1h-.1v-.6h.1v-.1c.2 0 .3 0 .4-.2v-.1h.1l.3-.3h.1v-.1h.1v-.5l.1-.2.1-.1.1-.3h.2v-.1h.3l.1-.1.1-.1.2-.1h.2l.1.1h.1v.1h1v-.1l.2-.1.1-.1V37h.2v-.2h.1l.1-.1h.2v-.2h.2v-.2l.2-.2h.1l.2-.1v-.2l.3-.4.2-.2.1-.2h.1l.2-.2.1-.2.3-.3V34h.2v-.2l.1-.3a3.8 3.8 0 0 1 .2-.6l.1-.2V32l.2-.3v-.1h.1v-.1l.1-.2V31l.1-.4v-.2h-.1l-.1-.2v-.3h-.1v-.1h-.1l-.2-.1-.2-.2v-.1h-.8c-.1 0-.1 0 0 0l-.1.1-.1.3h-.4v-.5l-.2-.2-.2.1v.2h-.2v-.2c0-.2-.2-.2-.3-.2h-.4v-.4l.1-.1.1-.1h.2v-.1c.2 0 .4-.2.5-.3v-.1l.4-.2.1-.1v-.1h.2l.1-.2.2-.2.2-.2v-.1l.2-.1.1-.1h.2v-.1l.2-.2v-.1l.2-.1.1-.1.5-.3.2-.1.2-.3.2-.1.3-.1h1.5l.1.2.5-.1V25h.1l.3.2h.8l.1-.2.1-.1h.5l.2.1v.1c.2.2.3.2.5.2h.4v.1l-.2.1h-.1v.1h1v-.1c0-.2 0-.2.1-.1h.2l.2.2h.1c0-.2.1-.2.2-.2h.5-.1l-.1-.2h-.5v-.5h.1l.1-.2.2-.1.1-.1a2.8 2.8 0 0 0 .2-.2h.2V24l.1-.1h.2v-.2l.1-.1v-.5h.7l.2-.2h.5v.1h.8l-.1.1-.2.3.1.2h.3v.3h.1l.1-.1v-.2l.2-.1.2-.1h.6v-.2l.2-.1v-.4h.1v-.1h.2v-.1l.2-.1v-.1h.5l.2.1v.2h-.3l-.4.1v.2l-.1.2v.5h-.1l-.2.2h-.1l-.1.1h-.1v.1h-.2l-.2.2-.1.1-.2.2h-.1v.1l-.2.1-.2.2h-.4v.1h-.1v.4h-.1l-.1.1-.2.2-.1.2a2.5 2.5 0 0 1-.3.4h-.7l-.2.1-.1.1v.1l-.1.2v.2h-.2l-.2.2-.1.1v.1l-.1.2V29l.2.3v1.1h.1v.2l.2.1v.9c.1.1.2.2.1.3l.1.1.2-.2.3-.3v-.1l.1-.1.1-.3h.2v-.4h.2l.2-.2.1-.1h.2V30h.2v-.9l.2-.1h1v-.4l-.2-.1-.1-.2.1-.3v-.2h.1l.2-.1h.4v-.1h.1v-.4l-.1-.1V27l-.1-.1.1-.2.2-.1v-.1l-.2-.2h-.5v-.4h.1l.2-.2v-.1l.1-.2.3-.1v-.6l.4-.2h.1v.1h.1v-.2h.3c0 .2 0 .2.2.2l.1-.1.2-.2h.2v.4h.2v-.2h.2l.2-.2h1.4v.2h.1c0 .1 0 .2.2.2h.1l.1-.1.1-.1v-.2l.2-.1.2-.2h.1c0-.1.1-.2.2-.1s.1 0 .1 0v-.1l.3-.2.5-.3.3-.1.1-.1.4-.1h.1l.1-.1h.3l.3-.1v-.1l.2-.2.1-.2h.3v.1h.5l.2.1.2.1v.1h.3v-.3l-.1-.2a2.7 2.7 0 0 0-.3-.3v-.5l-.1-.1-.1-.1-.1-.2h-.4l-.1-.1v-.1l-.2-.2h-.5l-.1-.1c0-.1 0-.2.2-.2h.7v.1h.3l.2.1h.2l.4-.1.2-.2h.1V20h.4v-.2l-.2-.2v-.3h.2l.3-.3h.2l-.2.2v.4l.2.1h.8l.5.2.1.2.1.2h.1l.1.2h.5v.1h.1l.2.1.3.2h.2l.1-.2v-.2h.3V20l-.1-.1v-.4h.2l.1.1c0 .1.1.2.2.1l.2-.1h.2l.1-.1.1-.1.3-.1h.1l-.2-.3h-.1c-.2 0-.2-.1-.3-.2h-.1v-.1l-.2-.1-.2-.2M102.6 35v.5c-.1 0 0 .1 0 .1h.2l.1.1v-.1h.1v-.1l.2-.1v.1l.1.1.2.3v.1l.1.2h.1l.1.1.2.1c0 .2.2.2.3.3l.2.1.1.1.2.1.1.1.2.1.2.1.1.2h.1l.2.2v.8a2.4 2.4 0 0 0 .1.5v.2l.2.1.2.1.2.3.1.2h.1v.5l.1.2v.1h.1v.2h.1c0 .2.1.2.2.3h.3c0 .1 0 .1.1 0h.2v-.4h.2v-.1l-.1-.2v-.1.1h.4l.2-.2-.3-.3-.2-.1v-.1l-.1-.2-.1-.1h-.1v-.2h-.1V39h-.1v-.4h.1l.2.1v.1h.4v-.3h.1l.1-.1h.9l.2.2v.3h-.1v.2h.2l.2.2-.2.1v.3c.1 0 .2 0 .1.1l-.2.1v.2l.3.1v.2h.1l.4.1v.5h-.4v.4h.1v-.1h.2v.2h.4l.2-.4h.3l.1.2.2.1h.5V41h.8l.2.2.1.2h.6l.1-.1.4-.2h.3l.4-.1c.2 0 .2 0 .2.2v.5c-.1.2 0 .3 0 .4v.3h-.1l-.2.3-.1.5v.2h-.1v.2h-.1l-.2.1v.4l-.2.1v.1h-.2l-.1.2h-.5l-.3.1h-.2l-.2-.2h-.7l-.1.2h-2l-.2-.1-.3-.2h-.1l-.2-.1h-.2l-.2-.1h-.1l-.3-.2-.2-.1a1 1 0 0 0-.3-.2h-.3c-.2-.1-.3-.1-.4 0h-.8v.9l.2.2v.1l-.1.1-.1.1-.2.1h-.5l-.6-.2-.3-.1-.2-.1h-.4v-.1l-.2-.1v-.1h-.1l-.1-.3-.2-.1-.2-.1h-.1l-.4-.1-.5-.1-.3-.1-.1-.1h-.3l-.2-.2h-.1V43h-.2l-.2-.3v-.2h.1l.3-.2v-.1l.2-.1v-.2a1.6 1.6 0 0 1-.2-.2v-.4l.1-.1V41h-.1l-.1.1c-.1 0-.2 0-.2-.2h-.2a3.1 3.1 0 0 0-.6 0h-1.4v.1h-.1l-.3.1h-.3V41h-1.3v.1h-.6l-.1.1h-.1l-.1.1h-.1v.1c-.2 0-.2 0-.2.2h-.1l-.3.2-.2.1-.3.2-.6.1h-.2c-.2-.2-.3-.3-.5-.3-.2.1-.3.1-.4 0-.1 0-.2 0-.2.2l-.1-.2-.3-.2v-.2l.1-.2h.9v-.1h.4l.1-.1h.4l.3-.2v-.4h.1l.3-.2V40h.4v-.4h-.2l-.1-.2v-.2h.2V39l.1-.1.3-.2v-.4l.4-.2h.2l.4-.2h.3v-1l.1-.2.1-.1h.8l.3.2h1v-.2h.2l.2-.2v-.1h.2v-.1h.1l.2-.1h.5c.2 0 .2.2.3.3h.1l.1.2h.1v.2l.1.2s.2 0 .2.2l.3.2h.2v.2h.1l.2.2h.1c.1.2.2.3.4.3h.1l.2.2.3.2v.1h.1l.1.1h.3l.2.1v.2h-.1l.1.3v.5h-.1v.1l-.2.1h-1.3c-.2 0-.2.2-.2.3l.2.2h.1l.3.2h.2l.2.2.3.2h.1v-.5h-.1l.1-.2h.2l.1-.1.1-.1v-.1h.1l.2-.2v-.2l.2-.2h.2v-.2h-.2v-.1l-.2-.1v-.4h.5l.2.2h.1v.1l.1-.1v-.2l-.2-.1v-.1h-.2l-.4-.2-.2-.2h-.1V38h-.1v-.4h-.2l-.2-.1h-.1l-.1-.2-.2-.2V37l-.2-.2-.2-.2v-.1h-.2l-.1-.1h-.2l-.1-.1v-1.1l.2-.1h.1l.2-.1M101 21.1l.1-.2h.1l.2-.1h.2v.2l-.2.1h-.4m-.6 17.3h-.1v-.1h-.4c-.1 0-.2 0-.2.2v.5l.1.2.2.1v.4l.1.1.2.1h.1l.2-.2V39h.2v-.2l-.1-.2-.2-.2m0-1.4h-.1v.1h-.1l-.1.2-.2.2v.4h.1v.1h.4v-.4l.1-.3V37h-.2m-3.7 2-.1.2v.1h.5v-.2H97V39h-.4m16.7 2.9h-.1l-.1.1-.1.1h-.1v.2h.2c0 .1.1.1.2 0h.3l.1-.2.2-.2.3-.1a2 2 0 0 0-.6 0h-.3m-5 0h-.3v.3h.1l.2.1h.9l.1-.1.2-.1h-.8l-.4-.1Z"/>
</svg>

